RobotoSlab-Regular.ufo
<glyph name="exclam" format="1">
  <advance width="483"/>
  <unicode hex="0021"/>
  <outline>
    <contour>
      <point x="340" y="478" type="line"/>
      <point x="143" y="478" type="line"/>
      <point x="143" y="1456" type="line"/>
      <point x="340" y="1456" type="line"/>
    </contour>
    <contour>
      <point x="340" y="0" type="line"/>
      <point x="143" y="0" type="line"/>
      <point x="143" y="204" type="line"/>
      <point x="340" y="204" type="line"/>
    </contour>
  </outline>
</glyph>
<glyph name="quotedbl" format="1">
  <advance width="765"/>
  <unicode hex="0022"/>
  <outline>
    <contour>
      <point x="324.0" y="1290.0" type="line"/>
      <point x="263.0" y="1040.0" type="line"/>
      <point x="166.0" y="1040.0" type="line"/>
      <point x="166.0" y="1352.0" type="line"/>
      <point x="166.0" y="1560.0" type="line"/>
      <point x="324.0" y="1560.0" type="line"/>
    </contour>
    <contour>
      <point x="632.0" y="1290.0" type="line"/>
      <point x="571.0" y="1040.0" type="line"/>
      <point x="474.0" y="1040.0" type="line"/>
      <point x="474.0" y="1356.0" type="line"/>
      <point x="474.0" y="1560.0" type="line"/>
      <point x="632.0" y="1560.0" type="line"/>
    </contour>
  </outline>
</glyph>
<glyph name="ampersand" format="1">
  <advance width="1289"/>
  <unicode hex="0026"/>
  <outline>
    <contour>
      <point x="74.0" y="392.0" type="curve" smooth="yes"/>
      <point x="74.0" y="552.0"/>
      <point x="165.0" y="662.0"/>
      <point x="345.0" y="783.0" type="curve" smooth="yes"/>
      <point x="349.0" y="785.0"/>
      <point x="352.0" y="787.0"/>
      <point x="355.0" y="789.0" type="curve"/>
      <point x="251.0" y="921.0"/>
      <point x="201.0" y="1016.0"/>
      <point x="201.0" y="1125.0" type="curve" smooth="yes"/>
      <point x="201.0" y="1350.0"/>
      <point x="339.0" y="1477.0"/>
      <point x="567.0" y="1477.0" type="curve" smooth="yes"/>
      <point x="778.0" y="1477.0"/>
      <point x="923.0" y="1338.0"/>
      <point x="923.0" y="1167.0" type="curve" smooth="yes"/>
      <point x="923.0" y="1036.0"/>
      <point x="852.0" y="951.0"/>
      <point x="715.0" y="851.0" type="curve" smooth="yes"/>
      <point x="606.0" y="771.0" type="line"/>
      <point x="946.0" y="362.0" type="line"/>
      <point x="1001.0" y="449.0"/>
      <point x="1033.0" y="556.0"/>
      <point x="1033.0" y="673.0" type="curve"/>
      <point x="1209.0" y="673.0" type="line"/>
      <point x="1209.0" y="498.0"/>
      <point x="1156.0" y="348.0"/>
      <point x="1057.0" y="229.0" type="curve"/>
      <point x="1242.0" y="5.0" type="line"/>
      <point x="1240.0" y="0.0" type="line"/>
      <point x="1011.0" y="0.0" type="line"/>
      <point x="926.0" y="102.0" type="line"/>
      <point x="819.0" y="22.0"/>
      <point x="687.0" y="-21.0"/>
      <point x="548.0" y="-21.0" type="curve" smooth="yes"/>
      <point x="259.0" y="-21.0"/>
      <point x="74.0" y="148.0"/>
    </contour>
    <contour>
      <point x="548" y="133" type="curve" smooth="yes"/>
      <point x="644.0" y="133.0"/>
      <point x="739.333333333" y="166.666666667"/>
      <point x="822" y="228" type="curve"/>
      <point x="461" y="663" type="line"/>
      <point x="421" y="634" type="line" smooth="yes"/>
      <point x="299.666666667" y="543.333333333"/>
      <point x="271.0" y="458.666666667"/>
      <point x="271" y="392" type="curve" smooth="yes"/>
      <point x="271.0" y="241.333333333"/>
      <point x="368.0" y="133.0"/>
    </contour>
    <contour>
      <point x="398" y="1127" type="curve" smooth="yes"/>
      <point x="398.0" y="1056.33333333"/>
      <point x="434.0" y="981.666666667"/>
      <point x="506" y="891" type="curve"/>
      <point x="644" y="986" type="line" smooth="yes"/>
      <point x="720.0" y="1036.66666667"/>
      <point x="742.0" y="1095.0"/>
      <point x="742" y="1167" type="curve" smooth="yes"/>
      <point x="742.0" y="1248.33333333"/>
      <point x="671.0" y="1322.0"/>
      <point x="567" y="1322" type="curve" smooth="yes"/>
      <point x="459.0" y="1322.0"/>
      <point x="398.0" y="1236.33333333"/>
    </contour>
  </outline>
</glyph>
<glyph name="parenleft" format="1">
  <advance width="662"/>
  <unicode hex="0028"/>
  <outline>
    <contour>
      <point x="114" y="591" type="line" smooth="yes"/>
      <point x="114.0" y="1116.3333333333333"/>
      <point x="373.66666666666674" y="1512.0"/>
      <point x="607" y="1636" type="curve"/>
      <point x="613" y="1635" type="line"/>
      <point x="650" y="1519" type="line"/>
      <point x="467.33333333333326" y="1376.3333333333335"/>
      <point x="311.0" y="1055.6666666666665"/>
      <point x="311" y="593" type="curve" smooth="yes"/>
      <point x="311" y="580" type="line" smooth="yes"/>
      <point x="311.0" y="116.0"/>
      <point x="466.0" y="-200.33333333333337"/>
      <point x="650" y="-355" type="curve"/>
      <point x="613" y="-463" type="line"/>
      <point x="607" y="-463" type="line"/>
      <point x="373.6666666666667" y="-339.0"/>
      <point x="114.0" y="55.33333333333337"/>
      <point x="114" y="582" type="curve" smooth="yes"/>
    </contour>
  </outline>
</glyph>
<glyph name="parenright" format="1">
  <advance width="654"/>
  <unicode hex="0029"/>
  <outline>
    <contour>
      <point x="547" y="582" type="line" smooth="yes"/>
      <point x="547.0" y="55.3333333333"/>
      <point x="286.0" y="-339.0"/>
      <point x="54" y="-463" type="curve"/>
      <point x="48" y="-463" type="line"/>
      <point x="11" y="-355" type="line"/>
      <point x="191.0" y="-215.0"/>
      <point x="350.0" y="114.666666667"/>
      <point x="350" y="580" type="curve" smooth="yes"/>
      <point x="350" y="593" type="line" smooth="yes"/>
      <point x="350.0" y="1050.33333333"/>
      <point x="183.0" y="1381.33333333"/>
      <point x="11" y="1528" type="curve"/>
      <point x="48" y="1636" type="line"/>
      <point x="54" y="1636" type="line"/>
      <point x="286.0" y="1512.0"/>
      <point x="547.0" y="1116.33333333"/>
      <point x="547" y="591" type="curve" smooth="yes"/>
    </contour>
  </outline>
</glyph>
<glyph name="asterisk" format="1">
  <advance width="958"/>
  <unicode hex="002A"/>
  <outline>
    <contour>
      <point x="362" y="982" type="line"/>
      <point x="66" y="1071" type="line"/>
      <point x="115" y="1225" type="line"/>
      <point x="411" y="1114" type="line"/>
      <point x="401" y="1456" type="line"/>
      <point x="562" y="1456" type="line"/>
      <point x="552" y="1108" type="line"/>
      <point x="845" y="1218" type="line"/>
      <point x="893" y="1062" type="line"/>
      <point x="591" y="973" type="line"/>
      <point x="784" y="703" type="line"/>
      <point x="653" y="607" type="line"/>
      <point x="472" y="894" type="line"/>
      <point x="296" y="615" type="line"/>
      <point x="164" y="708" type="line"/>
    </contour>
  </outline>
</glyph>
<glyph name="comma" format="1">
  <advance width="404"/>
  <unicode hex="002C"/>
  <outline>
    <contour>
      <point x="315" y="72" type="line" smooth="yes"/>
      <point x="315.0" y="-58.66666666666663"/>
      <point x="244.66666666666666" y="-216.33333333333337"/>
      <point x="134" y="-311" type="curve"/>
      <point x="23" y="-237" type="line"/>
      <point x="85.66666666666666" y="-141.0"/>
      <point x="118.0" y="-43.0"/>
      <point x="118" y="69" type="curve" smooth="yes"/>
      <point x="118" y="221" type="line"/>
      <point x="315" y="221" type="line"/>
    </contour>
  </outline>
</glyph>
<glyph name="slash" format="1">
  <advance width="824"/>
  <unicode hex="002F"/>
  <outline>
    <contour>
      <point x="167" y="-125" type="line"/>
      <point x="0" y="-125" type="line"/>
      <point x="608" y="1456" type="line"/>
      <point x="774" y="1456" type="line"/>
    </contour>
  </outline>
</glyph>
<glyph name="three" format="1">
  <advance width="1106"/>
  <unicode hex="0033"/>
  <outline>
    <contour>
      <point x="363" y="819" type="line"/>
      <point x="535" y="819" type="line" smooth="yes"/>
      <point x="709.6666666666667" y="819.0"/>
      <point x="775.0" y="911.0"/>
      <point x="775" y="1067" type="curve" smooth="yes"/>
      <point x="775.0" y="1233.6666666666665"/>
      <point x="691.3333333333333" y="1322.0"/>
      <point x="530" y="1322" type="curve" smooth="yes"/>
      <point x="376.66666666666674" y="1322.0"/>
      <point x="276.0" y="1224.3333333333335"/>
      <point x="276" y="1075" type="curve"/>
      <point x="87" y="1075" type="line"/>
      <point x="85" y="1081" type="line"/>
      <point x="78.33333333333334" y="1301.0"/>
      <point x="262.0" y="1477.0"/>
      <point x="530" y="1477" type="curve" smooth="yes"/>
      <point x="799.3333333333333" y="1477.0"/>
      <point x="972.0" y="1328.3333333333335"/>
      <point x="972" y="1063" type="curve" smooth="yes"/>
      <point x="972.0" y="943.0"/>
      <point x="899.3333333333333" y="809.6666666666667"/>
      <point x="754" y="747" type="curve"/>
      <point x="928.6666666666667" y="689.6666666666667"/>
      <point x="994.0" y="558.0"/>
      <point x="994" y="406" type="curve" smooth="yes"/>
      <point x="994.0" y="140.66666666666674"/>
      <point x="800.6666666666665" y="-21.0"/>
      <point x="530" y="-21" type="curve" smooth="yes"/>
      <point x="263.3333333333333" y="-21.0"/>
      <point x="68.33333333333334" y="132.66666666666669"/>
      <point x="75" y="378" type="curve"/>
      <point x="78" y="384" type="line"/>
      <point x="266" y="384" type="line"/>
      <point x="266.0" y="230.66666666666674"/>
      <point x="366.0" y="133.0"/>
      <point x="530" y="133" type="curve" smooth="yes"/>
      <point x="696.6666666666667" y="133.0"/>
      <point x="797.0" y="224.66666666666674"/>
      <point x="797" y="402" type="curve" smooth="yes"/>
      <point x="797.0" y="582.0"/>
      <point x="716.3333333333333" y="665.0"/>
      <point x="535" y="665" type="curve" smooth="yes"/>
      <point x="363" y="665" type="line"/>
    </contour>
  </outline>
</glyph>
<glyph name="five" format="1">
  <advance width="1081"/>
  <unicode hex="0035"/>
  <outline>
    <contour>
      <point x="819" y="1168" type="line"/>
      <point x="800" y="1281" type="line"/>
      <point x="365" y="1281" type="line"/>
      <point x="318" y="872" type="line"/>
      <point x="378.0" y="917.3333333333333"/>
      <point x="451.33333333333337" y="950.3333333333333"/>
      <point x="550" y="953" type="curve" smooth="yes"/>
      <point x="818.0" y="955.6666666666667"/>
      <point x="982.0" y="764.0"/>
      <point x="982" y="464" type="curve" smooth="yes"/>
      <point x="982.0" y="172.0"/>
      <point x="822.0" y="-21.0"/>
      <point x="522" y="-21" type="curve" smooth="yes"/>
      <point x="275.33333333333337" y="-21.0"/>
      <point x="90.33333333333334" y="115.66666666666669"/>
      <point x="97" y="377" type="curve"/>
      <point x="99" y="383" type="line"/>
      <point x="277" y="383" type="line"/>
      <point x="277.0" y="225.66666666666674"/>
      <point x="378.0" y="133.0"/>
      <point x="522" y="133" type="curve" smooth="yes"/>
      <point x="688.6666666666667" y="133.0"/>
      <point x="785.0" y="258.00000000000006"/>
      <point x="785" y="462" type="curve" smooth="yes"/>
      <point x="785.0" y="650.0"/>
      <point x="687.0" y="782.0"/>
      <point x="523" y="782" type="curve" smooth="yes"/>
      <point x="368.33333333333337" y="782.0"/>
      <point x="310.0" y="736.0"/>
      <point x="278" y="640" type="curve"/>
      <point x="114" y="657" type="line"/>
      <point x="198" y="1456" type="line"/>
      <point x="967" y="1456" type="line"/>
      <point x="967" y="1168" type="line"/>
    </contour>
  </outline>
</glyph>
<glyph name="six" format="1">
  <advance width="1144"/>
  <unicode hex="0036"/>
  <outline>
    <contour>
      <point x="664" y="1477" type="curve" smooth="yes"/>
      <point x="762.666666667" y="1477.0"/>
      <point x="869.0" y="1451.66666667"/>
      <point x="933" y="1417" type="curve"/>
      <point x="895" y="1270" type="line"/>
      <point x="832.333333333" y="1300.66666667"/>
      <point x="760.0" y="1322.0"/>
      <point x="664" y="1322" type="curve" smooth="yes"/>
      <point x="460.0" y="1322.0"/>
      <point x="332.0" y="1168.66666667"/>
      <point x="324" y="858" type="curve"/>
      <point x="328" y="854" type="line"/>
      <point x="402.666666667" y="923.333333333"/>
      <point x="514.666666667" y="967.0"/>
      <point x="640" y="967" type="curve" smooth="yes"/>
      <point x="900.0" y="967.0"/>
      <point x="1067.0" y="766.0"/>
      <point x="1067" y="490" type="curve" smooth="yes"/>
      <point x="1067.0" y="188.666666667"/>
      <point x="888.666666667" y="-21.0"/>
      <point x="614" y="-21" type="curve" smooth="yes"/>
      <point x="330.0" y="-21.0"/>
      <point x="121.0" y="194.333333333"/>
      <point x="121" y="573" type="curve" smooth="yes"/>
      <point x="121" y="769" type="line" smooth="yes"/>
      <point x="121.0" y="1230.33333333"/>
      <point x="345.333333333" y="1477.0"/>
    </contour>
    <contour>
      <point x="597" y="820" type="curve" smooth="yes"/>
      <point x="462.333333333" y="820.0"/>
      <point x="366.333333333" y="761.666666667"/>
      <point x="317" y="671" type="curve"/>
      <point x="317" y="554" type="line" smooth="yes"/>
      <point x="317.0" y="283.333333333"/>
      <point x="443.333333333" y="133.0"/>
      <point x="614" y="133" type="curve" smooth="yes"/>
      <point x="775.333333333" y="133.0"/>
      <point x="870.0" y="287.333333333"/>
      <point x="870" y="490" type="curve" smooth="yes"/>
      <point x="870.0" y="682.0"/>
      <point x="767.666666667" y="820.0"/>
    </contour>
  </outline>
</glyph>
<glyph name="eight" format="1">
  <advance width="1131"/>
  <unicode hex="0038"/>
  <outline>
    <contour>
      <point x="999" y="1076" type="curve" smooth="yes"/>
      <point x="999.0" y="924.0"/>
      <point x="907.3333333333333" y="805.0"/>
      <point x="762" y="749" type="curve"/>
      <point x="930.0" y="690.3333333333333"/>
      <point x="1039.0" y="558.0"/>
      <point x="1039" y="394" type="curve" smooth="yes"/>
      <point x="1039.0" y="124.66666666666674"/>
      <point x="846.0" y="-21.0"/>
      <point x="566" y="-21" type="curve" smooth="yes"/>
      <point x="280.66666666666674" y="-21.0"/>
      <point x="92.0" y="124.66666666666674"/>
      <point x="92" y="394" type="curve" smooth="yes"/>
      <point x="92.0" y="558.0"/>
      <point x="198.0" y="690.3333333333333"/>
      <point x="366" y="749" type="curve"/>
      <point x="220.66666666666674" y="805.0"/>
      <point x="133.0" y="924.0"/>
      <point x="133" y="1076" type="curve" smooth="yes"/>
      <point x="133.0" y="1332.0"/>
      <point x="305.33333333333337" y="1477.0"/>
      <point x="564" y="1477" type="curve" smooth="yes"/>
      <point x="820.0" y="1477.0"/>
      <point x="999.0" y="1332.0"/>
    </contour>
    <contour>
      <point x="843" y="398" type="curve" smooth="yes"/>
      <point x="843.0" y="558.0"/>
      <point x="725.3333333333333" y="672.0"/>
      <point x="564" y="672" type="curve" smooth="yes"/>
      <point x="401.33333333333337" y="672.0"/>
      <point x="289.0" y="559.3333333333333"/>
      <point x="289" y="398" type="curve" smooth="yes"/>
      <point x="289.0" y="232.66666666666674"/>
      <point x="398.0" y="133.0"/>
      <point x="566" y="133" type="curve" smooth="yes"/>
      <point x="730.0" y="133.0"/>
      <point x="843.0" y="234.0"/>
    </contour>
    <contour>
      <point x="802" y="1072" type="curve" smooth="yes"/>
      <point x="802.0" y="1216.0"/>
      <point x="701.3333333333333" y="1322.0"/>
      <point x="564" y="1322" type="curve" smooth="yes"/>
      <point x="424.0" y="1322.0"/>
      <point x="330.0" y="1222.6666666666665"/>
      <point x="330" y="1072" type="curve" smooth="yes"/>
      <point x="330.0" y="924.0"/>
      <point x="424.66666666666674" y="827.0"/>
      <point x="566" y="827" type="curve" smooth="yes"/>
      <point x="704.6666666666667" y="827.0"/>
      <point x="802.0" y="924.0"/>
    </contour>
  </outline>
</glyph>
<glyph name="less" format="1">
  <advance width="1017"/>
  <unicode hex="003C"/>
  <outline>
    <contour>
      <point x="248" y="561" type="line"/>
      <point x="248" y="555" type="line"/>
      <point x="333" y="536" type="line"/>
      <point x="892" y="308" type="line"/>
      <point x="892" y="107" type="line"/>
      <point x="76" y="486" type="line"/>
      <point x="76" y="635" type="line"/>
      <point x="892" y="1013" type="line"/>
      <point x="892" y="812" type="line"/>
      <point x="333" y="579" type="line"/>
    </contour>
  </outline>
</glyph>
<glyph name="equal" format="1">
  <advance width="1127"/>
  <unicode hex="003D"/>
  <outline>
    <contour>
      <point x="981" y="823" type="line"/>
      <point x="147" y="823" type="line"/>
      <point x="147" y="987" type="line"/>
      <point x="981" y="987" type="line"/>
    </contour>
    <contour>
      <point x="981" y="407" type="line"/>
      <point x="147" y="407" type="line"/>
      <point x="147" y="571" type="line"/>
      <point x="981" y="571" type="line"/>
    </contour>
  </outline>
</glyph>
<glyph name="question" format="1">
  <advance width="953"/>
  <unicode hex="003F"/>
  <outline>
    <contour>
      <point x="360" y="410" type="line"/>
      <point x="361.33333333333337" y="604.6666666666666"/>
      <point x="374.0" y="636.3333333333333"/>
      <point x="510" y="759" type="curve"/>
      <point x="642.0" y="915.0"/>
      <point x="693.0" y="972.3333333333335"/>
      <point x="693" y="1091" type="curve" smooth="yes"/>
      <point x="693.0" y="1232.3333333333335"/>
      <point x="615.0" y="1311.0"/>
      <point x="475" y="1311" type="curve" smooth="yes"/>
      <point x="353.66666666666663" y="1311.0"/>
      <point x="257.0" y="1244.0"/>
      <point x="257" y="1116" type="curve"/>
      <point x="69" y="1116" type="line"/>
      <point x="66" y="1122" type="line"/>
      <point x="62.0" y="1336.6666666666665"/>
      <point x="235.0" y="1477.0"/>
      <point x="475" y="1477" type="curve" smooth="yes"/>
      <point x="737.6666666666665" y="1477.0"/>
      <point x="890.0" y="1336.0"/>
      <point x="890" y="1096" type="curve" smooth="yes"/>
      <point x="890.0" y="924.0"/>
      <point x="787.6666666666667" y="790.3333333333333"/>
      <point x="633" y="641" type="curve" smooth="yes"/>
      <point x="562.3333333333333" y="569.0"/>
      <point x="557.0" y="531.3333333333334"/>
      <point x="557" y="410" type="curve"/>
    </contour>
    <contour>
      <point x="563" y="0" type="line"/>
      <point x="358" y="0" type="line"/>
      <point x="358" y="208" type="line"/>
      <point x="563" y="208" type="line"/>
    </contour>
  </outline>
</glyph>
<glyph name="C" format="1">
  <advance width="1290"/>
  <unicode hex="0043"/>
  <outline>
    <contour>
      <point x="1174" y="1007" type="line"/>
      <point x="1017" y="1007" type="line"/>
      <point x="996" y="1237" type="line"/>
      <point x="932" y="1286"/>
      <point x="838" y="1314"/>
      <point x="721" y="1314" type="curve" smooth="yes"/>
      <point x="435" y="1314"/>
      <point x="278" y="1077"/>
      <point x="278" y="740" type="curve" smooth="yes"/>
      <point x="278" y="717" type="line" smooth="yes"/>
      <point x="278" y="350"/>
      <point x="445" y="139"/>
      <point x="746" y="139" type="curve" smooth="yes"/>
      <point x="839" y="139"/>
      <point x="935" y="164"/>
      <point x="994" y="200" type="curve"/>
      <point x="1016" y="403" type="line"/>
      <point x="1170" y="403" type="line"/>
      <point x="1170" y="87" type="line"/>
      <point x="1061" y="19"/>
      <point x="900" y="-21"/>
      <point x="739" y="-21" type="curve" smooth="yes"/>
      <point x="300" y="-21"/>
      <point x="80" y="293"/>
      <point x="80" y="717" type="curve" smooth="yes"/>
      <point x="80" y="738" type="line" smooth="yes"/>
      <point x="80" y="1165"/>
      <point x="321" y="1477"/>
      <point x="722" y="1477" type="curve" smooth="yes"/>
      <point x="910" y="1477"/>
      <point x="1071" y="1412"/>
      <point x="1174" y="1321" type="curve"/>
    </contour>
  </outline>
</glyph>
<glyph name="F" format="1">
  <advance width="1256"/>
  <unicode hex="0046"/>
  <outline>
    <contour>
      <point x="81" y="126" type="line"/>
      <point x="244" y="154" type="line"/>
      <point x="244" y="1301" type="line"/>
      <point x="81" y="1329" type="line"/>
      <point x="81" y="1456" type="line"/>
      <point x="1176" y="1456" type="line"/>
      <point x="1176" y="1106" type="line"/>
      <point x="1018" y="1106" type="line"/>
      <point x="996" y="1303" type="line"/>
      <point x="441" y="1303" type="line"/>
      <point x="441" y="799" type="line"/>
      <point x="974" y="799" type="line"/>
      <point x="974" y="644" type="line"/>
      <point x="441" y="644" type="line"/>
      <point x="441" y="154" type="line"/>
      <point x="604" y="126" type="line"/>
      <point x="604" y="0" type="line"/>
      <point x="81" y="0" type="line"/>
    </contour>
  </outline>
</glyph>
<glyph name="G" format="1">
  <advance width="1346"/>
  <unicode hex="0047"/>
  <outline>
    <contour>
      <point x="1226" y="136" type="line"/>
      <point x="1142" y="57"/>
      <point x="991" y="-21"/>
      <point x="738" y="-21" type="curve" smooth="yes"/>
      <point x="333" y="-21"/>
      <point x="80" y="280"/>
      <point x="80" y="716" type="curve" smooth="yes"/>
      <point x="80" y="740" type="line" smooth="yes"/>
      <point x="80" y="1179"/>
      <point x="342" y="1477"/>
      <point x="699" y="1477" type="curve" smooth="yes"/>
      <point x="925" y="1477"/>
      <point x="1078" y="1421"/>
      <point x="1190" y="1333" type="curve"/>
      <point x="1190" y="1039" type="line"/>
      <point x="1028" y="1039" type="line"/>
      <point x="1007" y="1250" type="line"/>
      <point x="942" y="1293"/>
      <point x="848" y="1315"/>
      <point x="719" y="1315" type="curve" smooth="yes"/>
      <point x="469" y="1315"/>
      <point x="278" y="1085"/>
      <point x="278" y="742" type="curve" smooth="yes"/>
      <point x="278" y="716" type="line" smooth="yes"/>
      <point x="278" y="368"/>
      <point x="443" y="140"/>
      <point x="738" y="140" type="curve" smooth="yes"/>
      <point x="871" y="140"/>
      <point x="958" y="166"/>
      <point x="1029" y="203" type="curve"/>
      <point x="1029" y="545" type="line"/>
      <point x="750" y="555" type="line"/>
      <point x="750" y="700" type="line"/>
      <point x="1226" y="700" type="line"/>
    </contour>
  </outline>
</glyph>
<glyph name="H" format="1">
  <advance width="1578"/>
  <unicode hex="0048"/>
  <outline>
    <contour>
      <point x="81" y="1329" type="line"/>
      <point x="81" y="1456" type="line"/>
      <point x="604" y="1456" type="line"/>
      <point x="604" y="1329" type="line"/>
      <point x="441" y="1301" type="line"/>
      <point x="441" y="798" type="line"/>
      <point x="1137" y="798" type="line"/>
      <point x="1137" y="1301" type="line"/>
      <point x="974" y="1329" type="line"/>
      <point x="974" y="1456" type="line"/>
      <point x="1137" y="1456" type="line"/>
      <point x="1334" y="1456" type="line"/>
      <point x="1497" y="1456" type="line"/>
      <point x="1497" y="1329" type="line"/>
      <point x="1334" y="1301" type="line"/>
      <point x="1334" y="154" type="line"/>
      <point x="1497" y="126" type="line"/>
      <point x="1497" y="0" type="line"/>
      <point x="974" y="0" type="line"/>
      <point x="974" y="126" type="line"/>
      <point x="1137" y="154" type="line"/>
      <point x="1137" y="643" type="line"/>
      <point x="441" y="643" type="line"/>
      <point x="441" y="154" type="line"/>
      <point x="604" y="126" type="line"/>
      <point x="604" y="0" type="line"/>
      <point x="81" y="0" type="line"/>
      <point x="81" y="126" type="line"/>
      <point x="244" y="154" type="line"/>
      <point x="244" y="1301" type="line"/>
    </contour>
  </outline>
</glyph>
<glyph name="I" format="1">
  <advance width="763"/>
  <unicode hex="0049"/>
  <outline>
    <contour>
      <point x="120" y="1329" type="line"/>
      <point x="120" y="1456" type="line"/>
      <point x="643" y="1456" type="line"/>
      <point x="643" y="1329" type="line"/>
      <point x="480" y="1301" type="line"/>
      <point x="480" y="154" type="line"/>
      <point x="643" y="126" type="line"/>
      <point x="643" y="0" type="line"/>
      <point x="120" y="0" type="line"/>
      <point x="120" y="126" type="line"/>
      <point x="283" y="154" type="line"/>
      <point x="283" y="1301" type="line"/>
    </contour>
  </outline>
</glyph>
<glyph name="O" format="1">
  <advance width="1351"/>
  <unicode hex="004F"/>
  <outline>
    <contour>
      <point x="1281" y="717" type="line" smooth="yes"/>
      <point x="1281" y="283"/>
      <point x="1072" y="-21"/>
      <point x="675" y="-21" type="curve" smooth="yes"/>
      <point x="299" y="-21"/>
      <point x="70" y="283"/>
      <point x="70" y="717" type="curve" smooth="yes"/>
      <point x="70" y="738" type="line" smooth="yes"/>
      <point x="70" y="1171"/>
      <point x="298" y="1477"/>
      <point x="675" y="1477" type="curve" smooth="yes"/>
      <point x="1072" y="1477"/>
      <point x="1281" y="1171"/>
      <point x="1281" y="738" type="curve" smooth="yes"/>
    </contour>
    <contour>
      <point x="1083" y="740" type="line" smooth="yes"/>
      <point x="1083" y="1079"/>
      <point x="960" y="1312"/>
      <point x="675" y="1312" type="curve" smooth="yes"/>
      <point x="412" y="1312"/>
      <point x="268" y="1077"/>
      <point x="268" y="740" type="curve" smooth="yes"/>
      <point x="268" y="717" type="line" smooth="yes"/>
      <point x="268" y="376"/>
      <point x="412" y="143"/>
      <point x="675" y="143" type="curve" smooth="yes"/>
      <point x="964" y="143"/>
      <point x="1083" y="374"/>
      <point x="1083" y="717" type="curve" smooth="yes"/>
    </contour>
  </outline>
</glyph>
<glyph name="P" format="1">
  <advance width="1297"/>
  <unicode hex="0050"/>
  <outline>
    <contour>
      <point x="750" y="1456" type="line" smooth="yes"/>
      <point x="1061" y="1456"/>
      <point x="1242" y="1281"/>
      <point x="1242" y="1020" type="curve" smooth="yes"/>
      <point x="1242" y="756"/>
      <point x="1061" y="584"/>
      <point x="750" y="584" type="curve" smooth="yes"/>
      <point x="441" y="584" type="line"/>
      <point x="441" y="154" type="line"/>
      <point x="604" y="126" type="line"/>
      <point x="604" y="0" type="line"/>
      <point x="81" y="0" type="line"/>
      <point x="81" y="126" type="line"/>
      <point x="244" y="154" type="line"/>
      <point x="244" y="1301" type="line"/>
      <point x="81" y="1329" type="line"/>
      <point x="81" y="1456" type="line"/>
      <point x="244" y="1456" type="line"/>
    </contour>
    <contour>
      <point x="441" y="738" type="line"/>
      <point x="750" y="738" type="line" smooth="yes"/>
      <point x="947" y="738"/>
      <point x="1045" y="857"/>
      <point x="1045" y="1018" type="curve" smooth="yes"/>
      <point x="1045" y="1179"/>
      <point x="947" y="1301"/>
      <point x="750" y="1301" type="curve" smooth="yes"/>
      <point x="441" y="1301" type="line"/>
    </contour>
  </outline>
</glyph>
<glyph name="V" format="1">
  <advance width="1508"/>
  <unicode hex="0056"/>
  <outline>
    <contour>
      <point x="525" y="1329" type="line"/>
      <point x="392" y="1308" type="line"/>
      <point x="718" y="382" type="line"/>
      <point x="752" y="267" type="line"/>
      <point x="758" y="267" type="line"/>
      <point x="794" y="382" type="line"/>
      <point x="1132" y="1309" type="line"/>
      <point x="984" y="1329" type="line"/>
      <point x="984" y="1456" type="line"/>
      <point x="1443" y="1456" type="line"/>
      <point x="1443" y="1329" type="line"/>
      <point x="1326" y="1313" type="line"/>
      <point x="838" y="0" type="line"/>
      <point x="669" y="0" type="line"/>
      <point x="181" y="1313" type="line"/>
      <point x="65" y="1329" type="line"/>
      <point x="65" y="1456" type="line"/>
      <point x="525" y="1456" type="line"/>
    </contour>
  </outline>
</glyph>
<glyph name="Z" format="1">
  <advance width="1197"/>
  <unicode hex="005A"/>
  <outline>
    <contour>
      <point x="1074" y="1456" type="line"/>
      <point x="1074" y="1311" type="line"/>
      <point x="313" y="153" type="line"/>
      <point x="932" y="153" type="line"/>
      <point x="950" y="360" type="line"/>
      <point x="1107" y="360" type="line"/>
      <point x="1107" y="0" type="line"/>
      <point x="90" y="0" type="line"/>
      <point x="90" y="149" type="line"/>
      <point x="847" y="1302" type="line"/>
      <point x="281" y="1302" type="line"/>
      <point x="263" y="1114" type="line"/>
      <point x="105" y="1114" type="line"/>
      <point x="105" y="1456" type="line"/>
    </contour>
  </outline>
</glyph>
<glyph name="backslash" format="1">
  <advance width="841"/>
  <unicode hex="005C"/>
  <outline>
    <contour>
      <point x="36" y="1456" type="line"/>
      <point x="222" y="1456" type="line"/>
      <point x="830" y="-125" type="line"/>
      <point x="644" y="-125" type="line"/>
    </contour>
  </outline>
</glyph>
<glyph name="bracketright" format="1">
  <advance width="552"/>
  <unicode hex="005D"/>
  <outline>
    <contour>
      <point x="23" y="1664" type="line"/>
      <point x="408" y="1664" type="line"/>
      <point x="408" y="-312" type="line"/>
      <point x="23" y="-312" type="line"/>
      <point x="23" y="-157" type="line"/>
      <point x="211" y="-157" type="line"/>
      <point x="211" y="1509" type="line"/>
      <point x="23" y="1509" type="line"/>
    </contour>
  </outline>
</glyph>
<glyph name="underscore" format="1">
  <advance width="1168"/>
  <unicode hex="005F"/>
  <outline>
    <contour>
      <point x="1041" y="-154" type="line"/>
      <point x="119" y="-154" type="line"/>
      <point x="119" y="0" type="line"/>
      <point x="1041" y="0" type="line"/>
    </contour>
  </outline>
</glyph>
<glyph name="a" format="1">
  <advance width="1132"/>
  <unicode hex="0061"/>
  <outline>
    <contour>
      <point x="770" y="0" type="line"/>
      <point x="758" y="59"/>
      <point x="752" y="102"/>
      <point x="749" y="149" type="curve"/>
      <point x="673" y="52"/>
      <point x="553" y="-21"/>
      <point x="424" y="-21" type="curve" smooth="yes"/>
      <point x="199" y="-21"/>
      <point x="79" y="94"/>
      <point x="79" y="294" type="curve" smooth="yes"/>
      <point x="79" y="499"/>
      <point x="256" y="635"/>
      <point x="555" y="635" type="curve" smooth="yes"/>
      <point x="748" y="635" type="line"/>
      <point x="748" y="741" type="line" smooth="yes"/>
      <point x="748" y="872"/>
      <point x="665" y="947"/>
      <point x="521" y="947" type="curve" smooth="yes"/>
      <point x="430" y="947"/>
      <point x="366" y="924"/>
      <point x="312" y="885" type="curve"/>
      <point x="291" y="734" type="line"/>
      <point x="139" y="734" type="line"/>
      <point x="139" y="982" type="line"/>
      <point x="236" y="1061"/>
      <point x="367" y="1102"/>
      <point x="524" y="1102" type="curve" smooth="yes"/>
      <point x="787" y="1102"/>
      <point x="945" y="972"/>
      <point x="945" y="739" type="curve" smooth="yes"/>
      <point x="945" y="218" type="line" smooth="yes"/>
      <point x="945" y="190"/>
      <point x="945" y="164"/>
      <point x="948" y="137" type="curve"/>
      <point x="1053" y="126" type="line"/>
      <point x="1053" y="0" type="line"/>
    </contour>
    <contour>
      <point x="453" y="144" type="curve" smooth="yes"/>
      <point x="584" y="144"/>
      <point x="701" y="216"/>
      <point x="748" y="304" type="curve"/>
      <point x="748" y="500" type="line"/>
      <point x="548" y="500" type="line" smooth="yes"/>
      <point x="367" y="500"/>
      <point x="276" y="397"/>
      <point x="276" y="290" type="curve" smooth="yes"/>
      <point x="276" y="195"/>
      <point x="334" y="144"/>
    </contour>
  </outline>
</glyph>
<glyph name="b" format="1">
  <advance width="1145"/>
  <unicode hex="0062"/>
  <outline>
    <contour>
      <point x="1071" y="500" type="line" smooth="yes"/>
      <point x="1071" y="188"/>
      <point x="912" y="-21"/>
      <point x="649" y="-21" type="curve" smooth="yes"/>
      <point x="508" y="-21"/>
      <point x="404" y="34"/>
      <point x="335" y="139" type="curve"/>
      <point x="317" y="0" type="line"/>
      <point x="147" y="0" type="line"/>
      <point x="147" y="1405" type="line"/>
      <point x="-16" y="1433" type="line"/>
      <point x="-16" y="1560" type="line"/>
      <point x="344" y="1560" type="line"/>
      <point x="344" y="954" type="line"/>
      <point x="412" y="1050"/>
      <point x="512" y="1102"/>
      <point x="647" y="1102" type="curve" smooth="yes"/>
      <point x="914" y="1102"/>
      <point x="1071" y="869"/>
      <point x="1071" y="521" type="curve" smooth="yes"/>
    </contour>
    <contour>
      <point x="873" y="521" type="line" smooth="yes"/>
      <point x="873" y="770"/>
      <point x="784" y="942"/>
      <point x="597" y="942" type="curve" smooth="yes"/>
      <point x="476" y="942"/>
      <point x="393" y="879"/>
      <point x="344" y="780" type="curve"/>
      <point x="344" y="302" type="line"/>
      <point x="393" y="202"/>
      <point x="478" y="139"/>
      <point x="599" y="139" type="curve" smooth="yes"/>
      <point x="784" y="139"/>
      <point x="873" y="283"/>
      <point x="873" y="500" type="curve" smooth="yes"/>
    </contour>
  </outline>
</glyph>
<glyph name="i" format="1">
  <advance width="652"/>
  <unicode hex="0069"/>
  <outline>
    <contour>
      <point x="67" y="126" type="line"/>
      <point x="230" y="154" type="line"/>
      <point x="230" y="927" type="line"/>
      <point x="67" y="955" type="line"/>
      <point x="67" y="1082" type="line"/>
      <point x="427" y="1082" type="line"/>
      <point x="427" y="154" type="line"/>
      <point x="590" y="126" type="line"/>
      <point x="590" y="0" type="line"/>
      <point x="67" y="0" type="line"/>
    </contour>
    <contour>
      <point x="427" y="1349" type="line"/>
      <point x="220" y="1349" type="line"/>
      <point x="220" y="1560" type="line"/>
      <point x="427" y="1560" type="line"/>
    </contour>
  </outline>
</glyph>
<glyph name="m" format="1">
  <advance width="1977"/>
  <unicode hex="006D"/>
  <outline>
    <contour>
      <point x="74" y="955" type="line"/>
      <point x="74" y="1082" type="line"/>
      <point x="414" y="1082" type="line"/>
      <point x="427" y="941" type="line"/>
      <point x="496" y="1044"/>
      <point x="607" y="1102"/>
      <point x="751" y="1102" type="curve" smooth="yes"/>
      <point x="895" y="1102"/>
      <point x="1001" y="1035"/>
      <point x="1053" y="902" type="curve"/>
      <point x="1121" y="1025"/>
      <point x="1235" y="1102"/>
      <point x="1384" y="1102" type="curve" smooth="yes"/>
      <point x="1605" y="1102"/>
      <point x="1742" y="951"/>
      <point x="1742" y="647" type="curve" smooth="yes"/>
      <point x="1742" y="154" type="line"/>
      <point x="1905" y="126" type="line"/>
      <point x="1905" y="0" type="line"/>
      <point x="1381" y="0" type="line"/>
      <point x="1381" y="126" type="line"/>
      <point x="1544" y="154" type="line"/>
      <point x="1544" y="649" type="line" smooth="yes"/>
      <point x="1544" y="862"/>
      <point x="1470" y="942"/>
      <point x="1326" y="942" type="curve" smooth="yes"/>
      <point x="1189" y="942"/>
      <point x="1101" y="834"/>
      <point x="1088" y="687" type="curve"/>
      <point x="1088" y="154" type="line"/>
      <point x="1251" y="126" type="line"/>
      <point x="1251" y="0" type="line"/>
      <point x="728" y="0" type="line"/>
      <point x="728" y="126" type="line"/>
      <point x="891" y="154" type="line"/>
      <point x="891" y="649" type="line" smooth="yes"/>
      <point x="891" y="852"/>
      <point x="814" y="942"/>
      <point x="671" y="942" type="curve" smooth="yes"/>
      <point x="551" y="942"/>
      <point x="475" y="890"/>
      <point x="434" y="801" type="curve"/>
      <point x="434" y="154" type="line"/>
      <point x="597" y="126" type="line"/>
      <point x="597" y="0" type="line"/>
      <point x="74" y="0" type="line"/>
      <point x="74" y="126" type="line"/>
      <point x="237" y="154" type="line"/>
      <point x="237" y="927" type="line"/>
    </contour>
  </outline>
</glyph>
<glyph name="o" format="1">
  <advance width="1116"/>
  <unicode hex="006F"/>
  <outline>
    <contour>
      <point x="74" y="551" type="line" smooth="yes"/>
      <point x="74" y="871"/>
      <point x="260" y="1102"/>
      <point x="557" y="1102" type="curve" smooth="yes"/>
      <point x="856" y="1102"/>
      <point x="1042" y="872"/>
      <point x="1042" y="551" type="curve" smooth="yes"/>
      <point x="1042" y="529" type="line" smooth="yes"/>
      <point x="1042" y="206"/>
      <point x="856" y="-21"/>
      <point x="559" y="-21" type="curve" smooth="yes"/>
      <point x="259" y="-21"/>
      <point x="74" y="208"/>
      <point x="74" y="529" type="curve" smooth="yes"/>
    </contour>
    <contour>
      <point x="271" y="529" type="line" smooth="yes"/>
      <point x="271" y="300"/>
      <point x="368" y="133"/>
      <point x="559" y="133" type="curve" smooth="yes"/>
      <point x="746" y="133"/>
      <point x="845" y="300"/>
      <point x="845" y="529" type="curve" smooth="yes"/>
      <point x="845" y="551" type="line" smooth="yes"/>
      <point x="845" y="778"/>
      <point x="746" y="947"/>
      <point x="557" y="947" type="curve" smooth="yes"/>
      <point x="368" y="947"/>
      <point x="271" y="778"/>
      <point x="271" y="551" type="curve" smooth="yes"/>
    </contour>
  </outline>
</glyph>
<glyph name="s" format="1">
  <advance width="1022"/>
  <unicode hex="0073"/>
  <outline>
    <contour>
      <point x="890" y="752" type="line"/>
      <point x="742" y="752" type="line"/>
      <point x="710" y="896" type="line"/>
      <point x="663" y="930"/>
      <point x="599" y="950"/>
      <point x="517" y="950" type="curve" smooth="yes"/>
      <point x="394" y="950"/>
      <point x="310" y="886"/>
      <point x="310" y="799" type="curve" smooth="yes"/>
      <point x="310" y="723"/>
      <point x="346" y="681"/>
      <point x="528" y="638" type="curve" smooth="yes"/>
      <point x="829" y="567"/>
      <point x="933" y="461"/>
      <point x="933" y="301" type="curve" smooth="yes"/>
      <point x="933" y="118"/>
      <point x="803" y="-21"/>
      <point x="512" y="-21" type="curve" smooth="yes"/>
      <point x="367" y="-21"/>
      <point x="249" y="7"/>
      <point x="106" y="69" type="curve"/>
      <point x="104" y="326" type="line"/>
      <point x="253" y="326" type="line"/>
      <point x="290" y="171" type="line"/>
      <point x="365" y="140"/>
      <point x="431" y="127"/>
      <point x="512" y="127" type="curve" smooth="yes"/>
      <point x="672" y="127"/>
      <point x="736" y="196"/>
      <point x="736" y="287" type="curve" smooth="yes"/>
      <point x="736" y="372"/>
      <point x="677" y="429"/>
      <point x="493" y="471" type="curve" smooth="yes"/>
      <point x="231" y="531"/>
      <point x="112" y="625"/>
      <point x="112" y="793" type="curve" smooth="yes"/>
      <point x="112" y="968"/>
      <point x="275" y="1102"/>
      <point x="517" y="1102" type="curve" smooth="yes"/>
      <point x="681" y="1102"/>
      <point x="793" y="1062"/>
      <point x="880" y="999" type="curve"/>
    </contour>
  </outline>
</glyph>
<glyph name="x" format="1">
  <advance width="1203"/>
  <unicode hex="0078"/>
  <outline>
    <contour>
      <point x="42" y="126" type="line"/>
      <point x="162" y="149" type="line"/>
      <point x="485" y="547" type="line"/>
      <point x="169" y="932" type="line"/>
      <point x="62" y="955" type="line"/>
      <point x="62" y="1082" type="line"/>
      <point x="486" y="1082" type="line"/>
      <point x="486" y="955" type="line"/>
      <point x="378" y="943" type="line"/>
      <point x="600" y="667" type="line"/>
      <point x="816" y="944" type="line"/>
      <point x="700" y="955" type="line"/>
      <point x="700" y="1082" type="line"/>
      <point x="1117" y="1082" type="line"/>
      <point x="1117" y="955" type="line"/>
      <point x="1007" y="932" type="line"/>
      <point x="714" y="550" type="line"/>
      <point x="1051" y="149" type="line"/>
      <point x="1163" y="126" type="line"/>
      <point x="1163" y="0" type="line"/>
      <point x="704" y="0" type="line"/>
      <point x="704" y="126" type="line"/>
      <point x="834" y="137" type="line"/>
      <point x="597" y="426" type="line"/>
      <point x="367" y="137" type="line"/>
      <point x="484" y="126" type="line"/>
      <point x="484" y="0" type="line"/>
      <point x="42" y="0" type="line"/>
    </contour>
  </outline>
</glyph>
<glyph name="y" format="1">
  <advance width="1192"/>
  <unicode hex="0079"/>
  <outline>
    <contour>
      <point x="1172" y="955" type="line"/>
      <point x="1060" y="939" type="line"/>
      <point x="634" y="-166" type="line" smooth="yes"/>
      <point x="574" y="-323"/>
      <point x="482" y="-437"/>
      <point x="309" y="-437" type="curve" smooth="yes"/>
      <point x="278" y="-437"/>
      <point x="219" y="-428"/>
      <point x="192" y="-421" type="curve"/>
      <point x="212" y="-266" type="line"/>
      <point x="204" y="-265"/>
      <point x="285" y="-271"/>
      <point x="300" y="-271" type="curve" smooth="yes"/>
      <point x="384" y="-271"/>
      <point x="430" y="-203"/>
      <point x="476" y="-92" type="curve" smooth="yes"/>
      <point x="523" y="22" type="line"/>
      <point x="140" y="939" type="line"/>
      <point x="24" y="955" type="line"/>
      <point x="24" y="1082" type="line"/>
      <point x="478" y="1082" type="line"/>
      <point x="478" y="955" type="line"/>
      <point x="347" y="935" type="line"/>
      <point x="558" y="394" type="line"/>
      <point x="609" y="253" type="line"/>
      <point x="615" y="253" type="line"/>
      <point x="865" y="935" type="line"/>
      <point x="727" y="955" type="line"/>
      <point x="727" y="1082" type="line"/>
      <point x="1172" y="1082" type="line"/>
    </contour>
  </outline>
</glyph>
<glyph name="z" format="1">
  <advance width="1032"/>
  <unicode hex="007A"/>
  <outline>
    <contour>
      <point x="326" y="150" type="line"/>
      <point x="787" y="150" type="line"/>
      <point x="813" y="333" type="line"/>
      <point x="960" y="333" type="line"/>
      <point x="960" y="0" type="line"/>
      <point x="88" y="0" type="line"/>
      <point x="88" y="138" type="line"/>
      <point x="677" y="930" type="line"/>
      <point x="274" y="930" type="line"/>
      <point x="249" y="748" type="line"/>
      <point x="101" y="748" type="line"/>
      <point x="101" y="1082" type="line"/>
      <point x="921" y="1082" type="line"/>
      <point x="921" y="948" type="line"/>
    </contour>
  </outline>
</glyph>
<glyph name="braceleft" format="1">
  <advance width="701"/>
  <unicode hex="007B"/>
  <outline>
    <contour>
      <point x="631" y="-364" type="line"/>
      <point x="371.0" y="-290.66666666666663"/>
      <point x="271.0" y="-125.66666666666666"/>
      <point x="271" y="101" type="curve" smooth="yes"/>
      <point x="271" y="306" type="line" smooth="yes"/>
      <point x="271.0" y="455.3333333333332"/>
      <point x="204.33333333333337" y="543.0"/>
      <point x="63" y="543" type="curve"/>
      <point x="63" y="690" type="line"/>
      <point x="204.33333333333331" y="690.0"/>
      <point x="271.0" y="775.3333333333333"/>
      <point x="271" y="926" type="curve" smooth="yes"/>
      <point x="271" y="1132" type="line" smooth="yes"/>
      <point x="271.0" y="1360.0"/>
      <point x="371.0" y="1523.6666666666665"/>
      <point x="631" y="1597" type="curve"/>
      <point x="671" y="1480" type="line"/>
      <point x="524.3333333333333" y="1433.3333333333335"/>
      <point x="468.0" y="1308.0"/>
      <point x="468" y="1132" type="curve" smooth="yes"/>
      <point x="468" y="926" type="line" smooth="yes"/>
      <point x="468.0" y="786.0"/>
      <point x="412.33333333333337" y="676.0"/>
      <point x="299" y="616" type="curve"/>
      <point x="412.3333333333334" y="554.6666666666667"/>
      <point x="468.0" y="443.3333333333332"/>
      <point x="468" y="306" type="curve" smooth="yes"/>
      <point x="468" y="101" type="line" smooth="yes"/>
      <point x="468.0" y="-75.0"/>
      <point x="524.3333333333333" y="-198.0"/>
      <point x="671" y="-246" type="curve"/>
    </contour>
  </outline>
</glyph>
<glyph name="bar" format="1">
  <advance width="451"/>
  <unicode hex="007C"/>
  <outline>
    <contour>
      <point x="307" y="-270" type="line"/>
      <point x="150" y="-270" type="line"/>
      <point x="150" y="1456" type="line"/>
      <point x="307" y="1456" type="line"/>
    </contour>
  </outline>
</glyph>
<glyph name="braceright" format="1">
  <advance width="701"/>
  <unicode hex="007D"/>
  <outline>
    <contour>
      <point x="27" y="-246" type="line"/>
      <point x="171.0" y="-198.0"/>
      <point x="229.0" y="-75.0"/>
      <point x="229" y="101" type="curve" smooth="yes"/>
      <point x="229" y="306" type="line" smooth="yes"/>
      <point x="229.0" y="448.6666666666667"/>
      <point x="287.6666666666667" y="558.6666666666667"/>
      <point x="413" y="616" type="curve"/>
      <point x="287.66666666666663" y="670.6666666666667"/>
      <point x="229.0" y="780.6666666666667"/>
      <point x="229" y="926" type="curve" smooth="yes"/>
      <point x="229" y="1132" type="line" smooth="yes"/>
      <point x="229.0" y="1308.0"/>
      <point x="171.0" y="1433.3333333333335"/>
      <point x="27" y="1480" type="curve"/>
      <point x="67" y="1597" type="line"/>
      <point x="325.66666666666663" y="1523.6666666666665"/>
      <point x="426.0" y="1360.0"/>
      <point x="426" y="1132" type="curve" smooth="yes"/>
      <point x="426" y="926" type="line" smooth="yes"/>
      <point x="426.0" y="775.3333333333333"/>
      <point x="492.33333333333326" y="690.0"/>
      <point x="635" y="690" type="curve"/>
      <point x="635" y="543" type="line"/>
      <point x="492.3333333333332" y="543.0"/>
      <point x="426.0" y="455.3333333333332"/>
      <point x="426" y="306" type="curve" smooth="yes"/>
      <point x="426" y="101" type="line" smooth="yes"/>
      <point x="426.0" y="-125.66666666666666"/>
      <point x="325.66666666666663" y="-290.66666666666663"/>
      <point x="67" y="-364" type="curve"/>
    </contour>
  </outline>
</glyph>
<glyph name="asciitilde" format="1">
  <advance width="1386"/>
  <unicode hex="007E"/>
  <outline>
    <contour>
      <point x="1257" y="740" type="line"/>
      <point x="1257.0" y="557.3333333333333"/>
      <point x="1125.3333333333335" y="401.0"/>
      <point x="952" y="401" type="curve" smooth="yes"/>
      <point x="833.3333333333333" y="401.0"/>
      <point x="744.3333333333333" y="442.33333333333337"/>
      <point x="631" y="541" type="curve" smooth="yes"/>
      <point x="551.0" y="605.0"/>
      <point x="489.33333333333337" y="637.0"/>
      <point x="424" y="637" type="curve" smooth="yes"/>
      <point x="334.66666666666663" y="637.0"/>
      <point x="262.0" y="556.0"/>
      <point x="262" y="456" type="curve"/>
      <point x="121" y="474" type="line"/>
      <point x="121.0" y="655.3333333333333"/>
      <point x="248.0" y="803.0"/>
      <point x="424" y="803" type="curve" smooth="yes"/>
      <point x="541.3333333333334" y="803.0"/>
      <point x="633.6666666666667" y="757.3333333333333"/>
      <point x="747" y="664" type="curve" smooth="yes"/>
      <point x="825.6666666666667" y="596.0"/>
      <point x="884.0" y="567.0"/>
      <point x="952" y="567" type="curve" smooth="yes"/>
      <point x="1040.0" y="567.0"/>
      <point x="1115.0" y="655.3333333333333"/>
      <point x="1115" y="758" type="curve"/>
    </contour>
  </outline>
</glyph>
<glyph name="exclamdown" format="1">
  <advance width="481"/>
  <unicode hex="00A1"/>
  <outline>
    <contour>
      <point x="339" y="-374" type="line"/>
      <point x="142" y="-374" type="line"/>
      <point x="142" y="604" type="line"/>
      <point x="339" y="604" type="line"/>
    </contour>
    <contour>
      <point x="339" y="876" type="line"/>
      <point x="142" y="876" type="line"/>
      <point x="142" y="1082" type="line"/>
      <point x="339" y="1082" type="line"/>
    </contour>
  </outline>
</glyph>
<glyph name="cent" format="1">
  <advance width="1118"/>
  <unicode hex="00A2"/>
  <outline>
    <contour>
      <point x="589" y="133" type="curve" smooth="yes"/>
      <point x="719.6666666666667" y="133.0"/>
      <point x="836.0" y="224.66666666666663"/>
      <point x="836" y="342" type="curve"/>
      <point x="1014" y="342" type="line"/>
      <point x="1016" y="336" type="line"/>
      <point x="1021.3333333333333" y="172.0"/>
      <point x="862.6666666666667" y="17.0"/>
      <point x="664" y="-15" type="curve"/>
      <point x="664" y="-245" type="line"/>
      <point x="467" y="-245" type="line"/>
      <point x="467" y="-8" type="line"/>
      <point x="229.6666666666668" y="42.66666666666665"/>
      <point x="104.0" y="253.33333333333331"/>
      <point x="104" y="520" type="curve" smooth="yes"/>
      <point x="104" y="562" type="line" smooth="yes"/>
      <point x="104.0" y="824.6666666666665"/>
      <point x="229.66666666666674" y="1035.6666666666665"/>
      <point x="467" y="1089" type="curve"/>
      <point x="467" y="1318" type="line"/>
      <point x="664" y="1318" type="line"/>
      <point x="664" y="1098" type="line"/>
      <point x="802.6666666666667" y="1082.0"/>
      <point x="916.6666666666667" y="1026.3333333333333"/>
      <point x="994" y="941" type="curve"/>
      <point x="1003" y="701" type="line"/>
      <point x="846" y="701" type="line"/>
      <point x="803" y="871" type="line"/>
      <point x="756.3333333333333" y="916.3333333333333"/>
      <point x="681.0" y="947.0"/>
      <point x="589" y="947" type="curve" smooth="yes"/>
      <point x="382.33333333333337" y="947.0"/>
      <point x="301.0" y="778.0"/>
      <point x="301" y="562" type="curve" smooth="yes"/>
      <point x="301" y="520" type="line" smooth="yes"/>
      <point x="301.0" y="298.6666666666667"/>
      <point x="381.0" y="133.0"/>
    </contour>
  </outline>
</glyph>
<glyph name="sterling" format="1">
  <advance width="1179"/>
  <unicode hex="00A3"/>
  <outline>
    <contour>
      <point x="427" y="615" type="line"/>
      <point x="433" y="466" type="line" smooth="yes"/>
      <point x="433.0" y="346.0"/>
      <point x="411.666666667" y="232.666666667"/>
      <point x="373" y="154" type="curve"/>
      <point x="924" y="154" type="line"/>
      <point x="940" y="321" type="line"/>
      <point x="1107" y="321" type="line"/>
      <point x="1107" y="0" type="line"/>
      <point x="132" y="0" type="line"/>
      <point x="132" y="154" type="line"/>
      <point x="142" y="154" type="line"/>
      <point x="204.666666667" y="171.333333333"/>
      <point x="237.0" y="328.666666667"/>
      <point x="237" y="466" type="curve" smooth="yes"/>
      <point x="231" y="615" type="line"/>
      <point x="68" y="615" type="line"/>
      <point x="68" y="770" type="line"/>
      <point x="225" y="770" type="line"/>
      <point x="215" y="1040" type="line" smooth="yes"/>
      <point x="215.0" y="1312.0"/>
      <point x="376.333333333" y="1477.0"/>
      <point x="627" y="1477" type="curve" smooth="yes"/>
      <point x="893.666666667" y="1477.0"/>
      <point x="1048.33333333" y="1325.33333333"/>
      <point x="1043" y="1096" type="curve"/>
      <point x="1041" y="1090" type="line"/>
      <point x="852" y="1090" type="line"/>
      <point x="852.0" y="1247.33333333"/>
      <point x="757.666666667" y="1322.0"/>
      <point x="627" y="1322" type="curve" smooth="yes"/>
      <point x="495.0" y="1322.0"/>
      <point x="412.0" y="1217.33333333"/>
      <point x="412" y="1040" type="curve" smooth="yes"/>
      <point x="422" y="770" type="line"/>
      <point x="841" y="770" type="line"/>
      <point x="841" y="615" type="line"/>
    </contour>
  </outline>
</glyph>
<glyph name="currency" format="1">
  <advance width="1461"/>
  <unicode hex="00A4"/>
  <outline>
    <contour>
      <point x="1087" y="108" type="line"/>
      <point x="984.3333333333335" y="25.333333333333343"/>
      <point x="858.6666666666667" y="-20.0"/>
      <point x="724" y="-20" type="curve" smooth="yes"/>
      <point x="589.3333333333333" y="-20.0"/>
      <point x="464.6666666666667" y="24.3333333333333"/>
      <point x="362" y="107" type="curve"/>
      <point x="232" y="-26" type="line"/>
      <point x="94" y="112" type="line"/>
      <point x="232" y="252" type="line"/>
      <point x="165.33333333333337" y="353.33333333333337"/>
      <point x="129.0" y="476.0"/>
      <point x="129" y="608" type="curve" smooth="yes"/>
      <point x="129.0" y="744.0"/>
      <point x="168.0" y="872.0"/>
      <point x="240" y="976" type="curve"/>
      <point x="94" y="1125" type="line"/>
      <point x="232" y="1264" type="line"/>
      <point x="375" y="1118" type="line"/>
      <point x="473.6666666666666" y="1191.3333333333335"/>
      <point x="596.0" y="1234.0"/>
      <point x="724" y="1234" type="curve" smooth="yes"/>
      <point x="853.3333333333333" y="1234.0"/>
      <point x="974.0" y="1190.6666666666665"/>
      <point x="1074" y="1116" type="curve"/>
      <point x="1220" y="1265" type="line"/>
      <point x="1360" y="1125" type="line"/>
      <point x="1210" y="972" type="line"/>
      <point x="1279.3333333333335" y="868.0"/>
      <point x="1319.0" y="742.6666666666667"/>
      <point x="1319" y="608" type="curve" smooth="yes"/>
      <point x="1319.0" y="477.33333333333326"/>
      <point x="1282.0" y="356.33333333333337"/>
      <point x="1218" y="255" type="curve"/>
      <point x="1360" y="112" type="line"/>
      <point x="1220" y="-27" type="line"/>
    </contour>
    <contour>
      <point x="311" y="608" type="curve" smooth="yes"/>
      <point x="311.0" y="357.33333333333337"/>
      <point x="494.66666666666674" y="155.0"/>
      <point x="724" y="155" type="curve" smooth="yes"/>
      <point x="950.6666666666666" y="155.0"/>
      <point x="1135.0" y="357.33333333333326"/>
      <point x="1135" y="608" type="curve" smooth="yes"/>
      <point x="1135.0" y="856.0"/>
      <point x="950.6666666666667" y="1058.0"/>
      <point x="724" y="1058" type="curve" smooth="yes"/>
      <point x="494.66666666666674" y="1058.0"/>
      <point x="311.0" y="856.0"/>
    </contour>
  </outline>
</glyph>
<glyph name="yen" format="1">
  <advance width="1386"/>
  <unicode hex="00A5"/>
  <outline>
    <contour>
      <point x="1335.0" y="1329.0" type="line"/>
      <point x="1196.0" y="1309.0" type="line"/>
      <point x="863.0" y="738.0" type="line"/>
      <point x="1175.0" y="738.0" type="line"/>
      <point x="1175.0" y="615.0" type="line"/>
      <point x="792.0" y="615.0" type="line"/>
      <point x="792.0" y="448.0" type="line"/>
      <point x="1175.0" y="448.0" type="line"/>
      <point x="1175.0" y="326.0" type="line"/>
      <point x="792.0" y="326.0" type="line"/>
      <point x="792.0" y="154.0" type="line"/>
      <point x="955.0" y="126.0" type="line"/>
      <point x="955.0" y="0.0" type="line"/>
      <point x="432.0" y="0.0" type="line"/>
      <point x="432.0" y="126.0" type="line"/>
      <point x="595.0" y="154.0" type="line"/>
      <point x="595.0" y="326.0" type="line"/>
      <point x="220.0" y="326.0" type="line"/>
      <point x="220.0" y="448.0" type="line"/>
      <point x="595.0" y="448.0" type="line"/>
      <point x="595.0" y="615.0" type="line"/>
      <point x="220.0" y="615.0" type="line"/>
      <point x="220.0" y="738.0" type="line"/>
      <point x="531.0" y="738.0" type="line"/>
      <point x="198.0" y="1308.0" type="line"/>
      <point x="59.0" y="1329.0" type="line"/>
      <point x="59.0" y="1456.0" type="line"/>
      <point x="501.0" y="1456.0" type="line"/>
      <point x="501.0" y="1329.0" type="line"/>
      <point x="414.0" y="1314.0" type="line"/>
      <point x="675.0" y="834.0" type="line"/>
      <point x="697.0" y="793.0" type="line"/>
      <point x="701.0" y="800.0" type="line"/>
      <point x="719.0" y="834.0" type="line"/>
      <point x="980.0" y="1314.0" type="line"/>
      <point x="894.0" y="1329.0" type="line"/>
      <point x="894.0" y="1456.0" type="line"/>
      <point x="1335.0" y="1456.0" type="line"/>
    </contour>
  </outline>
</glyph>
<glyph name="section" format="1">
  <advance width="1233"/>
  <unicode hex="00A7"/>
  <outline>
    <contour>
      <point x="1144" y="431" type="curve" smooth="yes"/>
      <point x="1144.0" y="305.66666666666663"/>
      <point x="1077.3333333333333" y="210.33333333333331"/>
      <point x="960" y="157" type="curve"/>
      <point x="1053.3333333333333" y="89.0"/>
      <point x="1100.0" y="2.666666666666657"/>
      <point x="1100" y="-128" type="curve" smooth="yes"/>
      <point x="1100.0" y="-357.3333333333332"/>
      <point x="909.0000000000001" y="-495.0"/>
      <point x="609" y="-495" type="curve" smooth="yes"/>
      <point x="313.0" y="-495.0"/>
      <point x="84.33333333333334" y="-363.3333333333333"/>
      <point x="91" y="-70" type="curve"/>
      <point x="93" y="-64" type="line"/>
      <point x="281" y="-62" type="line"/>
      <point x="281.0" y="-252.66666666666663"/>
      <point x="429.0" y="-340.0"/>
      <point x="609" y="-340" type="curve" smooth="yes"/>
      <point x="790.3333333333333" y="-340.0"/>
      <point x="903.0" y="-251.33333333333331"/>
      <point x="903" y="-130" type="curve" smooth="yes"/>
      <point x="903.0" y="-8.666666666666686"/>
      <point x="827.0" y="41.0"/>
      <point x="555" y="125" type="curve" smooth="yes"/>
      <point x="236.33333333333337" y="209.0"/>
      <point x="90.0" y="315.0"/>
      <point x="90" y="551" type="curve" smooth="yes"/>
      <point x="90.0" y="672.3333333333333"/>
      <point x="154.0" y="769.3333333333333"/>
      <point x="270" y="824" type="curve"/>
      <point x="179.33333333333337" y="890.6666666666667"/>
      <point x="135.0" y="980.6666666666665"/>
      <point x="135" y="1110" type="curve" smooth="yes"/>
      <point x="135.0" y="1331.3333333333335"/>
      <point x="327.0" y="1477.0"/>
      <point x="627" y="1477" type="curve" smooth="yes"/>
      <point x="936.3333333333333" y="1477.0"/>
      <point x="1121.3333333333335" y="1321.3333333333335"/>
      <point x="1116" y="1052" type="curve"/>
      <point x="1113" y="1046" type="line"/>
      <point x="925" y="1046" type="line"/>
      <point x="925.0" y="1203.3333333333335"/>
      <point x="812.3333333333333" y="1322.0"/>
      <point x="627" y="1322" type="curve" smooth="yes"/>
      <point x="432.33333333333326" y="1322.0"/>
      <point x="332.0" y="1233.3333333333335"/>
      <point x="332" y="1112" type="curve" smooth="yes"/>
      <point x="332.0" y="980.0"/>
      <point x="395.66666666666674" y="933.3333333333333"/>
      <point x="677" y="856" type="curve" smooth="yes"/>
      <point x="1002.333333333333" y="764.0"/>
      <point x="1144.0" y="664.3333333333334"/>
    </contour>
    <contour>
      <point x="599" y="689" type="curve"/>
      <point x="534.9999999999999" y="705.0"/>
      <point x="479.99999999999994" y="722.3333333333333"/>
      <point x="432" y="741" type="curve"/>
      <point x="334.66666666666663" y="715.6666666666667"/>
      <point x="287.0" y="645.0"/>
      <point x="287" y="553" type="curve" smooth="yes"/>
      <point x="287.0" y="418.33333333333337"/>
      <point x="351.66666666666674" y="369.66666666666663"/>
      <point x="633" y="291" type="curve" smooth="yes"/>
      <point x="702.3333333333333" y="269.66666666666663"/>
      <point x="749.6666666666667" y="256.0"/>
      <point x="795" y="240" type="curve"/>
      <point x="892.3333333333333" y="266.6666666666667"/>
      <point x="948.0" y="337.33333333333337"/>
      <point x="948" y="428" type="curve" smooth="yes"/>
      <point x="948.0" y="549.3333333333334"/>
      <point x="868.3333333333333" y="605.0"/>
    </contour>
  </outline>
</glyph>
<glyph name="dieresis" format="1">
  <advance width="992"/>
  <unicode hex="00A8"/>
  <outline>
    <contour>
      <point x="840" y="1256" type="line"/>
      <point x="622" y="1256" type="line"/>
      <point x="622" y="1456" type="line"/>
      <point x="840" y="1456" type="line"/>
    </contour>
    <contour>
      <point x="370" y="1256" type="line"/>
      <point x="152" y="1256" type="line"/>
      <point x="152" y="1456" type="line"/>
      <point x="370" y="1456" type="line"/>
    </contour>
  </outline>
</glyph>
<glyph name="ordfeminine" format="1">
  <advance width="894"/>
  <unicode hex="00AA"/>
  <outline>
    <contour>
      <point x="598" y="706" type="line"/>
      <point x="587.3333333333333" y="734.0"/>
      <point x="581.0" y="766.3333333333333"/>
      <point x="577" y="801" type="curve"/>
      <point x="533.0" y="738.3333333333333"/>
      <point x="457.6666666666667" y="692.0"/>
      <point x="355" y="692" type="curve" smooth="yes"/>
      <point x="196.33333333333337" y="692.0"/>
      <point x="106.0" y="778.6666666666667"/>
      <point x="106" y="920" type="curve" smooth="yes"/>
      <point x="106.0" y="1066.6666666666667"/>
      <point x="220.0" y="1150.0"/>
      <point x="436" y="1150" type="curve" smooth="yes"/>
      <point x="574" y="1150" type="line"/>
      <point x="574" y="1202" type="line" smooth="yes"/>
      <point x="574.0" y="1286.0"/>
      <point x="534.3333333333334" y="1333.0"/>
      <point x="457" y="1333" type="curve" smooth="yes"/>
      <point x="367.66666666666663" y="1333.0"/>
      <point x="317.0" y="1295.3333333333335"/>
      <point x="317" y="1230" type="curve"/>
      <point x="154" y="1243" type="line"/>
      <point x="153" y="1249" type="line"/>
      <point x="145.0" y="1379.6666666666665"/>
      <point x="270.33333333333337" y="1477.0"/>
      <point x="457" y="1477" type="curve" smooth="yes"/>
      <point x="634.3333333333333" y="1477.0"/>
      <point x="747.0" y="1379.6666666666665"/>
      <point x="747" y="1201" type="curve" smooth="yes"/>
      <point x="747" y="887" type="line" smooth="yes"/>
      <point x="747.0" y="819.0"/>
      <point x="754.3333333333333" y="762.0"/>
      <point x="773" y="706" type="curve"/>
    </contour>
    <contour>
      <point x="397" y="831" type="curve" smooth="yes"/>
      <point x="465.0" y="831.0"/>
      <point x="550.0" y="878.0"/>
      <point x="574" y="926" type="curve"/>
      <point x="574" y="1036" type="line"/>
      <point x="437" y="1036" type="line" smooth="yes"/>
      <point x="337.0" y="1036.0"/>
      <point x="278.0" y="985.3333333333333"/>
      <point x="278" y="924" type="curve" smooth="yes"/>
      <point x="278.0" y="864.0"/>
      <point x="317.0" y="831.0"/>
    </contour>
  </outline>
</glyph>
<glyph name="twosuperior" format="1">
  <advance width="827"/>
  <unicode hex="00B2"/>
  <outline>
    <contour>
      <point x="714" y="667" type="line"/>
      <point x="122" y="667" type="line"/>
      <point x="122" y="797" type="line"/>
      <point x="424" y="1059" type="line" smooth="yes"/>
      <point x="516.0" y="1137.6666666666665"/>
      <point x="536.0" y="1178.6666666666665"/>
      <point x="536" y="1236" type="curve" smooth="yes"/>
      <point x="536.0" y="1302.6666666666665"/>
      <point x="499.3333333333333" y="1348.0"/>
      <point x="422" y="1348" type="curve" smooth="yes"/>
      <point x="332.66666666666663" y="1348.0"/>
      <point x="282.0" y="1300.6666666666665"/>
      <point x="282" y="1234" type="curve"/>
      <point x="121" y="1234" type="line"/>
      <point x="119" y="1240" type="line"/>
      <point x="111.0" y="1372.0"/>
      <point x="234.0" y="1479.0"/>
      <point x="422" y="1479" type="curve" smooth="yes"/>
      <point x="602.0" y="1479.0"/>
      <point x="709.0" y="1389.6666666666665"/>
      <point x="709" y="1235" type="curve" smooth="yes"/>
      <point x="709.0" y="1128.3333333333335"/>
      <point x="658.6666666666667" y="1078.0"/>
      <point x="504" y="938" type="curve" smooth="yes"/>
      <point x="351" y="803" type="line"/>
      <point x="353" y="797" type="line"/>
      <point x="714" y="797" type="line"/>
    </contour>
  </outline>
</glyph>
<glyph name="threesuperior" format="1">
  <advance width="845"/>
  <unicode hex="00B3"/>
  <outline>
    <contour>
      <point x="424" y="1137" type="line" smooth="yes"/>
      <point x="513.3333333333335" y="1137.0"/>
      <point x="555.0" y="1176.6666666666665"/>
      <point x="555" y="1246" type="curve" smooth="yes"/>
      <point x="555.0" y="1304.6666666666665"/>
      <point x="506.0" y="1347.0"/>
      <point x="414" y="1347" type="curve" smooth="yes"/>
      <point x="339.33333333333337" y="1347.0"/>
      <point x="288.0" y="1312.3333333333335"/>
      <point x="288" y="1259" type="curve"/>
      <point x="126" y="1259" type="line"/>
      <point x="124" y="1265" type="line"/>
      <point x="116.0" y="1390.3333333333335"/>
      <point x="244.66666666666674" y="1478.0"/>
      <point x="414" y="1478" type="curve" smooth="yes"/>
      <point x="607.3333333333333" y="1478.0"/>
      <point x="727.0" y="1395.6666666666665"/>
      <point x="727" y="1249" type="curve" smooth="yes"/>
      <point x="727.0" y="1175.6666666666665"/>
      <point x="676.6666666666667" y="1111.6666666666665"/>
      <point x="594" y="1077" type="curve"/>
      <point x="688.6666666666666" y="1045.0"/>
      <point x="740.0" y="980.6666666666669"/>
      <point x="740" y="890" type="curve" smooth="yes"/>
      <point x="740.0" y="742.0"/>
      <point x="608.6666666666666" y="655.0"/>
      <point x="414" y="655" type="curve" smooth="yes"/>
      <point x="244.66666666666674" y="655.0"/>
      <point x="103.0" y="734.0"/>
      <point x="111" y="882" type="curve"/>
      <point x="112" y="888" type="line"/>
      <point x="275" y="888" type="line"/>
      <point x="275.0" y="826.6666666666667"/>
      <point x="328.66666666666663" y="785.0"/>
      <point x="414" y="785" type="curve" smooth="yes"/>
      <point x="509.9999999999999" y="785.0"/>
      <point x="569.0" y="828.0"/>
      <point x="569" y="892" type="curve" smooth="yes"/>
      <point x="569.0" y="976.0"/>
      <point x="521.3333333333334" y="1011.0"/>
      <point x="424" y="1011" type="curve" smooth="yes"/>
      <point x="291" y="1011" type="line"/>
      <point x="291" y="1137" type="line"/>
    </contour>
  </outline>
</glyph>
<glyph name="acute" format="1">
  <advance width="599"/>
  <unicode hex="00B4"/>
  <outline>
    <contour>
      <point x="279.0" y="1478.0" type="line"/>
      <point x="509.0" y="1478.0" type="line"/>
      <point x="511.0" y="1472.0" type="line"/>
      <point x="242.0" y="1212.0" type="line"/>
      <point x="104.0" y="1212.0" type="line"/>
      <point x="95.0" y="1212.0" type="line"/>
    </contour>
  </outline>
</glyph>
<glyph name="onesuperior" format="1">
  <advance width="547"/>
  <unicode hex="00B9"/>
  <outline>
    <contour>
      <point x="396" y="665" type="line"/>
      <point x="222" y="665" type="line"/>
      <point x="222" y="1320" type="line"/>
      <point x="95" y="1320" type="line"/>
      <point x="95" y="1454" type="line"/>
      <point x="396" y="1477" type="line"/>
    </contour>
  </outline>
</glyph>
<glyph name="ordmasculine" format="1">
  <advance width="941"/>
  <unicode hex="00BA"/>
  <outline>
    <contour>
      <point x="121" y="1142" type="line" smooth="yes"/>
      <point x="121.0" y="1339.3333333333335"/>
      <point x="255.33333333333337" y="1477.0"/>
      <point x="466" y="1477" type="curve" smooth="yes"/>
      <point x="676.6666666666667" y="1477.0"/>
      <point x="812.0" y="1339.3333333333335"/>
      <point x="812" y="1142" type="curve" smooth="yes"/>
      <point x="812" y="1025" type="line" smooth="yes"/>
      <point x="812.0" y="826.3333333333333"/>
      <point x="677.3333333333333" y="691.0"/>
      <point x="468" y="691" type="curve" smooth="yes"/>
      <point x="256.0" y="691.0"/>
      <point x="121.0" y="826.3333333333333"/>
      <point x="121" y="1025" type="curve" smooth="yes"/>
    </contour>
    <contour>
      <point x="293" y="1025" type="line" smooth="yes"/>
      <point x="293.0" y="907.6666666666667"/>
      <point x="352.0" y="832.0"/>
      <point x="468" y="832" type="curve" smooth="yes"/>
      <point x="578.6666666666667" y="832.0"/>
      <point x="639.0" y="909.0"/>
      <point x="639" y="1025" type="curve" smooth="yes"/>
      <point x="639" y="1142" type="line" smooth="yes"/>
      <point x="639.0" y="1254.0"/>
      <point x="578.0" y="1333.0"/>
      <point x="466" y="1333" type="curve" smooth="yes"/>
      <point x="354.0" y="1333.0"/>
      <point x="293.0" y="1254.0"/>
      <point x="293" y="1142" type="curve" smooth="yes"/>
    </contour>
  </outline>
</glyph>
<glyph name="Oslash" format="1">
  <advance width="1404"/>
  <unicode hex="00D8"/>
  <outline>
    <contour>
      <point x="1368" y="717" type="line" smooth="yes"/>
      <point x="1368.0" y="293.0"/>
      <point x="1099.66666667" y="-21.0"/>
      <point x="713" y="-21" type="curve" smooth="yes"/>
      <point x="593.0" y="-21.0"/>
      <point x="485.0" y="10.3333333333"/>
      <point x="393" y="69" type="curve"/>
      <point x="296" y="-94" type="line"/>
      <point x="147" y="-94" type="line"/>
      <point x="291" y="150" type="line"/>
      <point x="155.0" y="284.666666667"/>
      <point x="79.0" y="486.333333333"/>
      <point x="79" y="717" type="curve" smooth="yes"/>
      <point x="79" y="738" type="line" smooth="yes"/>
      <point x="79.0" y="1160.66666667"/>
      <point x="337.0" y="1477.0"/>
      <point x="713" y="1477" type="curve" smooth="yes"/>
      <point x="829.0" y="1477.0"/>
      <point x="935.333333333" y="1447.33333333"/>
      <point x="1030" y="1394" type="curve"/>
      <point x="1103" y="1517" type="line"/>
      <point x="1252" y="1517" type="line"/>
      <point x="1134" y="1318" type="line"/>
      <point x="1282.0" y="1182.0"/>
      <point x="1368.0" y="974.0"/>
      <point x="1368" y="738" type="curve" smooth="yes"/>
    </contour>
    <contour>
      <point x="1171" y="740" type="line" smooth="yes"/>
      <point x="1171.0" y="912.0"/>
      <point x="1125.33333333" y="1059.66666667"/>
      <point x="1044" y="1157" type="curve"/>
      <point x="1038" y="1158" type="line"/>
      <point x="478" y="213" type="line"/>
      <point x="542.0" y="165.0"/>
      <point x="621.0" y="140.0"/>
      <point x="713" y="140" type="curve" smooth="yes"/>
      <point x="1003.66666667" y="140.0"/>
      <point x="1171.0" y="374.333333333"/>
      <point x="1171" y="717" type="curve" smooth="yes"/>
    </contour>
    <contour>
      <point x="276" y="717" type="line" smooth="yes"/>
      <point x="276.0" y="553.0"/>
      <point x="313.333333333" y="410.666666667"/>
      <point x="384" y="316" type="curve"/>
      <point x="390" y="316" type="line"/>
      <point x="945" y="1251" type="line"/>
      <point x="878.333333333" y="1292.33333333"/>
      <point x="801.0" y="1315.0"/>
      <point x="713" y="1315" type="curve" smooth="yes"/>
      <point x="438.333333333" y="1315.0"/>
      <point x="276.0" y="1077.33333333"/>
      <point x="276" y="740" type="curve" smooth="yes"/>
    </contour>
  </outline>
</glyph>
<glyph name="eth" format="1">
  <advance width="1191"/>
  <unicode hex="00F0"/>
  <outline>
    <contour>
      <point x="859" y="1286" type="line"/>
      <point x="997.666666667" y="1124.66666667"/>
      <point x="1078.0" y="899.666666667"/>
      <point x="1078" y="633" type="curve" smooth="yes"/>
      <point x="1078" y="535" type="line" smooth="yes"/>
      <point x="1078.0" y="208.333333333"/>
      <point x="861.666666667" y="-21.0"/>
      <point x="575" y="-21" type="curve" smooth="yes"/>
      <point x="284.333333333" y="-21.0"/>
      <point x="78.0" y="190.0"/>
      <point x="78" y="466" type="curve" smooth="yes"/>
      <point x="78.0" y="770.0"/>
      <point x="283.0" y="978.0"/>
      <point x="567" y="978" type="curve" smooth="yes"/>
      <point x="677.666666667" y="978.0"/>
      <point x="781.666666667" y="931.333333333"/>
      <point x="851" y="862" type="curve"/>
      <point x="855" y="867" type="line"/>
      <point x="828.333333333" y="997.666666667"/>
      <point x="770.666666667" y="1107.33333333"/>
      <point x="692" y="1190" type="curve"/>
      <point x="420" y="1035" type="line"/>
      <point x="343" y="1137" type="line"/>
      <point x="588" y="1277" type="line"/>
      <point x="540.0" y="1307.66666667"/>
      <point x="489.0" y="1331.66666667"/>
      <point x="433" y="1353" type="curve"/>
      <point x="493" y="1517" type="line"/>
      <point x="593.0" y="1487.66666667"/>
      <point x="684.0" y="1440.66666667"/>
      <point x="764" y="1378" type="curve"/>
      <point x="997" y="1511" type="line"/>
      <point x="1074" y="1409" type="line"/>
    </contour>
    <contour>
      <point x="880" y="685" type="curve"/>
      <point x="833.333333333" y="762.333333333"/>
      <point x="723.0" y="823.0"/>
      <point x="567" y="823" type="curve" smooth="yes"/>
      <point x="392.333333333" y="823.0"/>
      <point x="275.0" y="664.666666667"/>
      <point x="275" y="466" type="curve" smooth="yes"/>
      <point x="275.0" y="290.0"/>
      <point x="392.333333333" y="133.0"/>
      <point x="579" y="133" type="curve" smooth="yes"/>
      <point x="756.333333333" y="133.0"/>
      <point x="881.0" y="303.0"/>
      <point x="881" y="535" type="curve" smooth="yes"/>
      <point x="881" y="635" type="line" smooth="yes"/>
      <point x="881.0" y="645.666666667"/>
      <point x="880.0" y="674.333333333"/>
    </contour>
  </outline>
</glyph>
<glyph name="divide" format="1">
  <advance width="1148"/>
  <unicode hex="00F7"/>
  <outline>
    <contour>
      <point x="1072" y="597" type="line"/>
      <point x="74" y="597" type="line"/>
      <point x="74" y="785" type="line"/>
      <point x="1072" y="785" type="line"/>
    </contour>
    <contour>
      <point x="673" y="999" type="line"/>
      <point x="475" y="999" type="line"/>
      <point x="475" y="1202" type="line"/>
      <point x="673" y="1202" type="line"/>
    </contour>
    <contour>
      <point x="673" y="180" type="line"/>
      <point x="475" y="180" type="line"/>
      <point x="475" y="383" type="line"/>
      <point x="673" y="383" type="line"/>
    </contour>
  </outline>
</glyph>
<glyph name="thorn" format="1">
  <advance width="1273"/>
  <unicode hex="00FE"/>
  <outline>
    <contour>
      <point x="25" y="1433" type="line"/>
      <point x="25" y="1560" type="line"/>
      <point x="385" y="1560" type="line"/>
      <point x="385" y="962" type="line"/>
      <point x="455.666666667" y="1052.66666667"/>
      <point x="556.333333333" y="1102.0"/>
      <point x="687" y="1102" type="curve" smooth="yes"/>
      <point x="953.666666667" y="1102.0"/>
      <point x="1110.0" y="870.333333333"/>
      <point x="1110" y="521" type="curve" smooth="yes"/>
      <point x="1110" y="500" type="line" smooth="yes"/>
      <point x="1110.0" y="188.0"/>
      <point x="952.666666667" y="-21.0"/>
      <point x="690" y="-21" type="curve" smooth="yes"/>
      <point x="556.666666667" y="-21.0"/>
      <point x="455.666666667" y="23.6666666667"/>
      <point x="385" y="113" type="curve"/>
      <point x="385" y="-261" type="line"/>
      <point x="548" y="-289" type="line"/>
      <point x="548" y="-416" type="line"/>
      <point x="25" y="-416" type="line"/>
      <point x="25" y="-289" type="line"/>
      <point x="188" y="-261" type="line"/>
      <point x="188" y="1405" type="line"/>
    </contour>
    <contour>
      <point x="913" y="521" type="line" smooth="yes"/>
      <point x="913.0" y="767.666666667"/>
      <point x="816.333333333" y="942.0"/>
      <point x="627" y="942" type="curve" smooth="yes"/>
      <point x="513.666666667" y="942.0"/>
      <point x="434.333333333" y="887.333333333"/>
      <point x="385" y="798" type="curve"/>
      <point x="385" y="275" type="line"/>
      <point x="434.333333333" y="185.666666667"/>
      <point x="513.0" y="133.0"/>
      <point x="629" y="133" type="curve" smooth="yes"/>
      <point x="815.666666667" y="133.0"/>
      <point x="913.0" y="282.666666667"/>
      <point x="913" y="500" type="curve" smooth="yes"/>
    </contour>
  </outline>
</glyph>
<glyph name="Dcroat" format="1">
  <advance width="1449"/>
  <unicode hex="0110"/>
  <outline>
    <contour>
      <point x="711" y="1456" type="line" smooth="yes"/>
      <point x="1091.0" y="1456.0"/>
      <point x="1343.0" y="1197.6666666666665"/>
      <point x="1343" y="827" type="curve" smooth="yes"/>
      <point x="1343" y="628" type="line" smooth="yes"/>
      <point x="1343.0" y="256.0"/>
      <point x="1091.0" y="0.0"/>
      <point x="711" y="0" type="curve" smooth="yes"/>
      <point x="101" y="0" type="line"/>
      <point x="101" y="126" type="line"/>
      <point x="264" y="154" type="line"/>
      <point x="264" y="663" type="line"/>
      <point x="66" y="663" type="line"/>
      <point x="66" y="818" type="line"/>
      <point x="264" y="818" type="line"/>
      <point x="264" y="1301" type="line"/>
      <point x="101" y="1329" type="line"/>
      <point x="101" y="1456" type="line"/>
    </contour>
    <contour>
      <point x="707" y="663" type="line"/>
      <point x="461" y="663" type="line"/>
      <point x="461" y="154" type="line"/>
      <point x="711" y="154" type="line" smooth="yes"/>
      <point x="980.3333333333333" y="154.0"/>
      <point x="1146.0" y="350.6666666666668"/>
      <point x="1146" y="628" type="curve" smooth="yes"/>
      <point x="1146" y="829" type="line" smooth="yes"/>
      <point x="1146.0" y="1103.6666666666665"/>
      <point x="980.3333333333334" y="1301.0"/>
      <point x="711" y="1301" type="curve" smooth="yes"/>
      <point x="461" y="1301" type="line"/>
      <point x="461" y="818" type="line"/>
      <point x="707" y="818" type="line"/>
    </contour>
  </outline>
</glyph>
<glyph name="Hbar" format="1">
  <advance width="1527"/>
  <unicode hex="0126"/>
  <outline>
    <contour>
      <point x="1472" y="1456" type="line"/>
      <point x="1472" y="1329" type="line"/>
      <point x="1309" y="1301" type="line"/>
      <point x="1309" y="1100" type="line"/>
      <point x="1440" y="1100" type="line"/>
      <point x="1440" y="955" type="line"/>
      <point x="1309" y="955" type="line"/>
      <point x="1309" y="154" type="line"/>
      <point x="1472" y="126" type="line"/>
      <point x="1472" y="0" type="line"/>
      <point x="949" y="0" type="line"/>
      <point x="949" y="126" type="line"/>
      <point x="1112" y="154" type="line"/>
      <point x="1112" y="643" type="line"/>
      <point x="406" y="643" type="line"/>
      <point x="406" y="154" type="line"/>
      <point x="569" y="126" type="line"/>
      <point x="569" y="0" type="line"/>
      <point x="46" y="0" type="line"/>
      <point x="46" y="126" type="line"/>
      <point x="209" y="154" type="line"/>
      <point x="209" y="955" type="line"/>
      <point x="48" y="955" type="line"/>
      <point x="48" y="1100" type="line"/>
      <point x="209" y="1100" type="line"/>
      <point x="209" y="1301" type="line"/>
      <point x="46" y="1329" type="line"/>
      <point x="46" y="1456" type="line"/>
      <point x="569" y="1456" type="line"/>
      <point x="569" y="1329" type="line"/>
      <point x="406" y="1301" type="line"/>
      <point x="406" y="1100" type="line"/>
      <point x="1112" y="1100" type="line"/>
      <point x="1112" y="1301" type="line"/>
      <point x="949" y="1329" type="line"/>
      <point x="949" y="1456" type="line"/>
      <point x="1112" y="1456" type="line"/>
      <point x="1309" y="1456" type="line"/>
    </contour>
    <contour>
      <point x="406" y="798" type="line"/>
      <point x="1112" y="798" type="line"/>
      <point x="1112" y="955" type="line"/>
      <point x="406" y="955" type="line"/>
    </contour>
  </outline>
</glyph>
<glyph name="idotless" format="1">
  <advance width="672"/>
  <unicode hex="0131"/>
  <outline>
    <contour>
      <point x="90" y="955" type="line"/>
      <point x="90" y="1082" type="line"/>
      <point x="450" y="1082" type="line"/>
      <point x="450" y="154" type="line"/>
      <point x="613" y="126" type="line"/>
      <point x="613" y="0" type="line"/>
      <point x="90" y="0" type="line"/>
      <point x="90" y="126" type="line"/>
      <point x="253" y="154" type="line"/>
      <point x="253" y="927" type="line"/>
    </contour>
  </outline>
</glyph>
<glyph name="Lslash" format="1">
  <advance width="1199"/>
  <unicode hex="0141"/>
  <outline>
    <contour>
      <point x="594" y="1329" type="line"/>
      <point x="431" y="1301" type="line"/>
      <point x="431" y="852" type="line"/>
      <point x="669" y="928" type="line"/>
      <point x="669" y="763" type="line"/>
      <point x="431" y="687" type="line"/>
      <point x="431" y="154" type="line"/>
      <point x="937" y="154" type="line"/>
      <point x="952" y="321" type="line"/>
      <point x="1120" y="321" type="line"/>
      <point x="1120" y="0" type="line"/>
      <point x="71" y="0" type="line"/>
      <point x="71" y="126" type="line"/>
      <point x="234" y="154" type="line"/>
      <point x="234" y="625" type="line"/>
      <point x="80" y="576" type="line"/>
      <point x="80" y="741" type="line"/>
      <point x="234" y="790" type="line"/>
      <point x="234" y="1301" type="line"/>
      <point x="71" y="1329" type="line"/>
      <point x="71" y="1456" type="line"/>
      <point x="594" y="1456" type="line"/>
    </contour>
  </outline>
</glyph>
<glyph name="Eng" format="1">
  <advance width="1559"/>
  <unicode hex="014A"/>
  <outline>
    <contour>
      <point x="70" y="1329" type="line"/>
      <point x="70" y="1456" type="line"/>
      <point x="430" y="1456" type="line"/>
      <point x="1130" y="344" type="line"/>
      <point x="1136" y="346" type="line"/>
      <point x="1136" y="1301" type="line"/>
      <point x="973" y="1329" type="line"/>
      <point x="973" y="1456" type="line"/>
      <point x="1496" y="1456" type="line"/>
      <point x="1496" y="1329" type="line"/>
      <point x="1333" y="1301" type="line"/>
      <point x="1333" y="-89" type="line" smooth="yes"/>
      <point x="1333.0" y="-311.666666667"/>
      <point x="1212.33333333" y="-437.0"/>
      <point x="1007" y="-437" type="curve" smooth="yes"/>
      <point x="965.666666667" y="-437.0"/>
      <point x="933.666666667" y="-431.0"/>
      <point x="895" y="-419" type="curve"/>
      <point x="909" y="-269" type="line"/>
      <point x="926.333333333" y="-275.666666667"/>
      <point x="984.333333333" y="-282.0"/>
      <point x="1007" y="-282" type="curve" smooth="yes"/>
      <point x="1088.33333333" y="-282.0"/>
      <point x="1136.0" y="-209.0"/>
      <point x="1136" y="-89" type="curve" smooth="yes"/>
      <point x="1136" y="0" type="line"/>
      <point x="436" y="1112" type="line"/>
      <point x="430" y="1110" type="line"/>
      <point x="430" y="154" type="line"/>
      <point x="593" y="126" type="line"/>
      <point x="593" y="0" type="line"/>
      <point x="70" y="0" type="line"/>
      <point x="70" y="126" type="line"/>
      <point x="233" y="154" type="line"/>
      <point x="233" y="1301" type="line"/>
    </contour>
  </outline>
</glyph>
<glyph name="eng" format="1">
  <advance width="1263"/>
  <unicode hex="014B"/>
  <outline>
    <contour>
      <point x="90" y="126" type="line"/>
      <point x="253" y="154" type="line"/>
      <point x="253" y="927" type="line"/>
      <point x="90" y="955" type="line"/>
      <point x="90" y="1082" type="line"/>
      <point x="429" y="1082" type="line"/>
      <point x="442" y="933" type="line"/>
      <point x="514.0" y="1039.66666667"/>
      <point x="622.666666667" y="1102.0"/>
      <point x="756" y="1102" type="curve" smooth="yes"/>
      <point x="988.0" y="1102.0"/>
      <point x="1123.0" y="968.333333333"/>
      <point x="1123" y="683" type="curve" smooth="yes"/>
      <point x="1123" y="-89" type="line" smooth="yes"/>
      <point x="1123.0" y="-311.666666667"/>
      <point x="1001.0" y="-437.0"/>
      <point x="797" y="-437" type="curve" smooth="yes"/>
      <point x="754.333333333" y="-437.0"/>
      <point x="721.333333333" y="-431.0"/>
      <point x="684" y="-419" type="curve"/>
      <point x="698" y="-259" type="line"/>
      <point x="715.333333333" y="-265.666666667"/>
      <point x="773.0" y="-271.0"/>
      <point x="797" y="-271" type="curve" smooth="yes"/>
      <point x="878.333333333" y="-271.0"/>
      <point x="926.0" y="-206.333333333"/>
      <point x="926" y="-89" type="curve" smooth="yes"/>
      <point x="926" y="679" type="line" smooth="yes"/>
      <point x="926.0" y="869.666666667"/>
      <point x="851.0" y="942.0"/>
      <point x="695" y="942" type="curve" smooth="yes"/>
      <point x="581.666666667" y="942.0"/>
      <point x="500.666666667" y="896.666666667"/>
      <point x="450" y="818" type="curve"/>
      <point x="450" y="154" type="line"/>
      <point x="613" y="126" type="line"/>
      <point x="613" y="0" type="line"/>
      <point x="90" y="0" type="line"/>
    </contour>
  </outline>
</glyph>
<glyph name="oe" format="1">
  <advance width="1898"/>
  <unicode hex="0153"/>
  <outline>
    <contour>
      <point x="104" y="551" type="line" smooth="yes"/>
      <point x="104.0" y="871.0"/>
      <point x="288.6666666666668" y="1102.0"/>
      <point x="586" y="1102" type="curve" smooth="yes"/>
      <point x="759.3333333333333" y="1102.0"/>
      <point x="895.6666666666667" y="1025.0"/>
      <point x="981" y="893" type="curve"/>
      <point x="1066.3333333333333" y="1023.6666666666667"/>
      <point x="1203.6666666666665" y="1102.0"/>
      <point x="1349" y="1102" type="curve" smooth="yes"/>
      <point x="1639.6666666666665" y="1102.0"/>
      <point x="1792.0" y="911.3333333333333"/>
      <point x="1792" y="618" type="curve" smooth="yes"/>
      <point x="1792" y="495" type="line"/>
      <point x="1090" y="495" type="line"/>
      <point x="1087" y="490" type="line"/>
      <point x="1091.0" y="282.0"/>
      <point x="1195.0" y="133.0"/>
      <point x="1379" y="133" type="curve" smooth="yes"/>
      <point x="1512.3333333333335" y="133.0"/>
      <point x="1611.6666666666665" y="173.33333333333337"/>
      <point x="1685" y="240" type="curve"/>
      <point x="1762" y="112" type="line"/>
      <point x="1683.3333333333335" y="36.0"/>
      <point x="1559.0" y="-21.0"/>
      <point x="1379" y="-21" type="curve" smooth="yes"/>
      <point x="1203.0" y="-21.0"/>
      <point x="1064.3333333333333" y="52.666666666666686"/>
      <point x="979" y="182" type="curve"/>
      <point x="893.6666666666667" y="52.666666666666686"/>
      <point x="758.6666666666667" y="-21.0"/>
      <point x="588" y="-21" type="curve" smooth="yes"/>
      <point x="289.3333333333333" y="-21.0"/>
      <point x="104.0" y="207.6666666666668"/>
      <point x="104" y="529" type="curve" smooth="yes"/>
    </contour>
    <contour>
      <point x="301" y="529" type="line" smooth="yes"/>
      <point x="301.0" y="299.66666666666674"/>
      <point x="397.33333333333337" y="133.0"/>
      <point x="588" y="133" type="curve" smooth="yes"/>
      <point x="776.0" y="133.0"/>
      <point x="875.0" y="299.66666666666674"/>
      <point x="875" y="529" type="curve" smooth="yes"/>
      <point x="875" y="551" type="line" smooth="yes"/>
      <point x="875.0" y="777.6666666666667"/>
      <point x="775.3333333333333" y="947.0"/>
      <point x="586" y="947" type="curve" smooth="yes"/>
      <point x="398.0" y="947.0"/>
      <point x="301.0" y="777.6666666666667"/>
      <point x="301" y="551" type="curve" smooth="yes"/>
    </contour>
    <contour>
      <point x="1349" y="947" type="curve" smooth="yes"/>
      <point x="1217.0" y="947.0"/>
      <point x="1115.3333333333335" y="822.0"/>
      <point x="1094" y="654" type="curve"/>
      <point x="1096" y="649" type="line"/>
      <point x="1595" y="649" type="line"/>
      <point x="1595" y="675" type="line" smooth="yes"/>
      <point x="1595.0" y="829.6666666666667"/>
      <point x="1511.6666666666665" y="947.0"/>
    </contour>
  </outline>
</glyph>
<glyph name="Tbar" format="1">
  <advance width="1284"/>
  <unicode hex="0166"/>
  <outline>
    <contour>
      <point x="1247" y="1456" type="line"/>
      <point x="1247" y="1134" type="line"/>
      <point x="1079" y="1134" type="line"/>
      <point x="1064" y="1301" type="line"/>
      <point x="741" y="1301" type="line"/>
      <point x="741" y="899" type="line"/>
      <point x="971" y="899" type="line"/>
      <point x="971" y="744" type="line"/>
      <point x="741" y="744" type="line"/>
      <point x="741" y="154" type="line"/>
      <point x="904" y="126" type="line"/>
      <point x="904" y="0" type="line"/>
      <point x="381" y="0" type="line"/>
      <point x="381" y="126" type="line"/>
      <point x="544" y="154" type="line"/>
      <point x="544" y="744" type="line"/>
      <point x="330" y="744" type="line"/>
      <point x="330" y="899" type="line"/>
      <point x="544" y="899" type="line"/>
      <point x="544" y="1301" type="line"/>
      <point x="220" y="1301" type="line"/>
      <point x="206" y="1134" type="line"/>
      <point x="37" y="1134" type="line"/>
      <point x="37" y="1456" type="line"/>
    </contour>
  </outline>
</glyph>
<glyph name="tbar" format="1">
  <advance width="750"/>
  <unicode hex="0167"/>
  <outline>
    <contour>
      <point x="433" y="1343" type="line"/>
      <point x="433" y="1082" type="line"/>
      <point x="638" y="1082" type="line"/>
      <point x="638" y="936" type="line"/>
      <point x="433" y="936" type="line"/>
      <point x="433" y="755" type="line"/>
      <point x="639" y="755" type="line"/>
      <point x="639" y="600" type="line"/>
      <point x="433" y="600" type="line"/>
      <point x="433" y="279" type="line" smooth="yes"/>
      <point x="433.0" y="177.66666666666669"/>
      <point x="478.66666666666674" y="141.0"/>
      <point x="548" y="141" type="curve" smooth="yes"/>
      <point x="582.6666666666667" y="141.0"/>
      <point x="631.6666666666667" y="148.33333333333331"/>
      <point x="661" y="155" type="curve"/>
      <point x="688" y="20" type="line"/>
      <point x="650.6666666666667" y="-4.0"/>
      <point x="570.0" y="-21.0"/>
      <point x="498" y="-21" type="curve" smooth="yes"/>
      <point x="338.0" y="-21.0"/>
      <point x="236.0" y="72.33333333333337"/>
      <point x="236" y="279" type="curve" smooth="yes"/>
      <point x="236" y="600" type="line"/>
      <point x="-2" y="600" type="line"/>
      <point x="-2" y="755" type="line"/>
      <point x="236" y="755" type="line"/>
      <point x="236" y="936" type="line"/>
      <point x="65" y="936" type="line"/>
      <point x="65" y="1082" type="line"/>
      <point x="236" y="1082" type="line"/>
      <point x="236" y="1343" type="line"/>
    </contour>
  </outline>
</glyph>
<glyph name="florin" format="1">
  <advance width="767"/>
  <unicode hex="0192"/>
  <outline>
    <contour>
      <point x="630" y="936" type="line"/>
      <point x="434" y="936" type="line"/>
      <point x="434" y="-89" type="line" smooth="yes"/>
      <point x="434.0" y="-311.66666666666663"/>
      <point x="313.0" y="-437.0"/>
      <point x="109" y="-437" type="curve" smooth="yes"/>
      <point x="66.33333333333334" y="-437.0"/>
      <point x="34.33333333333333" y="-431.0"/>
      <point x="-3" y="-419" type="curve"/>
      <point x="10" y="-269" type="line"/>
      <point x="28.666666666666664" y="-275.66666666666663"/>
      <point x="85.0" y="-282.0"/>
      <point x="109" y="-282" type="curve" smooth="yes"/>
      <point x="187.66666666666663" y="-282.0"/>
      <point x="237.0" y="-209.0"/>
      <point x="237" y="-89" type="curve" smooth="yes"/>
      <point x="237" y="936" type="line"/>
      <point x="67" y="936" type="line"/>
      <point x="67" y="1082" type="line"/>
      <point x="237" y="1082" type="line"/>
      <point x="237" y="1219" type="line" smooth="yes"/>
      <point x="237.0" y="1449.6666666666665"/>
      <point x="363.0" y="1581.0"/>
      <point x="579" y="1581" type="curve" smooth="yes"/>
      <point x="624.3333333333333" y="1581.0"/>
      <point x="668.0" y="1573.3333333333335"/>
      <point x="724" y="1560" type="curve"/>
      <point x="700" y="1410" type="line"/>
      <point x="676.0" y="1415.3333333333335"/>
      <point x="640.0" y="1420.0"/>
      <point x="604" y="1420" type="curve" smooth="yes"/>
      <point x="488.0" y="1420.0"/>
      <point x="434.0" y="1349.6666666666665"/>
      <point x="434" y="1219" type="curve" smooth="yes"/>
      <point x="434" y="1082" type="line"/>
      <point x="630" y="1082" type="line"/>
    </contour>
  </outline>
</glyph>
<glyph name="uhorn" format="1">
  <advance width="1439"/>
  <unicode hex="01B0"/>
  <outline>
    <contour>
      <point x="1068.0" y="1082.0" type="line"/>
      <point x="1068.0" y="952.0" type="line"/>
      <point x="1074.0" y="950.0" type="line"/>
      <point x="1211.0" y="949.0"/>
      <point x="1234.0" y="1005.0"/>
      <point x="1234.0" y="1168.0" type="curve"/>
      <point x="1367.0" y="1168.0" type="line"/>
      <point x="1370" y="1164" type="line"/>
      <point x="1374" y="941"/>
      <point x="1297.0" y="842.0"/>
      <point x="1068.0" y="835.0" type="curve"/>
      <point x="1068.0" y="154.0" type="line"/>
      <point x="1192.0" y="126.0" type="line"/>
      <point x="1192.0" y="0.0" type="line"/>
      <point x="891.0" y="0.0" type="line"/>
      <point x="878.0" y="160.0" type="line"/>
      <point x="810.0" y="44.0"/>
      <point x="701.0" y="-21.0"/>
      <point x="561.0" y="-21.0" type="curve" smooth="yes"/>
      <point x="326.0" y="-21.0"/>
      <point x="187.0" y="125.0"/>
      <point x="187.0" y="444.0" type="curve" smooth="yes"/>
      <point x="187.0" y="927.0" type="line"/>
      <point x="63.0" y="955.0" type="line"/>
      <point x="63.0" y="1082.0" type="line"/>
      <point x="384.0" y="1082.0" type="line"/>
      <point x="384.0" y="442.0" type="line" smooth="yes"/>
      <point x="384.0" y="211.0"/>
      <point x="450.0" y="139.0"/>
      <point x="594.0" y="139.0" type="curve" smooth="yes"/>
      <point x="734.0" y="139.0"/>
      <point x="824.0" y="198.0"/>
      <point x="871.0" y="302.0" type="curve"/>
      <point x="871.0" y="927.0" type="line"/>
      <point x="726.0" y="955.0" type="line"/>
      <point x="726.0" y="1082.0" type="line"/>
    </contour>
  </outline>
</glyph>
<glyph name="schwa" format="1">
  <advance width="1115"/>
  <unicode hex="0259"/>
  <outline>
    <contour>
      <point x="516" y="1103" type="curve" smooth="yes"/>
      <point x="816.0" y="1103.0"/>
      <point x="1009.0" y="880.6666666666665"/>
      <point x="1009" y="562" type="curve" smooth="yes"/>
      <point x="1009" y="518" type="line" smooth="yes"/>
      <point x="1009.0" y="208.66666666666674"/>
      <point x="796.3333333333333" y="-20.333333333333336"/>
      <point x="547" y="-19" type="curve" smooth="yes"/>
      <point x="253.66666666666674" y="-19.0"/>
      <point x="103.0" y="169.33333333333337"/>
      <point x="103" y="464" type="curve" smooth="yes"/>
      <point x="103" y="587" type="line"/>
      <point x="804" y="587" type="line"/>
      <point x="807" y="592" type="line"/>
      <point x="803.0" y="798.6666666666667"/>
      <point x="698.6666666666667" y="949.0"/>
      <point x="516" y="949" type="curve" smooth="yes"/>
      <point x="381.33333333333337" y="949.0"/>
      <point x="283.3333333333333" y="906.3333333333333"/>
      <point x="210" y="841" type="curve"/>
      <point x="133" y="970" type="line"/>
      <point x="210.33333333333331" y="1044.6666666666667"/>
      <point x="336.0" y="1103.0"/>
    </contour>
    <contour>
      <point x="547" y="135" type="curve" smooth="yes"/>
      <point x="676.3333333333333" y="135.0"/>
      <point x="778.6666666666667" y="257.66666666666674"/>
      <point x="800" y="427" type="curve"/>
      <point x="798" y="432" type="line"/>
      <point x="300" y="432" type="line"/>
      <point x="300" y="407" type="line" smooth="yes"/>
      <point x="300.0" y="251.00000000000003"/>
      <point x="383.0" y="135.0"/>
    </contour>
  </outline>
</glyph>
<glyph name="caron" format="1">
  <advance width="809"/>
  <unicode hex="02C7"/>
  <outline>
    <contour>
      <point x="402" y="1367" type="line"/>
      <point x="549" y="1515" type="line"/>
      <point x="719" y="1515" type="line"/>
      <point x="719" y="1497" type="line"/>
      <point x="462" y="1252" type="line"/>
      <point x="343" y="1252" type="line"/>
      <point x="90" y="1495" type="line"/>
      <point x="90" y="1515" type="line"/>
      <point x="256" y="1515" type="line"/>
    </contour>
  </outline>
</glyph>
<glyph name="ring" format="1">
  <advance width="687"/>
  <unicode hex="02DA"/>
  <outline>
    <contour>
      <point x="138" y="1308" type="curve" smooth="yes"/>
      <point x="138.0" y="1420.0"/>
      <point x="230.0" y="1506.0"/>
      <point x="346" y="1506" type="curve" smooth="yes"/>
      <point x="459.33333333333337" y="1506.0"/>
      <point x="551.0" y="1421.3333333333335"/>
      <point x="551" y="1308" type="curve" smooth="yes"/>
      <point x="551.0" y="1193.3333333333335"/>
      <point x="459.33333333333337" y="1114.0"/>
      <point x="346" y="1114" type="curve" smooth="yes"/>
      <point x="230.0" y="1114.0"/>
      <point x="138.0" y="1193.3333333333335"/>
    </contour>
    <contour>
      <point x="241" y="1308" type="curve" smooth="yes"/>
      <point x="241.0" y="1250.6666666666665"/>
      <point x="288.66666666666663" y="1204.0"/>
      <point x="346" y="1204" type="curve" smooth="yes"/>
      <point x="402.0" y="1204.0"/>
      <point x="448.0" y="1248.0"/>
      <point x="448" y="1308" type="curve" smooth="yes"/>
      <point x="448.0" y="1368.0"/>
      <point x="402.0" y="1415.0"/>
      <point x="346" y="1415" type="curve" smooth="yes"/>
      <point x="287.33333333333337" y="1415.0"/>
      <point x="241.0" y="1368.0"/>
    </contour>
  </outline>
</glyph>
<glyph name="tilde" format="1">
  <advance width="948"/>
  <unicode hex="02DC"/>
  <outline>
    <contour>
      <point x="820" y="1491" type="line"/>
      <point x="820.0" y="1365.6666666666665"/>
      <point x="731.0" y="1267.0"/>
      <point x="611" y="1267" type="curve" smooth="yes"/>
      <point x="516.3333333333333" y="1267.0"/>
      <point x="403.0" y="1360.0"/>
      <point x="335" y="1360" type="curve" smooth="yes"/>
      <point x="279.0" y="1360.0"/>
      <point x="234.0" y="1310.3333333333335"/>
      <point x="234" y="1249" type="curve"/>
      <point x="127" y="1275" type="line"/>
      <point x="127.0" y="1399.0"/>
      <point x="213.66666666666663" y="1505.0"/>
      <point x="335" y="1505" type="curve" smooth="yes"/>
      <point x="409.66666666666663" y="1505.0"/>
      <point x="541.6666666666667" y="1411.0"/>
      <point x="611" y="1411" type="curve" smooth="yes"/>
      <point x="665.6666666666667" y="1411.0"/>
      <point x="712.0" y="1460.3333333333335"/>
      <point x="712" y="1523" type="curve"/>
    </contour>
  </outline>
</glyph>
<glyph name="hungarumlaut" format="1">
  <advance width="924"/>
  <unicode hex="02DD"/>
  <outline>
    <contour>
      <point x="614" y="1518" type="line"/>
      <point x="842" y="1518" type="line"/>
      <point x="845" y="1512" type="line"/>
      <point x="546" y="1252" type="line"/>
      <point x="375" y="1252" type="line"/>
      <point x="373" y="1257" type="line"/>
    </contour>
    <contour>
      <point x="288.0" y="1518.0" type="line"/>
      <point x="499.0" y="1518.0" type="line"/>
      <point x="501.0" y="1513.0" type="line"/>
      <point x="261.0" y="1252.0" type="line"/>
      <point x="111.0" y="1252.0" type="line"/>
      <point x="104.0" y="1252.0" type="line"/>
    </contour>
  </outline>
</glyph>
<glyph name="lowringmod" format="1">
  <advance width="446"/>
  <unicode hex="02F3"/>
  <outline>
    <contour>
      <point x="72" y="-235" type="curve" smooth="yes"/>
      <point x="72.0" y="-148.33333333333337"/>
      <point x="141.0" y="-85.0"/>
      <point x="229" y="-85" type="curve" smooth="yes"/>
      <point x="313.0" y="-85.0"/>
      <point x="382.0" y="-148.33333333333337"/>
      <point x="382" y="-235" type="curve" smooth="yes"/>
      <point x="382.0" y="-320.33333333333337"/>
      <point x="314.33333333333337" y="-381.0"/>
      <point x="229" y="-381" type="curve" smooth="yes"/>
      <point x="141.0" y="-381.0"/>
      <point x="72.0" y="-320.33333333333337"/>
    </contour>
    <contour>
      <point x="161" y="-235" type="curve" smooth="yes"/>
      <point x="161.0" y="-269.6666666666667"/>
      <point x="191.66666666666669" y="-300.0"/>
      <point x="229" y="-300" type="curve" smooth="yes"/>
      <point x="263.6666666666667" y="-300.0"/>
      <point x="293.0" y="-271.0"/>
      <point x="293" y="-235" type="curve" smooth="yes"/>
      <point x="293.0" y="-195.0"/>
      <point x="263.6666666666667" y="-166.0"/>
      <point x="229" y="-166" type="curve" smooth="yes"/>
      <point x="191.66666666666669" y="-166.0"/>
      <point x="161.0" y="-196.33333333333331"/>
    </contour>
  </outline>
</glyph>
<glyph name="dblgravecomb" format="1">
  <advance width="924"/>
  <unicode hex="030F"/>
  <outline>
    <contour>
      <point x="558" y="1257" type="line"/>
      <point x="556" y="1252" type="line"/>
      <point x="385" y="1252" type="line"/>
      <point x="86" y="1512" type="line"/>
      <point x="89" y="1518" type="line"/>
      <point x="317" y="1518" type="line"/>
    </contour>
    <contour>
      <point x="670.0" y="1252.0" type="line"/>
      <point x="430.0" y="1513.0" type="line"/>
      <point x="432.0" y="1518.0" type="line"/>
      <point x="643.0" y="1518.0" type="line"/>
      <point x="824.0" y="1256.0" type="line"/>
      <point x="825" y="1252" type="line"/>
    </contour>
  </outline>
</glyph>
<glyph name="tonos" format="1">
  <advance width="493"/>
  <unicode hex="0384"/>
  <outline>
    <contour>
      <point x="196" y="1660" type="line"/>
      <point x="404" y="1660" type="line"/>
      <point x="229" y="1270" type="line"/>
      <point x="136" y="1270" type="line"/>
    </contour>
  </outline>
</glyph>
<glyph name="dieresistonos" format="1">
  <advance width="1009"/>
  <unicode hex="0385"/>
  <outline>
    <contour>
      <point x="858" y="1256" type="line"/>
      <point x="660" y="1256" type="line"/>
      <point x="660" y="1456" type="line"/>
      <point x="858" y="1456" type="line"/>
    </contour>
    <contour>
      <point x="349" y="1256" type="line"/>
      <point x="151" y="1256" type="line"/>
      <point x="151" y="1456" type="line"/>
      <point x="349" y="1456" type="line"/>
    </contour>
    <contour>
      <point x="472" y="1673" type="line"/>
      <point x="690" y="1673" type="line"/>
      <point x="564" y="1408" type="line"/>
      <point x="422" y="1408" type="line"/>
    </contour>
  </outline>
</glyph>
<glyph name="Gamma" format="1">
  <advance width="1216"/>
  <unicode hex="0393"/>
  <outline>
    <contour>
      <point x="77" y="126" type="line"/>
      <point x="240" y="154" type="line"/>
      <point x="240" y="1301" type="line"/>
      <point x="77" y="1329" type="line"/>
      <point x="77" y="1456" type="line"/>
      <point x="1133" y="1456" type="line"/>
      <point x="1133" y="1134" type="line"/>
      <point x="964" y="1134" type="line"/>
      <point x="949" y="1301" type="line"/>
      <point x="437" y="1301" type="line"/>
      <point x="437" y="154" type="line"/>
      <point x="600" y="126" type="line"/>
      <point x="600" y="0" type="line"/>
      <point x="77" y="0" type="line"/>
    </contour>
  </outline>
</glyph>
<glyph name="Xi" format="1">
  <advance width="1179"/>
  <unicode hex="039E"/>
  <outline>
    <contour>
      <point x="66" y="321" type="line"/>
      <point x="234" y="321" type="line"/>
      <point x="249" y="154" type="line"/>
      <point x="939" y="154" type="line"/>
      <point x="955" y="321" type="line"/>
      <point x="1122" y="321" type="line"/>
      <point x="1122" y="0" type="line"/>
      <point x="66" y="0" type="line"/>
    </contour>
    <contour>
      <point x="1111" y="1456" type="line"/>
      <point x="1111" y="1134" type="line"/>
      <point x="942" y="1134" type="line"/>
      <point x="927" y="1301" type="line"/>
      <point x="250" y="1301" type="line"/>
      <point x="235" y="1134" type="line"/>
      <point x="66" y="1134" type="line"/>
      <point x="66" y="1456" type="line"/>
    </contour>
    <contour>
      <point x="278" y="833" type="line"/>
      <point x="901" y="833" type="line"/>
      <point x="901" y="678" type="line"/>
      <point x="278" y="678" type="line"/>
    </contour>
  </outline>
</glyph>
<glyph name="Psi" format="1">
  <advance width="1665"/>
  <unicode hex="03A8"/>
  <outline>
    <contour>
      <point x="1080" y="1329" type="line"/>
      <point x="917" y="1301" type="line"/>
      <point x="917" y="525" type="line"/>
      <point x="923" y="523" type="line"/>
      <point x="1115.0" y="548.333333333"/>
      <point x="1240.0" y="694.333333333"/>
      <point x="1240" y="925" type="curve" smooth="yes"/>
      <point x="1240" y="1456" type="line"/>
      <point x="1600" y="1456" type="line"/>
      <point x="1600" y="1329" type="line"/>
      <point x="1437" y="1301" type="line"/>
      <point x="1437" y="925" type="line" smooth="yes"/>
      <point x="1437.0" y="598.333333333"/>
      <point x="1229.0" y="391.0"/>
      <point x="917" y="359" type="curve"/>
      <point x="917" y="154" type="line"/>
      <point x="1080" y="126" type="line"/>
      <point x="1080" y="0" type="line"/>
      <point x="557" y="0" type="line"/>
      <point x="557" y="126" type="line"/>
      <point x="720" y="154" type="line"/>
      <point x="720" y="360" type="line"/>
      <point x="416.0" y="392.0"/>
      <point x="218.0" y="598.333333333"/>
      <point x="218" y="925" type="curve" smooth="yes"/>
      <point x="218" y="1301" type="line"/>
      <point x="55" y="1329" type="line"/>
      <point x="55" y="1456" type="line"/>
      <point x="414" y="1456" type="line"/>
      <point x="414" y="925" type="line" smooth="yes"/>
      <point x="414.0" y="698.333333333"/>
      <point x="532.666666667" y="551.666666667"/>
      <point x="714" y="525" type="curve"/>
      <point x="720" y="526" type="line"/>
      <point x="720" y="1301" type="line"/>
      <point x="557" y="1329" type="line"/>
      <point x="557" y="1456" type="line"/>
      <point x="1080" y="1456" type="line"/>
    </contour>
  </outline>
</glyph>
<glyph name="eta" format="1">
  <advance width="1208"/>
  <unicode hex="03B7"/>
  <outline>
    <contour>
      <point x="198.0" y="0.0" type="line"/>
      <point x="198.0" y="821.0" type="line" smooth="yes"/>
      <point x="198.0" y="897.0"/>
      <point x="169.0" y="922.0"/>
      <point x="124.0" y="922.0" type="curve" smooth="yes"/>
      <point x="97.0" y="922.0"/>
      <point x="57.0" y="909.0"/>
      <point x="40.0" y="901.0" type="curve"/>
      <point x="-4.0" y="1042.0" type="line"/>
      <point x="51.0" y="1079.0"/>
      <point x="123.0" y="1102.0"/>
      <point x="194.0" y="1102.0" type="curve" smooth="yes"/>
      <point x="300.0" y="1102.0"/>
      <point x="367.0" y="1054.0"/>
      <point x="388.0" y="947.0" type="curve" smooth="yes"/>
      <point x="389.0" y="944.0"/>
      <point x="389.0" y="940.0"/>
      <point x="390.0" y="936.0" type="curve"/>
      <point x="462.0" y="1041.0"/>
      <point x="570.0" y="1102.0"/>
      <point x="702.0" y="1102.0" type="curve" smooth="yes"/>
      <point x="938.0" y="1102.0"/>
      <point x="1068.0" y="982.0"/>
      <point x="1068.0" y="683.0" type="curve" smooth="yes"/>
      <point x="1068.0" y="-415.0" type="line"/>
      <point x="871.0" y="-415.0" type="line"/>
      <point x="871.0" y="679.0" type="line" smooth="yes"/>
      <point x="871.0" y="870.0"/>
      <point x="796.0" y="947.0"/>
      <point x="641.0" y="947.0" type="curve" smooth="yes"/>
      <point x="528.0" y="947.0"/>
      <point x="446.0" y="900.0"/>
      <point x="395.0" y="820.0" type="curve"/>
      <point x="395.0" y="0.0" type="line"/>
    </contour>
  </outline>
</glyph>
<glyph name="theta" format="1">
  <advance width="1162"/>
  <unicode hex="03B8"/>
  <outline>
    <contour>
      <point x="1054" y="555" type="line" smooth="yes"/>
      <point x="1054.0" y="183.0"/>
      <point x="877.6666666666665" y="-21.0"/>
      <point x="591" y="-21" type="curve" smooth="yes"/>
      <point x="305.66666666666674" y="-21.0"/>
      <point x="127.0" y="184.33333333333337"/>
      <point x="127" y="555" type="curve" smooth="yes"/>
      <point x="127" y="900" type="line" smooth="yes"/>
      <point x="127.0" y="1270.6666666666665"/>
      <point x="303.66666666666674" y="1477.0"/>
      <point x="589" y="1477" type="curve" smooth="yes"/>
      <point x="875.6666666666665" y="1477.0"/>
      <point x="1054.0" y="1270.6666666666665"/>
      <point x="1054" y="900" type="curve" smooth="yes"/>
    </contour>
    <contour>
      <point x="324" y="803" type="line"/>
      <point x="857" y="803" type="line"/>
      <point x="857" y="942" type="line" smooth="yes"/>
      <point x="857.0" y="1194.0"/>
      <point x="763.6666666666667" y="1322.0"/>
      <point x="589" y="1322" type="curve" smooth="yes"/>
      <point x="417.0" y="1322.0"/>
      <point x="324.0" y="1194.0"/>
      <point x="324" y="942" type="curve" smooth="yes"/>
    </contour>
    <contour>
      <point x="857" y="648" type="line"/>
      <point x="324" y="648" type="line"/>
      <point x="324" y="515" type="line" smooth="yes"/>
      <point x="324.0" y="263.0"/>
      <point x="419.0" y="133.0"/>
      <point x="591" y="133" type="curve" smooth="yes"/>
      <point x="765.6666666666667" y="133.0"/>
      <point x="857.0" y="261.66666666666674"/>
      <point x="857" y="515" type="curve" smooth="yes"/>
    </contour>
  </outline>
</glyph>
<glyph name="iota" format="1">
  <advance width="669"/>
  <unicode hex="03B9"/>
  <outline>
    <contour>
      <point x="392" y="268" type="line" smooth="yes"/>
      <point x="392.0" y="169.33333333333337"/>
      <point x="429.0" y="139.0"/>
      <point x="489" y="139" type="curve" smooth="yes"/>
      <point x="522.3333333333334" y="139.0"/>
      <point x="555.6666666666667" y="149.0"/>
      <point x="581" y="165" type="curve"/>
      <point x="625" y="32" type="line"/>
      <point x="563.6666666666667" y="-9.333333333333293"/>
      <point x="509.00000000000006" y="-21.0"/>
      <point x="437" y="-21" type="curve" smooth="yes"/>
      <point x="278.33333333333337" y="-21.0"/>
      <point x="194.0" y="68.33333333333337"/>
      <point x="194" y="279" type="curve" smooth="yes"/>
      <point x="194" y="927" type="line"/>
      <point x="31" y="955" type="line"/>
      <point x="31" y="1082" type="line"/>
      <point x="392" y="1082" type="line"/>
    </contour>
  </outline>
</glyph>
<glyph name="xi" format="1">
  <advance width="1004"/>
  <unicode hex="03BE"/>
  <outline>
    <contour>
      <point x="878" y="1285" type="line"/>
      <point x="795.3333333333333" y="1307.6666666666665"/>
      <point x="726.0" y="1321.0"/>
      <point x="654" y="1321" type="curve" smooth="yes"/>
      <point x="459.33333333333326" y="1321.0"/>
      <point x="359.0" y="1240.0"/>
      <point x="359" y="1136" type="curve" smooth="yes"/>
      <point x="359.0" y="998.6666666666665"/>
      <point x="458.33333333333326" y="918.0"/>
      <point x="677" y="918" type="curve" smooth="yes"/>
      <point x="820" y="918" type="line"/>
      <point x="820" y="763" type="line"/>
      <point x="677" y="763" type="line" smooth="yes"/>
      <point x="426.33333333333326" y="763.0"/>
      <point x="295.0" y="658.6666666666667"/>
      <point x="295" y="444" type="curve" smooth="yes"/>
      <point x="295.0" y="280.0"/>
      <point x="411.0" y="179.66666666666669"/>
      <point x="563" y="145" type="curve" smooth="yes"/>
      <point x="676" y="121" type="line" smooth="yes"/>
      <point x="868.0" y="75.66666666666669"/>
      <point x="940.0" y="47.66666666666666"/>
      <point x="940" y="-99" type="curve"/>
      <point x="937.3333333333333" y="-195.00000000000003"/>
      <point x="846.3333333333333" y="-323.33333333333337"/>
      <point x="761" y="-394" type="curve"/>
      <point x="658" y="-308" type="line"/>
      <point x="731.3333333333333" y="-222.66666666666663"/>
      <point x="752.0" y="-194.66666666666663"/>
      <point x="752" y="-124" type="curve" smooth="yes"/>
      <point x="752.0" y="-68.0"/>
      <point x="710.0" y="-45.0"/>
      <point x="598" y="-21" type="curve" smooth="yes"/>
      <point x="542" y="-8" type="line" smooth="yes"/>
      <point x="246.00000000000006" y="59.999999999999986"/>
      <point x="98.0" y="169.33333333333331"/>
      <point x="98" y="448" type="curve" smooth="yes"/>
      <point x="98.0" y="644.0"/>
      <point x="213.66666666666674" y="779.3333333333333"/>
      <point x="411" y="842" type="curve"/>
      <point x="255.0" y="898.0"/>
      <point x="162.0" y="1005.3333333333335"/>
      <point x="162" y="1132" type="curve" smooth="yes"/>
      <point x="162.0" y="1346.6666666666665"/>
      <point x="350.66666666666674" y="1475.0"/>
      <point x="652" y="1475" type="curve" smooth="yes"/>
      <point x="741.3333333333333" y="1475.0"/>
      <point x="844.3333333333333" y="1458.3333333333335"/>
      <point x="907" y="1437" type="curve"/>
    </contour>
  </outline>
</glyph>
<glyph name="sigma" format="1">
  <advance width="1246"/>
  <unicode hex="03C3"/>
  <outline>
    <contour>
      <point x="1155" y="926" type="line"/>
      <point x="878" y="926" type="line"/>
      <point x="1003.3333333333333" y="830.0"/>
      <point x="1073.0" y="685.3333333333331"/>
      <point x="1073" y="512" type="curve" smooth="yes"/>
      <point x="1073" y="490" type="line" smooth="yes"/>
      <point x="1073.0" y="210.0"/>
      <point x="882.3333333333333" y="-21.0"/>
      <point x="589" y="-21" type="curve" smooth="yes"/>
      <point x="290.3333333333333" y="-21.0"/>
      <point x="105.0" y="207.6666666666668"/>
      <point x="105" y="529" type="curve" smooth="yes"/>
      <point x="105" y="551" type="line" smooth="yes"/>
      <point x="105.0" y="860.3333333333334"/>
      <point x="289.66666666666686" y="1082.0"/>
      <point x="587" y="1082" type="curve" smooth="yes"/>
      <point x="1155" y="1082" type="line"/>
    </contour>
    <contour>
      <point x="302" y="529" type="line" smooth="yes"/>
      <point x="302.0" y="299.66666666666674"/>
      <point x="398.33333333333337" y="133.0"/>
      <point x="589" y="133" type="curve" smooth="yes"/>
      <point x="777.0" y="133.0"/>
      <point x="876.0" y="299.66666666666674"/>
      <point x="876" y="529" type="curve" smooth="yes"/>
      <point x="876" y="551" type="line" smooth="yes"/>
      <point x="876.0" y="765.6666666666667"/>
      <point x="776" y="926"/>
      <point x="586" y="926" type="curve" smooth="yes"/>
      <point x="399" y="926"/>
      <point x="302.0" y="765.6666666666667"/>
      <point x="302" y="551" type="curve" smooth="yes"/>
    </contour>
  </outline>
</glyph>
<glyph name="tau" format="1">
  <advance width="1014"/>
  <unicode hex="03C4"/>
  <outline>
    <contour>
      <point x="947" y="1082" type="line"/>
      <point x="947" y="929" type="line"/>
      <point x="597" y="929" type="line"/>
      <point x="597" y="268" type="line" smooth="yes"/>
      <point x="597.0" y="170.66666666666669"/>
      <point x="635.0" y="139.0"/>
      <point x="695" y="139" type="curve" smooth="yes"/>
      <point x="727.0" y="139.0"/>
      <point x="760.6666666666667" y="150.33333333333331"/>
      <point x="786" y="165" type="curve"/>
      <point x="831" y="33" type="line"/>
      <point x="769.6666666666667" y="-9.666666666666664"/>
      <point x="713.6666666666667" y="-21.0"/>
      <point x="643" y="-21" type="curve" smooth="yes"/>
      <point x="484.33333333333326" y="-21.0"/>
      <point x="400.0" y="68.33333333333337"/>
      <point x="400" y="279" type="curve" smooth="yes"/>
      <point x="400" y="929" type="line"/>
      <point x="62" y="929" type="line"/>
      <point x="62" y="1082" type="line"/>
    </contour>
  </outline>
</glyph>
<glyph name="upsilon" format="1">
  <advance width="1220"/>
  <unicode hex="03C5"/>
  <outline>
    <contour>
      <point x="426" y="427" type="line" smooth="yes"/>
      <point x="426.0" y="223.00000000000006"/>
      <point x="500.0" y="133.0"/>
      <point x="620" y="133" type="curve" smooth="yes"/>
      <point x="798.6666666666667" y="133.0"/>
      <point x="912.0" y="339.0"/>
      <point x="912" y="563" type="curve" smooth="yes"/>
      <point x="908.0" y="731.0"/>
      <point x="861.3333333333333" y="900.6666666666667"/>
      <point x="788" y="1082" type="curve"/>
      <point x="994" y="1082" type="line"/>
      <point x="1062.0" y="940.6666666666667"/>
      <point x="1109.0" y="769.6666666666667"/>
      <point x="1109" y="563" type="curve" smooth="yes"/>
      <point x="1109.0" y="232.33333333333337"/>
      <point x="940.6666666666665" y="-21.0"/>
      <point x="630" y="-21" type="curve" smooth="yes"/>
      <point x="374.0" y="-21.0"/>
      <point x="229.0" y="123.66666666666674"/>
      <point x="229" y="429" type="curve" smooth="yes"/>
      <point x="229" y="821" type="line" smooth="yes"/>
      <point x="229.0" y="898.3333333333333"/>
      <point x="200.66666666666669" y="922.0"/>
      <point x="154" y="922" type="curve" smooth="yes"/>
      <point x="127.33333333333331" y="922.0"/>
      <point x="87.33333333333334" y="909.0"/>
      <point x="70" y="901" type="curve"/>
      <point x="25" y="1042" type="line"/>
      <point x="81.0" y="1079.3333333333335"/>
      <point x="154.66666666666669" y="1102.0"/>
      <point x="224" y="1102" type="curve" smooth="yes"/>
      <point x="354.66666666666674" y="1102.0"/>
      <point x="426.0" y="1030.9999999999998"/>
      <point x="426" y="867" type="curve" smooth="yes"/>
    </contour>
  </outline>
</glyph>
<glyph name="phi" format="1">
  <advance width="1500"/>
  <unicode hex="03C6"/>
  <outline>
    <contour>
      <point x="647" y="-16" type="line"/>
      <point x="281.66666666666674" y="17.33333333333333"/>
      <point x="113.0" y="252.0"/>
      <point x="113" y="564" type="curve" smooth="yes"/>
      <point x="113.0" y="788.0"/>
      <point x="197.33333333333337" y="966.0"/>
      <point x="368" y="1082" type="curve"/>
      <point x="475" y="946" type="line"/>
      <point x="364.33333333333337" y="847.3333333333333"/>
      <point x="315.33333333333337" y="709.3333333333333"/>
      <point x="310" y="564" type="curve"/>
      <point x="310.0" y="357.3333333333333"/>
      <point x="415.66666666666674" y="177.66666666666669"/>
      <point x="641" y="147" type="curve"/>
      <point x="647" y="149" type="line"/>
      <point x="647" y="824" type="line" smooth="yes"/>
      <point x="647.0" y="960.0"/>
      <point x="766.3333333333333" y="1082.0"/>
      <point x="925" y="1082" type="curve" smooth="yes"/>
      <point x="1183.6666666666665" y="1082.0"/>
      <point x="1397.0" y="847.9999999999999"/>
      <point x="1397" y="544" type="curve" smooth="yes"/>
      <point x="1397.0" y="242.66666666666669"/>
      <point x="1221.3333333333335" y="14.666666666666657"/>
      <point x="844" y="-16" type="curve"/>
      <point x="844" y="-478" type="line"/>
      <point x="647" y="-478" type="line"/>
    </contour>
    <contour>
      <point x="844" y="148" type="line"/>
      <point x="850" y="145" type="line"/>
      <point x="1086.0" y="174.33333333333331"/>
      <point x="1200.0" y="346.66666666666674"/>
      <point x="1200" y="544" type="curve" smooth="yes"/>
      <point x="1194.6666666666665" y="752.0"/>
      <point x="1094.3333333333333" y="926.0"/>
      <point x="925" y="926" type="curve" smooth="yes"/>
      <point x="871.6666666666667" y="926.0"/>
      <point x="844.0" y="887.0"/>
      <point x="844" y="831" type="curve" smooth="yes"/>
    </contour>
  </outline>
</glyph>
<glyph name="chi" format="1">
  <advance width="1192"/>
  <unicode hex="03C7"/>
  <outline>
    <contour>
      <point x="62" y="126" type="line"/>
      <point x="178" y="149" type="line"/>
      <point x="487" y="537" type="line"/>
      <point x="188" y="932" type="line"/>
      <point x="72" y="955" type="line"/>
      <point x="72" y="1082" type="line"/>
      <point x="333" y="1081" type="line"/>
      <point x="609" y="689" type="line"/>
      <point x="803" y="944" type="line"/>
      <point x="706" y="955" type="line"/>
      <point x="706" y="1082" type="line"/>
      <point x="1133" y="1082" type="line"/>
      <point x="1133" y="955" type="line"/>
      <point x="1017" y="932" type="line"/>
      <point x="709" y="552" type="line"/>
      <point x="1026" y="149" type="line"/>
      <point x="1143" y="126" type="line"/>
      <point x="1143" y="0" type="line"/>
      <point x="896" y="0" type="line"/>
      <point x="603" y="409" type="line"/>
      <point x="391" y="137" type="line"/>
      <point x="488" y="126" type="line"/>
      <point x="488" y="0" type="line"/>
      <point x="62" y="0" type="line"/>
    </contour>
  </outline>
</glyph>
<glyph name="omega" format="1">
  <advance width="1679"/>
  <unicode hex="03C9"/>
  <outline>
    <contour>
      <point x="457" y="1082" type="line"/>
      <point x="369.0" y="900.6666666666667"/>
      <point x="315.66666666666663" y="731.3333333333333"/>
      <point x="313" y="562" type="curve"/>
      <point x="313.0" y="308.6666666666667"/>
      <point x="377.33333333333337" y="133.0"/>
      <point x="524" y="133" type="curve" smooth="yes"/>
      <point x="654.6666666666667" y="133.0"/>
      <point x="738.0" y="236.66666666666674"/>
      <point x="738" y="470" type="curve" smooth="yes"/>
      <point x="738" y="770" type="line"/>
      <point x="936" y="770" type="line"/>
      <point x="936" y="470" type="line" smooth="yes"/>
      <point x="936.0" y="236.66666666666686"/>
      <point x="1018.0" y="133.0"/>
      <point x="1150" y="133" type="curve" smooth="yes"/>
      <point x="1296.6666666666665" y="133.0"/>
      <point x="1362.0" y="306.0"/>
      <point x="1362" y="562" type="curve" smooth="yes"/>
      <point x="1356.6666666666665" y="731.3333333333333"/>
      <point x="1303.3333333333335" y="903.3333333333333"/>
      <point x="1218" y="1082" type="curve"/>
      <point x="1424" y="1082" type="line"/>
      <point x="1504.0" y="940.6666666666667"/>
      <point x="1559.0" y="767.3333333333333"/>
      <point x="1559" y="562" type="curve" smooth="yes"/>
      <point x="1559.0" y="221.99999999999994"/>
      <point x="1435.6666666666665" y="-21.0"/>
      <point x="1161" y="-21" type="curve" smooth="yes"/>
      <point x="1002.3333333333335" y="-21.0"/>
      <point x="891.6666666666667" y="59.33333333333334"/>
      <point x="837" y="214" type="curve"/>
      <point x="782.3333333333333" y="60.666666666666686"/>
      <point x="670.0" y="-21.0"/>
      <point x="514" y="-21" type="curve" smooth="yes"/>
      <point x="238.00000000000006" y="-21.0"/>
      <point x="116.0" y="221.99999999999994"/>
      <point x="116" y="562" type="curve" smooth="yes"/>
      <point x="116.0" y="768.6666666666667"/>
      <point x="169.66666666666669" y="942.0"/>
      <point x="251" y="1082" type="curve"/>
    </contour>
  </outline>
</glyph>
<glyph name="thetaSymbol" format="1">
  <advance width="1342"/>
  <unicode hex="03D1"/>
  <outline>
    <contour>
      <point x="654.0" y="140.0" type="curve" smooth="yes"/>
      <point x="870.0" y="140.0"/>
      <point x="1004.0" y="302.0"/>
      <point x="1011.0" y="570.0" type="curve" smooth="yes"/>
      <point x="1011.0" y="575.0"/>
      <point x="1011.0" y="580.0"/>
      <point x="1011.0" y="585.0" type="curve"/>
      <point x="722.0" y="596.0"/>
      <point x="529.0" y="780.0"/>
      <point x="529.0" y="1036.0" type="curve" smooth="yes"/>
      <point x="529.0" y="1098.0" type="line" smooth="yes"/>
      <point x="529.0" y="1329.0"/>
      <point x="668.0" y="1477.0"/>
      <point x="868.0" y="1477.0" type="curve" smooth="yes"/>
      <point x="1077.0" y="1477.0"/>
      <point x="1207.0" y="1334.0"/>
      <point x="1207.0" y="1098.0" type="curve" smooth="yes"/>
      <point x="1207.0" y="592.0" type="line" smooth="yes"/>
      <point x="1207.0" y="221.0"/>
      <point x="986.0" y="-21.0"/>
      <point x="654.0" y="-21.0" type="curve" smooth="yes"/>
      <point x="338.0" y="-21.0"/>
      <point x="121.0" y="239.0"/>
      <point x="121.0" y="592.0" type="curve" smooth="yes"/>
      <point x="121.0" y="1252.0" type="line"/>
      <point x="318.0" y="1254.0" type="line"/>
      <point x="318.0" y="592.0" type="line" smooth="yes"/>
      <point x="318.0" y="325.0"/>
      <point x="447.0" y="140.0"/>
    </contour>
    <contour>
      <point x="726" y="1034" type="line" smooth="yes"/>
      <point x="726.0" y="874.0"/>
      <point x="833.0" y="757.3333333333333"/>
      <point x="1005" y="752" type="curve"/>
      <point x="1011" y="754" type="line"/>
      <point x="1011" y="1098" type="line" smooth="yes"/>
      <point x="1011.0" y="1242.0"/>
      <point x="961.3333333333333" y="1315.0"/>
      <point x="868" y="1315" type="curve" smooth="yes"/>
      <point x="780.0" y="1315.0"/>
      <point x="726.0" y="1242.0"/>
      <point x="726" y="1098" type="curve" smooth="yes"/>
    </contour>
  </outline>
</glyph>
<glyph name="Dje-cy" format="1">
  <advance width="1573"/>
  <unicode hex="0402"/>
  <outline>
    <contour>
      <point x="1245" y="1134" type="line"/>
      <point x="1076" y="1134" type="line"/>
      <point x="1061" y="1301" type="line"/>
      <point x="697" y="1301" type="line"/>
      <point x="697" y="840" type="line"/>
      <point x="805.0" y="869.3333333333333"/>
      <point x="911.3333333333333" y="892.0"/>
      <point x="982" y="892" type="curve" smooth="yes"/>
      <point x="1310.0" y="892.0"/>
      <point x="1502.0" y="722.3333333333333"/>
      <point x="1502" y="433" type="curve" smooth="yes"/>
      <point x="1502.0" y="145.0"/>
      <point x="1328.3333333333335" y="-10.0"/>
      <point x="1011" y="-6" type="curve"/>
      <point x="1006" y="-4" type="line"/>
      <point x="1004" y="137" type="line"/>
      <point x="1220.0" y="137.0"/>
      <point x="1305.0" y="241.0"/>
      <point x="1305" y="433" type="curve" smooth="yes"/>
      <point x="1302.3333333333335" y="623.6666666666667"/>
      <point x="1195.3333333333335" y="727.0"/>
      <point x="982" y="727" type="curve" smooth="yes"/>
      <point x="899.3333333333333" y="727.0"/>
      <point x="790.3333333333333" y="709.0"/>
      <point x="697" y="681" type="curve"/>
      <point x="697" y="154" type="line"/>
      <point x="841" y="126" type="line"/>
      <point x="841" y="0" type="line"/>
      <point x="337" y="0" type="line"/>
      <point x="337" y="126" type="line"/>
      <point x="500" y="154" type="line"/>
      <point x="500" y="1301" type="line"/>
      <point x="257" y="1301" type="line"/>
      <point x="242" y="1134" type="line"/>
      <point x="74" y="1134" type="line"/>
      <point x="74" y="1456" type="line"/>
      <point x="1245" y="1456" type="line"/>
    </contour>
  </outline>
</glyph>
<glyph name="E-cy" format="1">
  <advance width="1284"/>
  <unicode hex="0404"/>
  <outline>
    <contour>
      <point x="1181.0" y="1010.0" type="line"/>
      <point x="1042.0" y="1010.0" type="line"/>
      <point x="1005.0" y="1216.0" type="line"/>
      <point x="941.0" y="1279.0"/>
      <point x="849.0" y="1323.0"/>
      <point x="720.0" y="1323.0" type="curve" smooth="yes"/>
      <point x="439.0" y="1323.0"/>
      <point x="274.0" y="1113.0"/>
      <point x="252.0" y="813.0" type="curve"/>
      <point x="258.0" y="813.0" type="line"/>
      <point x="844.0" y="813.0" type="line"/>
      <point x="844.0" y="659.0" type="line"/>
      <point x="257.0" y="659.0" type="line"/>
      <point x="251.0" y="659.0" type="line"/>
      <point x="269.0" y="352.0"/>
      <point x="434.0" y="134.0"/>
      <point x="700.0" y="134.0" type="curve" smooth="yes"/>
      <point x="832.0" y="134.0"/>
      <point x="946.0" y="181.0"/>
      <point x="1005.0" y="241.0" type="curve"/>
      <point x="1042.0" y="447.0" type="line"/>
      <point x="1181.0" y="447.0" type="line"/>
      <point x="1181.0" y="188.0" type="line"/>
      <point x="1097.0" y="80.0"/>
      <point x="921.0" y="-20.0"/>
      <point x="700.0" y="-20.0" type="curve" smooth="yes"/>
      <point x="321.0" y="-20.0"/>
      <point x="52.0" y="294.0"/>
      <point x="52.0" y="718.0" type="curve" smooth="yes"/>
      <point x="52.0" y="739.0" type="line" smooth="yes"/>
      <point x="52.0" y="1166.0"/>
      <point x="313.0" y="1478.0"/>
      <point x="700.0" y="1478.0" type="curve" smooth="yes"/>
      <point x="921.0" y="1478.0"/>
      <point x="1097.0" y="1376.0"/>
      <point x="1181.0" y="1269.0" type="curve"/>
    </contour>
  </outline>
</glyph>
<glyph name="Dze-cy" format="1">
  <advance width="1247"/>
  <unicode hex="0405"/>
  <outline>
    <contour>
      <point x="1125" y="1026" type="line"/>
      <point x="976" y="1026" type="line"/>
      <point x="939" y="1234" type="line"/>
      <point x="879.0" y="1284.6666666666665"/>
      <point x="777.0" y="1322.0"/>
      <point x="645" y="1322" type="curve" smooth="yes"/>
      <point x="435.66666666666674" y="1322.0"/>
      <point x="320.0" y="1224.6666666666665"/>
      <point x="320" y="1082" type="curve" smooth="yes"/>
      <point x="320.0" y="955.3333333333333"/>
      <point x="427.33333333333326" y="876.0"/>
      <point x="682" y="812" type="curve" smooth="yes"/>
      <point x="988.6666666666666" y="736.0"/>
      <point x="1151.0" y="587.6666666666665"/>
      <point x="1151" y="369" type="curve" smooth="yes"/>
      <point x="1151.0" y="134.33333333333348"/>
      <point x="941.3333333333334" y="-21.0"/>
      <point x="632" y="-21" type="curve" smooth="yes"/>
      <point x="408.00000000000006" y="-21.0"/>
      <point x="230.33333333333334" y="59.333333333333314"/>
      <point x="121" y="178" type="curve"/>
      <point x="121" y="449" type="line"/>
      <point x="269" y="449" type="line"/>
      <point x="307" y="240" type="line"/>
      <point x="383.0" y="177.33333333333331"/>
      <point x="485.33333333333326" y="133.0"/>
      <point x="632" y="133" type="curve" smooth="yes"/>
      <point x="830.6666666666667" y="133.0"/>
      <point x="954.0" y="223.0"/>
      <point x="954" y="367" type="curve" smooth="yes"/>
      <point x="954.0" y="500.33333333333326"/>
      <point x="867.3333333333333" y="586.6666666666667"/>
      <point x="614" y="648" type="curve" smooth="yes"/>
      <point x="306.0" y="721.3333333333333"/>
      <point x="123.0" y="863.0"/>
      <point x="123" y="1079" type="curve" smooth="yes"/>
      <point x="123.0" y="1307.0"/>
      <point x="335.6666666666667" y="1477.0"/>
      <point x="645" y="1477" type="curve" smooth="yes"/>
      <point x="849.0" y="1477.0"/>
      <point x="1023.6666666666665" y="1397.0"/>
      <point x="1125" y="1297" type="curve"/>
    </contour>
  </outline>
</glyph>
<glyph name="Nje-cy" format="1">
  <advance width="2265"/>
  <unicode hex="040A"/>
  <outline>
    <contour>
      <point x="77" y="126" type="line"/>
      <point x="240" y="154" type="line"/>
      <point x="240" y="1301" type="line"/>
      <point x="77" y="1329" type="line"/>
      <point x="77" y="1456" type="line"/>
      <point x="600" y="1456" type="line"/>
      <point x="600" y="1329" type="line"/>
      <point x="437" y="1301" type="line"/>
      <point x="437" y="827" type="line"/>
      <point x="1145" y="827" type="line"/>
      <point x="1145" y="1301" type="line"/>
      <point x="982" y="1329" type="line"/>
      <point x="982" y="1456" type="line"/>
      <point x="1145" y="1456" type="line"/>
      <point x="1342" y="1456" type="line"/>
      <point x="1505" y="1456" type="line"/>
      <point x="1505" y="1329" type="line"/>
      <point x="1342" y="1301" type="line"/>
      <point x="1342" y="840" type="line"/>
      <point x="1701" y="840" type="line" smooth="yes"/>
      <point x="2011.66666667" y="840.0"/>
      <point x="2192.0" y="674.666666667"/>
      <point x="2192" y="424" type="curve" smooth="yes"/>
      <point x="2192.0" y="172.0"/>
      <point x="2010.33333333" y="0.0"/>
      <point x="1701" y="0" type="curve" smooth="yes"/>
      <point x="982" y="0" type="line"/>
      <point x="982" y="126" type="line"/>
      <point x="1145" y="154" type="line"/>
      <point x="1145" y="673" type="line"/>
      <point x="437" y="673" type="line"/>
      <point x="437" y="154" type="line"/>
      <point x="600" y="126" type="line"/>
      <point x="600" y="0" type="line"/>
      <point x="77" y="0" type="line"/>
    </contour>
    <contour>
      <point x="1342" y="685" type="line"/>
      <point x="1342" y="165" type="line"/>
      <point x="1701" y="165" type="line" smooth="yes"/>
      <point x="1898.33333333" y="165.0"/>
      <point x="1996.0" y="275.333333333"/>
      <point x="1996" y="426" type="curve" smooth="yes"/>
      <point x="1996.0" y="575.333333333"/>
      <point x="1898.33333333" y="685.0"/>
      <point x="1701" y="685" type="curve" smooth="yes"/>
    </contour>
  </outline>
</glyph>
<glyph name="Tshe-cy" format="1">
  <advance width="1745"/>
  <unicode hex="040B"/>
  <outline>
    <contour>
      <point x="1227" y="1134" type="line"/>
      <point x="1058" y="1134" type="line"/>
      <point x="1043" y="1301" type="line"/>
      <point x="700" y="1301" type="line"/>
      <point x="700" y="868" type="line"/>
      <point x="801.3333333333333" y="894.6666666666667"/>
      <point x="899.3333333333333" y="908.0"/>
      <point x="1038" y="908" type="curve" smooth="yes"/>
      <point x="1358.0" y="908.0"/>
      <point x="1527.0" y="774.6666666666665"/>
      <point x="1527" y="460" type="curve" smooth="yes"/>
      <point x="1527" y="154" type="line"/>
      <point x="1690" y="126" type="line"/>
      <point x="1690" y="0" type="line"/>
      <point x="1167" y="0" type="line"/>
      <point x="1167" y="126" type="line"/>
      <point x="1330" y="154" type="line"/>
      <point x="1330" y="460" type="line" smooth="yes"/>
      <point x="1330.0" y="678.6666666666667"/>
      <point x="1242.0" y="752.0"/>
      <point x="1038" y="752" type="curve" smooth="yes"/>
      <point x="919.3333333333333" y="752.0"/>
      <point x="810.6666666666667" y="736.3333333333333"/>
      <point x="700" y="711" type="curve"/>
      <point x="700" y="154" type="line"/>
      <point x="863" y="126" type="line"/>
      <point x="863" y="0" type="line"/>
      <point x="339" y="0" type="line"/>
      <point x="339" y="126" type="line"/>
      <point x="502" y="154" type="line"/>
      <point x="502" y="1301" type="line"/>
      <point x="239" y="1301" type="line"/>
      <point x="225" y="1134" type="line"/>
      <point x="56" y="1134" type="line"/>
      <point x="56" y="1456" type="line"/>
      <point x="1227" y="1456" type="line"/>
    </contour>
  </outline>
</glyph>
<glyph name="Dzhe-cy" format="1">
  <advance width="1575"/>
  <unicode hex="040F"/>
  <outline>
    <contour>
      <point x="1505" y="1329" type="line"/>
      <point x="1342" y="1301" type="line"/>
      <point x="1342" y="154" type="line"/>
      <point x="1505" y="126" type="line"/>
      <point x="1505" y="0" type="line"/>
      <point x="896" y="0" type="line"/>
      <point x="896" y="-359" type="line"/>
      <point x="699" y="-359" type="line"/>
      <point x="699" y="0" type="line"/>
      <point x="77" y="0" type="line"/>
      <point x="77" y="126" type="line"/>
      <point x="240" y="154" type="line"/>
      <point x="240" y="1301" type="line"/>
      <point x="77" y="1329" type="line"/>
      <point x="77" y="1456" type="line"/>
      <point x="437" y="1456" type="line"/>
      <point x="600" y="1456" type="line"/>
      <point x="600" y="1329" type="line"/>
      <point x="437" y="1301" type="line"/>
      <point x="437" y="154" type="line"/>
      <point x="1145" y="154" type="line"/>
      <point x="1145" y="1301" type="line"/>
      <point x="982" y="1329" type="line"/>
      <point x="982" y="1456" type="line"/>
      <point x="1505" y="1456" type="line"/>
    </contour>
  </outline>
</glyph>
<glyph name="Be-cy" format="1">
  <advance width="1359"/>
  <unicode hex="0411"/>
  <outline>
    <contour>
      <point x="60" y="126" type="line"/>
      <point x="223" y="154" type="line"/>
      <point x="223" y="1301" type="line"/>
      <point x="60" y="1329" type="line"/>
      <point x="60" y="1456" type="line"/>
      <point x="1116" y="1456" type="line"/>
      <point x="1116" y="1134" type="line"/>
      <point x="947" y="1134" type="line"/>
      <point x="932" y="1301" type="line"/>
      <point x="430" y="1301" type="line"/>
      <point x="430" y="860" type="line"/>
      <point x="789" y="860" type="line" smooth="yes"/>
      <point x="1101.0" y="860.0"/>
      <point x="1280.0" y="695.333333333"/>
      <point x="1280" y="434" type="curve" smooth="yes"/>
      <point x="1280.0" y="171.333333333"/>
      <point x="1099.66666667" y="0.0"/>
      <point x="789" y="0" type="curve" smooth="yes"/>
      <point x="60" y="0" type="line"/>
    </contour>
    <contour>
      <point x="430" y="705" type="line"/>
      <point x="430" y="154" type="line"/>
      <point x="789" y="154" type="line" smooth="yes"/>
      <point x="986.333333333" y="154.0"/>
      <point x="1083.0" y="273.333333333"/>
      <point x="1083" y="436" type="curve" smooth="yes"/>
      <point x="1083.0" y="593.333333333"/>
      <point x="986.333333333" y="705.0"/>
      <point x="789" y="705" type="curve" smooth="yes"/>
    </contour>
  </outline>
</glyph>
<glyph name="De-cy" format="1">
  <advance width="1570"/>
  <unicode hex="0414"/>
  <outline>
    <contour>
      <point x="1479" y="-357" type="line"/>
      <point x="1302" y="-357" type="line"/>
      <point x="1302" y="0" type="line"/>
      <point x="252" y="0" type="line"/>
      <point x="252" y="-359" type="line"/>
      <point x="84" y="-359" type="line"/>
      <point x="55" y="154" type="line"/>
      <point x="180" y="154" type="line"/>
      <point x="281.333333333" y="271.333333333"/>
      <point x="382.0" y="481.666666667"/>
      <point x="390" y="867" type="curve" smooth="yes"/>
      <point x="414" y="1302" type="line"/>
      <point x="260" y="1329" type="line"/>
      <point x="260" y="1456" type="line"/>
      <point x="1462" y="1456" type="line"/>
      <point x="1462" y="1329" type="line"/>
      <point x="1299" y="1301" type="line"/>
      <point x="1299" y="154" type="line"/>
      <point x="1499" y="154" type="line"/>
    </contour>
    <contour>
      <point x="589" y="867" type="line" smooth="yes"/>
      <point x="577.0" y="549.666666667"/>
      <point x="504.666666667" y="304.666666667"/>
      <point x="398" y="154" type="curve"/>
      <point x="1102" y="154" type="line"/>
      <point x="1102" y="1301" type="line"/>
      <point x="612" y="1301" type="line"/>
    </contour>
  </outline>
</glyph>
<glyph name="Zhe-cy" format="1">
  <advance width="2041"/>
  <unicode hex="0416"/>
  <outline>
    <contour>
      <point x="747.0" y="634.0" type="line"/>
      <point x="448.0" y="143.0" type="line"/>
      <point x="446.0" y="139.0" type="line"/>
      <point x="525.0" y="126.0" type="line"/>
      <point x="525.0" y="0.0" type="line"/>
      <point x="63.0" y="0.0" type="line"/>
      <point x="63.0" y="126.0" type="line"/>
      <point x="209.0" y="147.0" type="line"/>
      <point x="597.0" y="761.0" type="line"/>
      <point x="331.0" y="1185.0" type="line" smooth="yes"/>
      <point x="279.0" y="1264.0"/>
      <point x="240.0" y="1295.0"/>
      <point x="177.0" y="1295.0" type="curve" smooth="yes"/>
      <point x="148.0" y="1295.0"/>
      <point x="119.0" y="1290.0"/>
      <point x="91.0" y="1285.0" type="curve"/>
      <point x="62.0" y="1423.0" type="line"/>
      <point x="105.0" y="1451.0"/>
      <point x="152.0" y="1467.0"/>
      <point x="217.0" y="1467.0" type="curve" smooth="yes"/>
      <point x="328.0" y="1467.0"/>
      <point x="404.0" y="1425.0"/>
      <point x="497.0" y="1274.0" type="curve" smooth="yes"/>
      <point x="787.0" y="800.0" type="line"/>
      <point x="929.0" y="800.0" type="line"/>
      <point x="929.0" y="1301.0" type="line"/>
      <point x="766.0" y="1329.0" type="line"/>
      <point x="766.0" y="1456.0" type="line"/>
      <point x="1288.0" y="1456.0" type="line"/>
      <point x="1288.0" y="1329.0" type="line"/>
      <point x="1125.0" y="1301.0" type="line"/>
      <point x="1125.0" y="800.0" type="line"/>
      <point x="1279.0" y="800.0" type="line"/>
      <point x="1569.0" y="1274.0" type="line" smooth="yes"/>
      <point x="1661.0" y="1425.0"/>
      <point x="1736.0" y="1467.0"/>
      <point x="1849.0" y="1467.0" type="curve" smooth="yes"/>
      <point x="1913.0" y="1467.0"/>
      <point x="1960.0" y="1451.0"/>
      <point x="2003.0" y="1423.0" type="curve"/>
      <point x="1974.0" y="1285.0" type="line"/>
      <point x="1946.0" y="1290.0"/>
      <point x="1917.0" y="1295.0"/>
      <point x="1889.0" y="1295.0" type="curve" smooth="yes"/>
      <point x="1825.0" y="1295.0"/>
      <point x="1786.0" y="1264.0"/>
      <point x="1734.0" y="1185.0" type="curve" smooth="yes"/>
      <point x="1455.0" y="752.0" type="line"/>
      <point x="1837.0" y="147.0" type="line"/>
      <point x="1983.0" y="126.0" type="line"/>
      <point x="1983.0" y="0.0" type="line"/>
      <point x="1522.0" y="0.0" type="line"/>
      <point x="1522.0" y="126.0" type="line"/>
      <point x="1600.0" y="139.0" type="line"/>
      <point x="1597.0" y="144.0" type="line"/>
      <point x="1300.0" y="634.0" type="line"/>
      <point x="1125.0" y="634.0" type="line"/>
      <point x="1125.0" y="154.0" type="line"/>
      <point x="1288.0" y="126.0" type="line"/>
      <point x="1288.0" y="0.0" type="line"/>
      <point x="766.0" y="0.0" type="line"/>
      <point x="766.0" y="126.0" type="line"/>
      <point x="929.0" y="154.0" type="line"/>
      <point x="929.0" y="634.0" type="line"/>
    </contour>
  </outline>
</glyph>
<glyph name="Ze-cy" format="1">
  <advance width="1222"/>
  <unicode hex="0417"/>
  <outline>
    <contour>
      <point x="597" y="820" type="line" smooth="yes"/>
      <point x="802.333333333" y="820.0"/>
      <point x="899.0" y="912.666666667"/>
      <point x="899" y="1066" type="curve" smooth="yes"/>
      <point x="899.0" y="1216.66666667"/>
      <point x="788.666666667" y="1322.0"/>
      <point x="562" y="1322" type="curve" smooth="yes"/>
      <point x="431.333333333" y="1322.0"/>
      <point x="337.0" y="1276.33333333"/>
      <point x="277" y="1215" type="curve"/>
      <point x="239" y="1010" type="line"/>
      <point x="101" y="1010" type="line"/>
      <point x="101" y="1268" type="line"/>
      <point x="183.666666667" y="1374.66666667"/>
      <point x="359.666666667" y="1477.0"/>
      <point x="581" y="1477" type="curve" smooth="yes"/>
      <point x="899.666666667" y="1477.0"/>
      <point x="1096.0" y="1327.33333333"/>
      <point x="1096" y="1062" type="curve" smooth="yes"/>
      <point x="1096.0" y="927.333333333"/>
      <point x="1006.66666667" y="811.0"/>
      <point x="860" y="747" type="curve"/>
      <point x="1026.66666667" y="691.0"/>
      <point x="1118.0" y="572.666666667"/>
      <point x="1118" y="406" type="curve" smooth="yes"/>
      <point x="1118.0" y="139.333333333"/>
      <point x="901.0" y="-21.0"/>
      <point x="581" y="-21" type="curve" smooth="yes"/>
      <point x="302.333333333" y="-21.0"/>
      <point x="69.3333333333" y="124.666666667"/>
      <point x="76" y="398" type="curve"/>
      <point x="78" y="404" type="line"/>
      <point x="266" y="404" type="line"/>
      <point x="266.0" y="252.0"/>
      <point x="395.666666667" y="133.0"/>
      <point x="581" y="133" type="curve" smooth="yes"/>
      <point x="793.0" y="133.0"/>
      <point x="921.0" y="242.0"/>
      <point x="921" y="402" type="curve" smooth="yes"/>
      <point x="921.0" y="579.333333333"/>
      <point x="810.333333333" y="664.0"/>
      <point x="597" y="664" type="curve" smooth="yes"/>
      <point x="433" y="664" type="line"/>
      <point x="433" y="820" type="line"/>
    </contour>
  </outline>
</glyph>
<glyph name="Tse-cy" format="1">
  <advance width="1594"/>
  <unicode hex="0426"/>
  <outline>
    <contour>
      <point x="1505" y="1329" type="line"/>
      <point x="1342" y="1301" type="line"/>
      <point x="1342" y="154" type="line"/>
      <point x="1532" y="154" type="line"/>
      <point x="1532" y="-351" type="line"/>
      <point x="1337" y="-351" type="line"/>
      <point x="1337" y="0" type="line"/>
      <point x="77" y="0" type="line"/>
      <point x="77" y="126" type="line"/>
      <point x="240" y="154" type="line"/>
      <point x="240" y="1301" type="line"/>
      <point x="77" y="1329" type="line"/>
      <point x="77" y="1456" type="line"/>
      <point x="600" y="1456" type="line"/>
      <point x="600" y="1329" type="line"/>
      <point x="437" y="1301" type="line"/>
      <point x="437" y="154" type="line"/>
      <point x="1145" y="154" type="line"/>
      <point x="1145" y="1301" type="line"/>
      <point x="982" y="1329" type="line"/>
      <point x="982" y="1456" type="line"/>
      <point x="1505" y="1456" type="line"/>
    </contour>
  </outline>
</glyph>
<glyph name="Sha-cy" format="1">
  <advance width="2037"/>
  <unicode hex="0428"/>
  <outline>
    <contour>
      <point x="77" y="126" type="line"/>
      <point x="240" y="154" type="line"/>
      <point x="240" y="1301" type="line"/>
      <point x="77" y="1329" type="line"/>
      <point x="77" y="1456" type="line"/>
      <point x="437" y="1456" type="line"/>
      <point x="600" y="1456" type="line"/>
      <point x="600" y="1329" type="line"/>
      <point x="437" y="1301" type="line"/>
      <point x="437" y="154" type="line"/>
      <point x="929" y="154" type="line"/>
      <point x="929" y="1301" type="line"/>
      <point x="766" y="1329" type="line"/>
      <point x="766" y="1456" type="line"/>
      <point x="1288" y="1456" type="line"/>
      <point x="1288" y="1329" type="line"/>
      <point x="1125" y="1301" type="line"/>
      <point x="1125" y="154" type="line"/>
      <point x="1615" y="154" type="line"/>
      <point x="1615" y="1301" type="line"/>
      <point x="1452" y="1329" type="line"/>
      <point x="1452" y="1456" type="line"/>
      <point x="1615" y="1456" type="line"/>
      <point x="1812" y="1456" type="line"/>
      <point x="1975" y="1456" type="line"/>
      <point x="1975" y="1329" type="line"/>
      <point x="1812" y="1301" type="line"/>
      <point x="1812" y="154" type="line"/>
      <point x="1975" y="126" type="line"/>
      <point x="1975" y="0" type="line"/>
      <point x="77" y="0" type="line"/>
    </contour>
  </outline>
</glyph>
<glyph name="Shcha-cy" format="1">
  <advance width="2044"/>
  <unicode hex="0429"/>
  <outline>
    <contour>
      <point x="1975" y="1456" type="line"/>
      <point x="1975" y="1329" type="line"/>
      <point x="1812" y="1301" type="line"/>
      <point x="1812" y="155" type="line"/>
      <point x="1992" y="155" type="line"/>
      <point x="1972" y="-351" type="line"/>
      <point x="1797" y="-351" type="line"/>
      <point x="1797" y="0" type="line"/>
      <point x="77" y="0" type="line"/>
      <point x="77" y="126" type="line"/>
      <point x="240" y="154" type="line"/>
      <point x="240" y="1301" type="line"/>
      <point x="77" y="1329" type="line"/>
      <point x="77" y="1456" type="line"/>
      <point x="600" y="1456" type="line"/>
      <point x="600" y="1329" type="line"/>
      <point x="437" y="1301" type="line"/>
      <point x="437" y="154" type="line"/>
      <point x="929" y="154" type="line"/>
      <point x="929" y="1301" type="line"/>
      <point x="766" y="1329" type="line"/>
      <point x="766" y="1456" type="line"/>
      <point x="1288" y="1456" type="line"/>
      <point x="1288" y="1329" type="line"/>
      <point x="1125" y="1301" type="line"/>
      <point x="1125" y="154" type="line"/>
      <point x="1615" y="154" type="line"/>
      <point x="1615" y="1301" type="line"/>
      <point x="1452" y="1329" type="line"/>
      <point x="1452" y="1456" type="line"/>
    </contour>
  </outline>
</glyph>
<glyph name="Hardsign-cy" format="1">
  <advance width="1740"/>
  <unicode hex="042A"/>
  <outline>
    <contour>
      <point x="954" y="1456" type="line"/>
      <point x="954" y="1329" type="line"/>
      <point x="791" y="1301" type="line"/>
      <point x="791" y="860" type="line"/>
      <point x="1150" y="860" type="line" smooth="yes"/>
      <point x="1462.0" y="860.0"/>
      <point x="1641.0" y="695.333333333"/>
      <point x="1641" y="434" type="curve" smooth="yes"/>
      <point x="1641.0" y="171.333333333"/>
      <point x="1460.66666667" y="0.0"/>
      <point x="1150" y="0" type="curve" smooth="yes"/>
      <point x="431" y="0" type="line"/>
      <point x="431" y="126" type="line"/>
      <point x="594" y="154" type="line"/>
      <point x="594" y="1301" type="line"/>
      <point x="245" y="1301" type="line"/>
      <point x="231" y="1135" type="line"/>
      <point x="62" y="1135" type="line"/>
      <point x="62" y="1456" type="line"/>
    </contour>
    <contour>
      <point x="791" y="705" type="line"/>
      <point x="791" y="154" type="line"/>
      <point x="1150" y="154" type="line" smooth="yes"/>
      <point x="1347.33333333" y="154.0"/>
      <point x="1444.0" y="273.333333333"/>
      <point x="1444" y="436" type="curve" smooth="yes"/>
      <point x="1444.0" y="593.333333333"/>
      <point x="1347.33333333" y="705.0"/>
      <point x="1150" y="705" type="curve" smooth="yes"/>
    </contour>
  </outline>
</glyph>
<glyph name="Ereversed-cy" format="1">
  <advance width="1257"/>
  <unicode hex="042D"/>
  <outline>
    <contour>
      <point x="83" y="1269" type="line"/>
      <point x="164.33333333333331" y="1374.3333333333335"/>
      <point x="340.33333333333337" y="1477.0"/>
      <point x="563" y="1477" type="curve" smooth="yes"/>
      <point x="947.0000000000001" y="1477.0"/>
      <point x="1192.0" y="1168.3333333333333"/>
      <point x="1192" y="739" type="curve" smooth="yes"/>
      <point x="1192" y="718" type="line" smooth="yes"/>
      <point x="1192.0" y="290.0"/>
      <point x="937.6666666666665" y="-20.0"/>
      <point x="563" y="-20" type="curve" smooth="yes"/>
      <point x="340.33333333333337" y="-20.0"/>
      <point x="164.33333333333331" y="81.33333333333337"/>
      <point x="83" y="188" type="curve"/>
      <point x="83" y="447" type="line"/>
      <point x="221" y="447" type="line"/>
      <point x="258" y="241" type="line"/>
      <point x="315.33333333333337" y="181.0"/>
      <point x="429.66666666666674" y="134.0"/>
      <point x="563" y="134" type="curve" smooth="yes"/>
      <point x="821.6666666666665" y="134.0"/>
      <point x="972.3333333333333" y="343.66666666666674"/>
      <point x="987" y="645" type="curve"/>
      <point x="985" y="650" type="line"/>
      <point x="431" y="650" type="line"/>
      <point x="431" y="804" type="line"/>
      <point x="986" y="804" type="line"/>
      <point x="988" y="809" type="line"/>
      <point x="974.6666666666667" y="1113.0"/>
      <point x="823.0" y="1323.0"/>
      <point x="543" y="1323" type="curve" smooth="yes"/>
      <point x="412.33333333333337" y="1323.0"/>
      <point x="320.66666666666663" y="1278.6666666666665"/>
      <point x="258" y="1216" type="curve"/>
      <point x="221" y="1010" type="line"/>
      <point x="83" y="1010" type="line"/>
    </contour>
  </outline>
</glyph>
<glyph name="ii-cy" format="1">
  <advance width="1396"/>
  <unicode hex="0438"/>
  <outline>
    <contour>
      <point x="619" y="1082" type="line"/>
      <point x="619" y="955" type="line"/>
      <point x="456" y="927" type="line"/>
      <point x="456" y="316" type="line"/>
      <point x="462" y="314" type="line"/>
      <point x="939" y="1082" type="line"/>
      <point x="1136" y="1082" type="line"/>
      <point x="1299" y="1082" type="line"/>
      <point x="1299" y="955" type="line"/>
      <point x="1136" y="927" type="line"/>
      <point x="1136" y="154" type="line"/>
      <point x="1299" y="126" type="line"/>
      <point x="1299" y="0" type="line"/>
      <point x="776" y="0" type="line"/>
      <point x="776" y="126" type="line"/>
      <point x="939" y="154" type="line"/>
      <point x="939" y="766" type="line"/>
      <point x="933" y="768" type="line"/>
      <point x="456" y="0" type="line"/>
      <point x="97" y="0" type="line"/>
      <point x="97" y="126" type="line"/>
      <point x="260" y="154" type="line"/>
      <point x="260" y="927" type="line"/>
      <point x="97" y="955" type="line"/>
      <point x="97" y="1082" type="line"/>
      <point x="456" y="1082" type="line"/>
    </contour>
  </outline>
</glyph>
<glyph name="ka-cy" format="1">
  <advance width="1264"/>
  <unicode hex="043A"/>
  <outline>
    <contour>
      <point x="97" y="955" type="line"/>
      <point x="97" y="1082" type="line"/>
      <point x="620" y="1082" type="line"/>
      <point x="620" y="955" type="line"/>
      <point x="457" y="927" type="line"/>
      <point x="457" y="625" type="line"/>
      <point x="561" y="625" type="line"/>
      <point x="787" y="928" type="line" smooth="yes"/>
      <point x="868.3333333333333" y="1041.3333333333333"/>
      <point x="940.6666666666667" y="1101.0"/>
      <point x="1038" y="1101" type="curve" smooth="yes"/>
      <point x="1099.3333333333335" y="1101.0"/>
      <point x="1131.3333333333335" y="1086.0"/>
      <point x="1182" y="1054" type="curve"/>
      <point x="1154" y="920" type="line"/>
      <point x="1096.6666666666665" y="929.3333333333333"/>
      <point x="1104.6666666666665" y="929.0"/>
      <point x="1078" y="929" type="curve" smooth="yes"/>
      <point x="1028.6666666666665" y="929.0"/>
      <point x="979.0" y="887.3333333333334"/>
      <point x="943" y="838" type="curve" smooth="yes"/>
      <point x="734" y="567" type="line"/>
      <point x="1075" y="151" type="line"/>
      <point x="1214" y="126" type="line"/>
      <point x="1214" y="0" type="line"/>
      <point x="951" y="0" type="line"/>
      <point x="585" y="459" type="line"/>
      <point x="457" y="459" type="line"/>
      <point x="457" y="154" type="line"/>
      <point x="620" y="126" type="line"/>
      <point x="620" y="0" type="line"/>
      <point x="97" y="0" type="line"/>
      <point x="97" y="126" type="line"/>
      <point x="260" y="154" type="line"/>
      <point x="260" y="927" type="line"/>
    </contour>
  </outline>
</glyph>
<glyph name="em-cy" format="1">
  <advance width="1724"/>
  <unicode hex="043C"/>
  <outline>
    <contour>
      <point x="866" y="258" type="line"/>
      <point x="872" y="258" type="line"/>
      <point x="1225" y="1082" type="line"/>
      <point x="1472" y="1082" type="line"/>
      <point x="1635" y="1082" type="line"/>
      <point x="1635" y="955" type="line"/>
      <point x="1472" y="927" type="line"/>
      <point x="1472" y="154" type="line"/>
      <point x="1635" y="126" type="line"/>
      <point x="1635" y="0" type="line"/>
      <point x="1112" y="0" type="line"/>
      <point x="1112" y="126" type="line"/>
      <point x="1275" y="154" type="line"/>
      <point x="1275" y="751" type="line"/>
      <point x="1269" y="753" type="line"/>
      <point x="937" y="0" type="line"/>
      <point x="801" y="0" type="line"/>
      <point x="463" y="769" type="line"/>
      <point x="457" y="767" type="line"/>
      <point x="457" y="154" type="line"/>
      <point x="620" y="126" type="line"/>
      <point x="620" y="0" type="line"/>
      <point x="97" y="0" type="line"/>
      <point x="97" y="126" type="line"/>
      <point x="260" y="154" type="line"/>
      <point x="260" y="927" type="line"/>
      <point x="97" y="955" type="line"/>
      <point x="97" y="1082" type="line"/>
      <point x="260" y="1082" type="line"/>
      <point x="514" y="1082" type="line"/>
    </contour>
  </outline>
</glyph>
<glyph name="en-cy" format="1">
  <advance width="1395"/>
  <unicode hex="043D"/>
  <outline>
    <contour>
      <point x="97" y="955" type="line"/>
      <point x="97" y="1082" type="line"/>
      <point x="620" y="1082" type="line"/>
      <point x="620" y="955" type="line"/>
      <point x="457" y="927" type="line"/>
      <point x="457" y="614" type="line"/>
      <point x="938" y="614" type="line"/>
      <point x="938" y="927" type="line"/>
      <point x="775" y="955" type="line"/>
      <point x="775" y="1082" type="line"/>
      <point x="938" y="1082" type="line"/>
      <point x="1136" y="1082" type="line"/>
      <point x="1299" y="1082" type="line"/>
      <point x="1299" y="955" type="line"/>
      <point x="1136" y="927" type="line"/>
      <point x="1136" y="154" type="line"/>
      <point x="1299" y="126" type="line"/>
      <point x="1299" y="0" type="line"/>
      <point x="775" y="0" type="line"/>
      <point x="775" y="126" type="line"/>
      <point x="938" y="154" type="line"/>
      <point x="938" y="460" type="line"/>
      <point x="457" y="460" type="line"/>
      <point x="457" y="154" type="line"/>
      <point x="620" y="126" type="line"/>
      <point x="620" y="0" type="line"/>
      <point x="97" y="0" type="line"/>
      <point x="97" y="126" type="line"/>
      <point x="260" y="154" type="line"/>
      <point x="260" y="927" type="line"/>
    </contour>
  </outline>
</glyph>
<glyph name="pe-cy" format="1">
  <advance width="1396"/>
  <unicode hex="043F"/>
  <outline>
    <contour>
      <point x="97" y="126" type="line"/>
      <point x="260" y="154" type="line"/>
      <point x="260" y="927" type="line"/>
      <point x="97" y="955" type="line"/>
      <point x="97" y="1082" type="line"/>
      <point x="1299" y="1082" type="line"/>
      <point x="1299" y="955" type="line"/>
      <point x="1136" y="927" type="line"/>
      <point x="1136" y="154" type="line"/>
      <point x="1299" y="126" type="line"/>
      <point x="1299" y="0" type="line"/>
      <point x="776" y="0" type="line"/>
      <point x="776" y="126" type="line"/>
      <point x="939" y="154" type="line"/>
      <point x="939" y="926" type="line"/>
      <point x="457" y="926" type="line"/>
      <point x="457" y="154" type="line"/>
      <point x="620" y="126" type="line"/>
      <point x="620" y="0" type="line"/>
      <point x="97" y="0" type="line"/>
    </contour>
  </outline>
</glyph>
<glyph name="es-cy" format="1">
  <advance width="1104"/>
  <unicode hex="0441"/>
  <outline>
    <contour>
      <point x="575" y="133" type="curve" smooth="yes"/>
      <point x="705.6666666666667" y="133.0"/>
      <point x="822.0" y="224.66666666666663"/>
      <point x="822" y="342" type="curve"/>
      <point x="999" y="342" type="line"/>
      <point x="1001" y="336" type="line"/>
      <point x="1007.6666666666667" y="149.33333333333337"/>
      <point x="804.3333333333333" y="-21.0"/>
      <point x="575" y="-21" type="curve" smooth="yes"/>
      <point x="260.33333333333337" y="-21.0"/>
      <point x="90.0" y="209.33333333333337"/>
      <point x="90" y="520" type="curve" smooth="yes"/>
      <point x="90" y="562" type="line" smooth="yes"/>
      <point x="90.0" y="870.0"/>
      <point x="261.66666666666674" y="1102.0"/>
      <point x="575" y="1102" type="curve" smooth="yes"/>
      <point x="748.3333333333333" y="1102.0"/>
      <point x="889.3333333333333" y="1041.0"/>
      <point x="980" y="941" type="curve"/>
      <point x="989" y="701" type="line"/>
      <point x="832" y="701" type="line"/>
      <point x="789" y="871" type="line"/>
      <point x="742.3333333333333" y="916.3333333333333"/>
      <point x="667.0" y="947.0"/>
      <point x="575" y="947" type="curve" smooth="yes"/>
      <point x="368.33333333333337" y="947.0"/>
      <point x="287.0" y="778.0"/>
      <point x="287" y="562" type="curve" smooth="yes"/>
      <point x="287" y="520" type="line" smooth="yes"/>
      <point x="287.0" y="298.6666666666667"/>
      <point x="367.0" y="133.0"/>
    </contour>
  </outline>
</glyph>
<glyph name="te-cy" format="1">
  <advance width="1186"/>
  <unicode hex="0442"/>
  <outline>
    <contour>
      <point x="1102" y="1082" type="line"/>
      <point x="1102" y="760" type="line"/>
      <point x="933" y="760" type="line"/>
      <point x="918" y="929" type="line"/>
      <point x="686" y="929" type="line"/>
      <point x="686" y="154" type="line"/>
      <point x="849" y="126" type="line"/>
      <point x="849" y="0" type="line"/>
      <point x="326" y="0" type="line"/>
      <point x="326" y="126" type="line"/>
      <point x="489" y="154" type="line"/>
      <point x="489" y="929" type="line"/>
      <point x="261" y="929" type="line"/>
      <point x="246" y="760" type="line"/>
      <point x="78" y="760" type="line"/>
      <point x="78" y="1082" type="line"/>
    </contour>
  </outline>
</glyph>
<glyph name="ef-cy" format="1">
  <advance width="1471"/>
  <unicode hex="0444"/>
  <outline>
    <contour>
      <point x="825" y="1560" type="line"/>
      <point x="825" y="1070" type="line"/>
      <point x="870.333333333" y="1090.0"/>
      <point x="923.333333333" y="1102.0"/>
      <point x="986" y="1102" type="curve" smooth="yes"/>
      <point x="1238.0" y="1102.0"/>
      <point x="1380.0" y="871.666666667"/>
      <point x="1380" y="521" type="curve" smooth="yes"/>
      <point x="1380" y="500" type="line" smooth="yes"/>
      <point x="1380.0" y="185.333333333"/>
      <point x="1237.33333333" y="-21.0"/>
      <point x="988" y="-21" type="curve" smooth="yes"/>
      <point x="925.333333333" y="-21.0"/>
      <point x="870.333333333" y="-9.66666666667"/>
      <point x="825" y="9" type="curve"/>
      <point x="825" y="-261" type="line"/>
      <point x="988" y="-289" type="line"/>
      <point x="988" y="-416" type="line"/>
      <point x="465" y="-416" type="line"/>
      <point x="465" y="-289" type="line"/>
      <point x="628" y="-261" type="line"/>
      <point x="628" y="5" type="line"/>
      <point x="585.333333333" y="-11.0"/>
      <point x="536.666666667" y="-21.0"/>
      <point x="482" y="-21" type="curve" smooth="yes"/>
      <point x="232.666666667" y="-21.0"/>
      <point x="91.0" y="185.333333333"/>
      <point x="91" y="500" type="curve" smooth="yes"/>
      <point x="91" y="521" type="line" smooth="yes"/>
      <point x="91.0" y="871.666666667"/>
      <point x="230.666666667" y="1102.0"/>
      <point x="484" y="1102" type="curve" smooth="yes"/>
      <point x="537.333333333" y="1102.0"/>
      <point x="585.333333333" y="1092.0"/>
      <point x="628" y="1076" type="curve"/>
      <point x="628" y="1405" type="line"/>
      <point x="465" y="1433" type="line"/>
      <point x="465" y="1560" type="line"/>
    </contour>
    <contour>
      <point x="1182" y="521" type="line" smooth="yes"/>
      <point x="1182.0" y="771.666666667"/>
      <point x="1099.33333333" y="947.0"/>
      <point x="926" y="947" type="curve" smooth="yes"/>
      <point x="886.0" y="947.0"/>
      <point x="853.0" y="940.666666667"/>
      <point x="825" y="930" type="curve"/>
      <point x="825" y="147" type="line"/>
      <point x="851.666666667" y="137.666666667"/>
      <point x="885.333333333" y="133.0"/>
      <point x="928" y="133" type="curve" smooth="yes"/>
      <point x="1100.0" y="133.0"/>
      <point x="1182.0" y="280.0"/>
      <point x="1182" y="500" type="curve" smooth="yes"/>
    </contour>
    <contour>
      <point x="288" y="500" type="line" smooth="yes"/>
      <point x="288.0" y="277.333333333"/>
      <point x="360.0" y="133.0"/>
      <point x="532" y="133" type="curve" smooth="yes"/>
      <point x="569.333333333" y="133.0"/>
      <point x="601.333333333" y="137.666666667"/>
      <point x="628" y="147" type="curve"/>
      <point x="628" y="933" type="line"/>
      <point x="601.333333333" y="941.0"/>
      <point x="570.0" y="947.0"/>
      <point x="534" y="947" type="curve" smooth="yes"/>
      <point x="360.666666667" y="947.0"/>
      <point x="288.0" y="774.333333333"/>
      <point x="288" y="521" type="curve" smooth="yes"/>
    </contour>
  </outline>
</glyph>
<glyph name="shcha-cy" format="1">
  <advance width="1873"/>
  <unicode hex="0449"/>
  <outline>
    <contour>
      <point x="1763" y="955" type="line"/>
      <point x="1600" y="927" type="line"/>
      <point x="1600" y="155" type="line"/>
      <point x="1774" y="155" type="line"/>
      <point x="1754" y="-321" type="line"/>
      <point x="1579" y="-321" type="line"/>
      <point x="1579" y="0" type="line"/>
      <point x="85" y="0" type="line"/>
      <point x="85" y="126" type="line"/>
      <point x="248" y="154" type="line"/>
      <point x="248" y="927" type="line"/>
      <point x="85" y="955" type="line"/>
      <point x="85" y="1082" type="line"/>
      <point x="248" y="1082" type="line"/>
      <point x="445" y="1082" type="line"/>
      <point x="608" y="1082" type="line"/>
      <point x="608" y="955" type="line"/>
      <point x="445" y="927" type="line"/>
      <point x="445" y="154" type="line"/>
      <point x="825" y="154" type="line"/>
      <point x="825" y="1082" type="line"/>
      <point x="1022" y="1082" type="line"/>
      <point x="1022" y="154" type="line"/>
      <point x="1403" y="154" type="line"/>
      <point x="1403" y="927" type="line"/>
      <point x="1240" y="955" type="line"/>
      <point x="1240" y="1082" type="line"/>
      <point x="1763" y="1082" type="line"/>
    </contour>
  </outline>
</glyph>
<glyph name="hardsign-cy" format="1">
  <advance width="1420"/>
  <unicode hex="044A"/>
  <outline>
    <contour>
      <point x="214" y="927" type="line"/>
      <point x="200" y="761" type="line"/>
      <point x="31" y="761" type="line"/>
      <point x="31" y="1082" type="line"/>
      <point x="811" y="1082" type="line"/>
      <point x="811" y="955" type="line"/>
      <point x="648" y="927" type="line"/>
      <point x="648" y="710" type="line"/>
      <point x="916" y="710" type="line" smooth="yes"/>
      <point x="1172.0" y="710.0"/>
      <point x="1322.0" y="567.0"/>
      <point x="1322" y="359" type="curve" smooth="yes"/>
      <point x="1322.0" y="149.666666667"/>
      <point x="1170.66666667" y="0.0"/>
      <point x="916" y="0" type="curve" smooth="yes"/>
      <point x="288" y="0" type="line"/>
      <point x="288" y="126" type="line"/>
      <point x="451" y="154" type="line"/>
      <point x="451" y="927" type="line"/>
    </contour>
    <contour>
      <point x="648" y="556" type="line"/>
      <point x="648" y="154" type="line"/>
      <point x="916" y="154" type="line" smooth="yes"/>
      <point x="1058.66666667" y="154.0"/>
      <point x="1124.0" y="238.666666667"/>
      <point x="1124" y="352" type="curve" smooth="yes"/>
      <point x="1124.0" y="461.333333333"/>
      <point x="1057.33333333" y="556.0"/>
      <point x="916" y="556" type="curve" smooth="yes"/>
    </contour>
  </outline>
</glyph>
<glyph name="yeru-cy" format="1">
  <advance width="1732"/>
  <unicode hex="044B"/>
  <outline>
    <contour>
      <point x="457" y="1082" type="line"/>
      <point x="457" y="710" type="line"/>
      <point x="725" y="710" type="line" smooth="yes"/>
      <point x="981.0" y="710.0"/>
      <point x="1131.0" y="567.0"/>
      <point x="1131" y="359" type="curve" smooth="yes"/>
      <point x="1131.0" y="149.666666667"/>
      <point x="979.666666667" y="0.0"/>
      <point x="725" y="0" type="curve" smooth="yes"/>
      <point x="97" y="0" type="line"/>
      <point x="97" y="126" type="line"/>
      <point x="260" y="154" type="line"/>
      <point x="260" y="927" type="line"/>
      <point x="97" y="955" type="line"/>
      <point x="97" y="1082" type="line"/>
      <point x="260" y="1082" type="line"/>
    </contour>
    <contour>
      <point x="1153" y="955" type="line"/>
      <point x="1153" y="1082" type="line"/>
      <point x="1513" y="1082" type="line"/>
      <point x="1513" y="154" type="line"/>
      <point x="1676" y="126" type="line"/>
      <point x="1676" y="0" type="line"/>
      <point x="1153" y="0" type="line"/>
      <point x="1153" y="126" type="line"/>
      <point x="1316" y="154" type="line"/>
      <point x="1316" y="927" type="line"/>
    </contour>
    <contour>
      <point x="457" y="556" type="line"/>
      <point x="457" y="154" type="line"/>
      <point x="725" y="154" type="line" smooth="yes"/>
      <point x="867.666666667" y="154.0"/>
      <point x="933.0" y="238.666666667"/>
      <point x="933" y="352" type="curve" smooth="yes"/>
      <point x="933.0" y="461.333333333"/>
      <point x="866.333333333" y="556.0"/>
      <point x="725" y="556" type="curve" smooth="yes"/>
    </contour>
    <contour>
      <point x="620" y="1082" type="line"/>
      <point x="620" y="955" type="line"/>
      <point x="457" y="927" type="line"/>
      <point x="457" y="1082" type="line"/>
    </contour>
  </outline>
</glyph>
<glyph name="ia-cy" format="1">
  <advance width="1302"/>
  <unicode hex="044F"/>
  <outline>
    <contour>
      <point x="690" y="126" type="line"/>
      <point x="853" y="154" type="line"/>
      <point x="853" y="420" type="line"/>
      <point x="586" y="420" type="line"/>
      <point x="330" y="0" type="line"/>
      <point x="65" y="0" type="line"/>
      <point x="65" y="126" type="line"/>
      <point x="207" y="147" type="line"/>
      <point x="392" y="449" type="line"/>
      <point x="254.666666667" y="498.333333333"/>
      <point x="178.0" y="611.0"/>
      <point x="178" y="751" type="curve" smooth="yes"/>
      <point x="178.0" y="945.666666667"/>
      <point x="335.666666667" y="1082.0"/>
      <point x="593" y="1082" type="curve"/>
      <point x="1213" y="1082" type="line"/>
      <point x="1213" y="955" type="line"/>
      <point x="1050" y="927" type="line"/>
      <point x="1050" y="154" type="line"/>
      <point x="1213" y="126" type="line"/>
      <point x="1213" y="0" type="line"/>
      <point x="690" y="0" type="line"/>
    </contour>
    <contour>
      <point x="376" y="749" type="curve" smooth="yes"/>
      <point x="376.0" y="653.0"/>
      <point x="442.333333333" y="575.0"/>
      <point x="573" y="575" type="curve" smooth="yes"/>
      <point x="853" y="575" type="line"/>
      <point x="853" y="929" type="line"/>
      <point x="593" y="929" type="line" smooth="yes"/>
      <point x="450.333333333" y="929.0"/>
      <point x="376.0" y="846.333333333"/>
    </contour>
  </outline>
</glyph>
<glyph name="dje-cy" format="1">
  <advance width="1298"/>
  <unicode hex="0452"/>
  <outline>
    <contour>
      <point x="636" y="1180" type="line"/>
      <point x="422" y="1180" type="line"/>
      <point x="422" y="938" type="line"/>
      <point x="496.66666666666663" y="1042.0"/>
      <point x="607.0" y="1102.0"/>
      <point x="739" y="1102" type="curve" smooth="yes"/>
      <point x="971.0000000000001" y="1102.0"/>
      <point x="1105.0" y="965.9999999999999"/>
      <point x="1105" y="678" type="curve" smooth="yes"/>
      <point x="1105" y="-89" type="line" smooth="yes"/>
      <point x="1105.0" y="-311.66666666666663"/>
      <point x="985.3333333333333" y="-437.0"/>
      <point x="780" y="-437" type="curve" smooth="yes"/>
      <point x="737.3333333333333" y="-437.0"/>
      <point x="704.3333333333333" y="-431.0"/>
      <point x="667" y="-419" type="curve"/>
      <point x="682" y="-269" type="line"/>
      <point x="699.3333333333333" y="-275.66666666666663"/>
      <point x="757.3333333333333" y="-282.0"/>
      <point x="780" y="-282" type="curve" smooth="yes"/>
      <point x="860.0" y="-282.0"/>
      <point x="908.0" y="-209.0"/>
      <point x="908" y="-89" type="curve" smooth="yes"/>
      <point x="908" y="680" type="line" smooth="yes"/>
      <point x="908.0" y="858.6666666666667"/>
      <point x="831.0" y="942.0"/>
      <point x="679" y="942" type="curve" smooth="yes"/>
      <point x="571.0" y="942.0"/>
      <point x="479.33333333333337" y="887.0"/>
      <point x="422" y="799" type="curve"/>
      <point x="422" y="154" type="line"/>
      <point x="585" y="126" type="line"/>
      <point x="585" y="0" type="line"/>
      <point x="62" y="0" type="line"/>
      <point x="62" y="126" type="line"/>
      <point x="225" y="154" type="line"/>
      <point x="225" y="1180" type="line"/>
      <point x="31" y="1180" type="line"/>
      <point x="31" y="1293" type="line"/>
      <point x="225" y="1293" type="line"/>
      <point x="225" y="1405" type="line"/>
      <point x="62" y="1433" type="line"/>
      <point x="62" y="1560" type="line"/>
      <point x="422" y="1560" type="line"/>
      <point x="422" y="1293" type="line"/>
      <point x="636" y="1293" type="line"/>
    </contour>
  </outline>
</glyph>
<glyph name="e-cy" format="1">
  <advance width="1118"/>
  <unicode hex="0454"/>
  <outline>
    <contour>
      <point x="599" y="133" type="curve" smooth="yes"/>
      <point x="729.6666666666667" y="133.0"/>
      <point x="846.0" y="224.66666666666663"/>
      <point x="846" y="342" type="curve"/>
      <point x="1023" y="342" type="line"/>
      <point x="1025" y="336" type="line"/>
      <point x="1031.6666666666665" y="149.33333333333337"/>
      <point x="828.3333333333333" y="-21.0"/>
      <point x="599" y="-21" type="curve" smooth="yes"/>
      <point x="284.33333333333337" y="-21.0"/>
      <point x="114.0" y="209.33333333333337"/>
      <point x="114" y="520" type="curve" smooth="yes"/>
      <point x="114" y="562" type="line" smooth="yes"/>
      <point x="114.0" y="870.0"/>
      <point x="285.66666666666674" y="1102.0"/>
      <point x="599" y="1102" type="curve" smooth="yes"/>
      <point x="772.3333333333333" y="1102.0"/>
      <point x="913.3333333333333" y="1041.0"/>
      <point x="1004" y="941" type="curve"/>
      <point x="1013" y="701" type="line"/>
      <point x="856" y="701" type="line"/>
      <point x="813" y="871" type="line"/>
      <point x="766.3333333333333" y="916.3333333333333"/>
      <point x="691.0" y="947.0"/>
      <point x="599" y="947" type="curve" smooth="yes"/>
      <point x="411.0" y="947.0"/>
      <point x="324.66666666666663" y="806.0"/>
      <point x="318" y="622" type="curve"/>
      <point x="320" y="617" type="line"/>
      <point x="684" y="617" type="line"/>
      <point x="684" y="463" type="line"/>
      <point x="320" y="463" type="line"/>
      <point x="318" y="458" type="line"/>
      <point x="324.66666666666663" y="270.0"/>
      <point x="409.66666666666674" y="133.0"/>
    </contour>
  </outline>
</glyph>
<glyph name="lje-cy" format="1">
  <advance width="1786"/>
  <unicode hex="0459"/>
  <outline>
    <contour>
      <point x="505.0" y="926.0" type="line"/>
      <point x="505.0" y="620.0" type="line" smooth="yes"/>
      <point x="505.0" y="196.0"/>
      <point x="396.0" y="0.0"/>
      <point x="121.0" y="0.0" type="curve" smooth="yes"/>
      <point x="65.0" y="0.0" type="line"/>
      <point x="68.0" y="158.0" type="line"/>
      <point x="109.0" y="159.0" type="line" smooth="yes"/>
      <point x="250.0" y="159.0"/>
      <point x="308.0" y="296.0"/>
      <point x="308.0" y="620.0" type="curve" smooth="yes"/>
      <point x="308.0" y="927.0" type="line"/>
      <point x="145.0" y="955.0" type="line"/>
      <point x="145.0" y="1082.0" type="line"/>
      <point x="930.0" y="1082.0" type="line"/>
      <point x="1183.0" y="1082.0" type="line"/>
      <point x="1183.0" y="955.0" type="line"/>
      <point x="1020.0" y="927.0" type="line"/>
      <point x="1020.0" y="671.0" type="line"/>
      <point x="1288.0" y="671.0" type="line" smooth="yes"/>
      <point x="1544.0" y="671.0"/>
      <point x="1694.0" y="535.0"/>
      <point x="1694.0" y="339.0" type="curve" smooth="yes"/>
      <point x="1694.0" y="142.0"/>
      <point x="1543.0" y="0.0"/>
      <point x="1288.0" y="0.0" type="curve" smooth="yes"/>
      <point x="660.0" y="0.0" type="line"/>
      <point x="660.0" y="126.0" type="line"/>
      <point x="823.0" y="154.0" type="line"/>
      <point x="823.0" y="926.0" type="line"/>
    </contour>
    <contour>
      <point x="1020" y="517" type="line"/>
      <point x="1020" y="152" type="line"/>
      <point x="1288" y="152" type="line" smooth="yes"/>
      <point x="1429.33333333" y="152.0"/>
      <point x="1496.0" y="238.333333333"/>
      <point x="1496" y="341" type="curve" smooth="yes"/>
      <point x="1496.0" y="438.333333333"/>
      <point x="1430.66666667" y="517.0"/>
      <point x="1288" y="517" type="curve" smooth="yes"/>
    </contour>
  </outline>
</glyph>
<glyph name="nje-cy" format="1">
  <advance width="1894"/>
  <unicode hex="045A"/>
  <outline>
    <contour>
      <point x="97.0" y="126.0" type="line"/>
      <point x="260.0" y="154.0" type="line"/>
      <point x="260.0" y="927.0" type="line"/>
      <point x="97.0" y="955.0" type="line"/>
      <point x="97.0" y="1082.0" type="line"/>
      <point x="620.0" y="1082.0" type="line"/>
      <point x="620.0" y="955.0" type="line"/>
      <point x="457.0" y="927.0" type="line"/>
      <point x="457.0" y="674.0" type="line"/>
      <point x="938.0" y="674.0" type="line"/>
      <point x="938.0" y="927.0" type="line"/>
      <point x="775.0" y="955.0" type="line"/>
      <point x="775.0" y="1082.0" type="line"/>
      <point x="931.0" y="1082.0" type="line"/>
      <point x="1136.0" y="1082.0" type="line"/>
      <point x="1299.0" y="1082.0" type="line"/>
      <point x="1299.0" y="955.0" type="line"/>
      <point x="1136.0" y="927.0" type="line"/>
      <point x="1136.0" y="670.0" type="line"/>
      <point x="1404.0" y="670.0" type="line" smooth="yes"/>
      <point x="1660.0" y="670.0"/>
      <point x="1810.0" y="535.0"/>
      <point x="1810.0" y="339.0" type="curve" smooth="yes"/>
      <point x="1810.0" y="142.0"/>
      <point x="1659.0" y="0.0"/>
      <point x="1404.0" y="0.0" type="curve" smooth="yes"/>
      <point x="775.0" y="0.0" type="line"/>
      <point x="775.0" y="126.0" type="line"/>
      <point x="938.0" y="154.0" type="line"/>
      <point x="938.0" y="521.0" type="line"/>
      <point x="457.0" y="521.0" type="line"/>
      <point x="457.0" y="154.0" type="line"/>
      <point x="620.0" y="126.0" type="line"/>
      <point x="620.0" y="0.0" type="line"/>
      <point x="97.0" y="0.0" type="line"/>
    </contour>
    <contour>
      <point x="1136" y="517" type="line"/>
      <point x="1136" y="152" type="line"/>
      <point x="1404" y="152" type="line" smooth="yes"/>
      <point x="1545.33333333" y="152.0"/>
      <point x="1612.0" y="238.333333333"/>
      <point x="1612" y="341" type="curve" smooth="yes"/>
      <point x="1612.0" y="438.333333333"/>
      <point x="1546.66666667" y="517.0"/>
      <point x="1404" y="517" type="curve" smooth="yes"/>
    </contour>
  </outline>
</glyph>
<glyph name="tshe-cy" format="1">
  <advance width="1322"/>
  <unicode hex="045B"/>
  <outline>
    <contour>
      <point x="62" y="126" type="line"/>
      <point x="225" y="154" type="line"/>
      <point x="225" y="1162" type="line"/>
      <point x="49" y="1162" type="line"/>
      <point x="49" y="1317" type="line"/>
      <point x="225" y="1317" type="line"/>
      <point x="225" y="1405" type="line"/>
      <point x="62" y="1433" type="line"/>
      <point x="62" y="1560" type="line"/>
      <point x="422" y="1560" type="line"/>
      <point x="422" y="1317" type="line"/>
      <point x="690" y="1317" type="line"/>
      <point x="690" y="1162" type="line"/>
      <point x="422" y="1162" type="line"/>
      <point x="422" y="938" type="line"/>
      <point x="496.666666667" y="1042.0"/>
      <point x="607.0" y="1102.0"/>
      <point x="739" y="1102" type="curve" smooth="yes"/>
      <point x="971.0" y="1102.0"/>
      <point x="1105.0" y="966.0"/>
      <point x="1105" y="678" type="curve" smooth="yes"/>
      <point x="1105" y="154" type="line"/>
      <point x="1268" y="126" type="line"/>
      <point x="1268" y="0" type="line"/>
      <point x="745" y="0" type="line"/>
      <point x="745" y="126" type="line"/>
      <point x="908" y="154" type="line"/>
      <point x="908" y="680" type="line" smooth="yes"/>
      <point x="908.0" y="858.666666667"/>
      <point x="831.0" y="942.0"/>
      <point x="679" y="942" type="curve" smooth="yes"/>
      <point x="571.0" y="942.0"/>
      <point x="479.333333333" y="887.0"/>
      <point x="422" y="799" type="curve"/>
      <point x="422" y="154" type="line"/>
      <point x="585" y="126" type="line"/>
      <point x="585" y="0" type="line"/>
      <point x="62" y="0" type="line"/>
    </contour>
  </outline>
</glyph>
<glyph name="dzhe-cy" format="1">
  <advance width="1397"/>
  <unicode hex="045F"/>
  <outline>
    <contour>
      <point x="800" y="-356" type="line"/>
      <point x="603" y="-356" type="line"/>
      <point x="603" y="0" type="line"/>
      <point x="98" y="0" type="line"/>
      <point x="98" y="126" type="line"/>
      <point x="261" y="154" type="line"/>
      <point x="261" y="927" type="line"/>
      <point x="98" y="955" type="line"/>
      <point x="98" y="1082" type="line"/>
      <point x="458" y="1082" type="line"/>
      <point x="621" y="1082" type="line"/>
      <point x="621" y="955" type="line"/>
      <point x="458" y="927" type="line"/>
      <point x="458" y="154" type="line"/>
      <point x="940" y="154" type="line"/>
      <point x="940" y="927" type="line"/>
      <point x="777" y="955" type="line"/>
      <point x="777" y="1082" type="line"/>
      <point x="1300" y="1082" type="line"/>
      <point x="1300" y="955" type="line"/>
      <point x="1137" y="927" type="line"/>
      <point x="1137" y="154" type="line"/>
      <point x="1300" y="126" type="line"/>
      <point x="1300" y="0" type="line"/>
      <point x="800" y="0" type="line"/>
    </contour>
  </outline>
</glyph>
<glyph name="Omega-cy" format="1">
  <advance width="1763"/>
  <unicode hex="0460"/>
  <outline>
    <contour>
      <point x="1628" y="1456" type="line"/>
      <point x="1628" y="391" type="line" smooth="yes"/>
      <point x="1628.0" y="123.0"/>
      <point x="1459.3333333333335" y="-21.0"/>
      <point x="1210" y="-21" type="curve" smooth="yes"/>
      <point x="1064.6666666666667" y="-21.0"/>
      <point x="946.6666666666667" y="37.33333333333324"/>
      <point x="884" y="152" type="curve"/>
      <point x="816.0" y="37.33333333333334"/>
      <point x="693.6666666666667" y="-21.0"/>
      <point x="543" y="-21" type="curve" smooth="yes"/>
      <point x="303.0" y="-21.0"/>
      <point x="144.0" y="123.0"/>
      <point x="144" y="391" type="curve" smooth="yes"/>
      <point x="144" y="1456" type="line"/>
      <point x="341" y="1456" type="line"/>
      <point x="341" y="391" type="line" smooth="yes"/>
      <point x="341.0" y="223.0"/>
      <point x="421.66666666666663" y="133.0"/>
      <point x="543" y="133" type="curve" smooth="yes"/>
      <point x="687.0" y="133.0"/>
      <point x="784.0" y="221.66666666666674"/>
      <point x="784" y="391" type="curve" smooth="yes"/>
      <point x="784" y="1456" type="line"/>
      <point x="988" y="1456" type="line"/>
      <point x="988" y="391" type="line" smooth="yes"/>
      <point x="988.0" y="222.9999999999999"/>
      <point x="1076.6666666666665" y="133.0"/>
      <point x="1210" y="133" type="curve" smooth="yes"/>
      <point x="1342.0" y="133.0"/>
      <point x="1431.0" y="223.0"/>
      <point x="1431" y="391" type="curve" smooth="yes"/>
      <point x="1431" y="1456" type="line"/>
    </contour>
  </outline>
</glyph>
<glyph name="eiotified-cy" format="1">
  <advance width="1646"/>
  <unicode hex="0465"/>
  <outline>
    <contour>
      <point x="448" y="616" type="line"/>
      <point x="663" y="616" type="line"/>
      <point x="681.6666666666667" y="897.3333333333334"/>
      <point x="851.3333333333336" y="1102.0"/>
      <point x="1146" y="1102" type="curve" smooth="yes"/>
      <point x="1319.3333333333335" y="1102.0"/>
      <point x="1460.3333333333335" y="1041.0"/>
      <point x="1551" y="941" type="curve"/>
      <point x="1560" y="701" type="line"/>
      <point x="1403" y="701" type="line"/>
      <point x="1360" y="871" type="line"/>
      <point x="1313.3333333333335" y="916.3333333333333"/>
      <point x="1238.0" y="947.0"/>
      <point x="1146" y="947" type="curve" smooth="yes"/>
      <point x="958.0" y="947.0"/>
      <point x="871.6666666666667" y="806.3333333333333"/>
      <point x="865" y="621" type="curve"/>
      <point x="867" y="616" type="line"/>
      <point x="1227" y="616" type="line"/>
      <point x="1227" y="462" type="line"/>
      <point x="867" y="462" type="line"/>
      <point x="865" y="457" type="line"/>
      <point x="871.6666666666667" y="270.33333333333337"/>
      <point x="956.6666666666665" y="133.0"/>
      <point x="1146" y="133" type="curve" smooth="yes"/>
      <point x="1276.6666666666665" y="133.0"/>
      <point x="1393.0" y="224.66666666666663"/>
      <point x="1393" y="342" type="curve"/>
      <point x="1570" y="342" type="line"/>
      <point x="1572" y="336" type="line"/>
      <point x="1578.6666666666665" y="149.33333333333337"/>
      <point x="1375.3333333333335" y="-21.0"/>
      <point x="1146" y="-21" type="curve" smooth="yes"/>
      <point x="851.3333333333335" y="-21.0"/>
      <point x="683.0" y="179.33333333333331"/>
      <point x="663" y="462" type="curve"/>
      <point x="448" y="462" type="line"/>
      <point x="448" y="154" type="line"/>
      <point x="611" y="126" type="line"/>
      <point x="611" y="0" type="line"/>
      <point x="88" y="0" type="line"/>
      <point x="88" y="126" type="line"/>
      <point x="251" y="154" type="line"/>
      <point x="251" y="927" type="line"/>
      <point x="88" y="955" type="line"/>
      <point x="88" y="1082" type="line"/>
      <point x="251" y="1082" type="line"/>
      <point x="448" y="1082" type="line"/>
    </contour>
  </outline>
</glyph>
<glyph name="Yuslittle-cy" format="1">
  <advance width="1427"/>
  <unicode hex="0466"/>
  <outline>
    <contour>
      <point x="52" y="126" type="line"/>
      <point x="156" y="141" type="line"/>
      <point x="630" y="1456" type="line"/>
      <point x="798" y="1456" type="line"/>
      <point x="1263" y="141" type="line"/>
      <point x="1367" y="126" type="line"/>
      <point x="1367" y="0" type="line"/>
      <point x="949" y="0" type="line"/>
      <point x="949" y="126" type="line"/>
      <point x="1062" y="145" type="line"/>
      <point x="957" y="457" type="line"/>
      <point x="802" y="457" type="line"/>
      <point x="802" y="0" type="line"/>
      <point x="606" y="0" type="line"/>
      <point x="606" y="457" type="line"/>
      <point x="464" y="457" type="line"/>
      <point x="356" y="145" type="line"/>
      <point x="469" y="126" type="line"/>
      <point x="469" y="0" type="line"/>
      <point x="52" y="0" type="line"/>
    </contour>
    <contour>
      <point x="521.0" y="621.0" type="line"/>
      <point x="901.0" y="621.0" type="line"/>
      <point x="730.0" y="1125.0" type="line"/>
      <point x="716.0" y="1165.0" type="line"/>
      <point x="710.0" y="1165.0" type="line"/>
      <point x="698.0" y="1131.0" type="line"/>
    </contour>
  </outline>
</glyph>
<glyph name="yuslittle-cy" format="1">
  <advance width="1203"/>
  <unicode hex="0467"/>
  <outline>
    <contour>
      <point x="806" y="294" type="line"/>
      <point x="700" y="294" type="line"/>
      <point x="700" y="0" type="line"/>
      <point x="504" y="0" type="line"/>
      <point x="504" y="294" type="line"/>
      <point x="391" y="294" type="line"/>
      <point x="275" y="0" type="line"/>
      <point x="60" y="0" type="line"/>
      <point x="60" y="126" type="line"/>
      <point x="130" y="139" type="line"/>
      <point x="514" y="1082" type="line"/>
      <point x="683" y="1082" type="line"/>
      <point x="1069" y="139" type="line"/>
      <point x="1141" y="126" type="line"/>
      <point x="1141" y="0" type="line"/>
      <point x="925" y="0" type="line"/>
    </contour>
    <contour>
      <point x="452" y="449" type="line"/>
      <point x="744" y="449" type="line"/>
      <point x="618" y="761" type="line"/>
      <point x="600" y="829" type="line"/>
      <point x="594" y="829" type="line"/>
      <point x="576" y="761" type="line"/>
    </contour>
  </outline>
</glyph>
<glyph name="Yuslittleiotified-cy" format="1">
  <advance width="1935"/>
  <unicode hex="0468"/>
  <outline>
    <contour>
      <point x="563" y="1456" type="line"/>
      <point x="563" y="1329" type="line"/>
      <point x="400" y="1301" type="line"/>
      <point x="400" y="622" type="line"/>
      <point x="878" y="622" type="line"/>
      <point x="1179" y="1456" type="line"/>
      <point x="1347" y="1456" type="line"/>
      <point x="1812" y="141" type="line"/>
      <point x="1916" y="126" type="line"/>
      <point x="1916" y="0" type="line"/>
      <point x="1498" y="0" type="line"/>
      <point x="1498" y="126" type="line"/>
      <point x="1611" y="145" type="line"/>
      <point x="1506" y="457" type="line"/>
      <point x="1351" y="457" type="line"/>
      <point x="1351" y="0" type="line"/>
      <point x="1155" y="0" type="line"/>
      <point x="1155" y="457" type="line"/>
      <point x="1013" y="457" type="line"/>
      <point x="905" y="145" type="line"/>
      <point x="1018" y="126" type="line"/>
      <point x="1018" y="0" type="line"/>
      <point x="601" y="0" type="line"/>
      <point x="601" y="126" type="line"/>
      <point x="705" y="141" type="line"/>
      <point x="819" y="458" type="line"/>
      <point x="400" y="458" type="line"/>
      <point x="400" y="154" type="line"/>
      <point x="563" y="126" type="line"/>
      <point x="563" y="0" type="line"/>
      <point x="40" y="0" type="line"/>
      <point x="40" y="126" type="line"/>
      <point x="203" y="154" type="line"/>
      <point x="203" y="1301" type="line"/>
      <point x="40" y="1329" type="line"/>
      <point x="40" y="1456" type="line"/>
      <point x="203" y="1456" type="line"/>
      <point x="400" y="1456" type="line"/>
    </contour>
    <contour>
      <point x="1070.0" y="621.0" type="line"/>
      <point x="1450.0" y="621.0" type="line"/>
      <point x="1279.0" y="1124.0" type="line"/>
      <point x="1265.0" y="1165.0" type="line"/>
      <point x="1259.0" y="1165.0" type="line"/>
      <point x="1244.0" y="1123.0" type="line"/>
    </contour>
  </outline>
</glyph>
<glyph name="Yusbig-cy" format="1">
  <advance width="1895"/>
  <unicode hex="046A"/>
  <outline>
    <contour>
      <point x="690" y="126" type="line"/>
      <point x="853" y="154" type="line"/>
      <point x="853" y="632" type="line"/>
      <point x="836" y="659" type="line"/>
      <point x="705" y="659" type="line" smooth="yes"/>
      <point x="501.0" y="659.0"/>
      <point x="415.0" y="587.0"/>
      <point x="415" y="371" type="curve" smooth="yes"/>
      <point x="415" y="154" type="line"/>
      <point x="578" y="126" type="line"/>
      <point x="578" y="0" type="line"/>
      <point x="55" y="0" type="line"/>
      <point x="55" y="126" type="line"/>
      <point x="218" y="154" type="line"/>
      <point x="218" y="371" type="line" smooth="yes"/>
      <point x="218.0" y="683.0"/>
      <point x="385.0" y="814.0"/>
      <point x="705" y="814" type="curve" smooth="yes"/>
      <point x="742" y="814" type="line"/>
      <point x="441" y="1308" type="line"/>
      <point x="297" y="1329" type="line"/>
      <point x="297" y="1456" type="line"/>
      <point x="1613" y="1456" type="line"/>
      <point x="1613" y="1329" type="line"/>
      <point x="1470" y="1308" type="line"/>
      <point x="1169" y="814" type="line"/>
      <point x="1191" y="814" type="line" smooth="yes"/>
      <point x="1509.66666667" y="814.0"/>
      <point x="1679.0" y="683.0"/>
      <point x="1679" y="371" type="curve" smooth="yes"/>
      <point x="1679" y="154" type="line"/>
      <point x="1842" y="126" type="line"/>
      <point x="1842" y="0" type="line"/>
      <point x="1319" y="0" type="line"/>
      <point x="1319" y="126" type="line"/>
      <point x="1482" y="154" type="line"/>
      <point x="1482" y="371" type="line" smooth="yes"/>
      <point x="1482.0" y="587.0"/>
      <point x="1395.0" y="659.0"/>
      <point x="1191" y="659" type="curve" smooth="yes"/>
      <point x="1075" y="659" type="line"/>
      <point x="1050" y="637" type="line"/>
      <point x="1050" y="154" type="line"/>
      <point x="1213" y="126" type="line"/>
      <point x="1213" y="0" type="line"/>
      <point x="690" y="0" type="line"/>
    </contour>
    <contour>
      <point x="960.0" y="814.0" type="line"/>
      <point x="977.0" y="843.0" type="line"/>
      <point x="1244.0" y="1301.0" type="line"/>
      <point x="666.0" y="1301.0" type="line"/>
      <point x="936.0" y="837.0" type="line"/>
      <point x="950.0" y="814.0" type="line"/>
    </contour>
  </outline>
</glyph>
<glyph name="yusbig-cy" format="1">
  <advance width="1600"/>
  <unicode hex="046B"/>
  <outline>
    <contour>
      <point x="389.0" y="162.0" type="curve" smooth="yes"/>
      <point x="389.0" y="0.0" type="line"/>
      <point x="68.0" y="0.0" type="line"/>
      <point x="68.0" y="126.0" type="line"/>
      <point x="192.0" y="154.0" type="line"/>
      <point x="192.0" y="162.0" type="line" smooth="yes"/>
      <point x="192.0" y="457.0"/>
      <point x="331.0" y="588.0"/>
      <point x="594.0" y="602.0" type="curve" smooth="yes"/>
      <point x="599.0" y="603.0"/>
      <point x="605.0" y="603.0"/>
      <point x="610.0" y="603.0" type="curve"/>
      <point x="413.0" y="934.0" type="line"/>
      <point x="271.0" y="955.0" type="line"/>
      <point x="271.0" y="1082.0" type="line"/>
      <point x="1343.0" y="1082.0" type="line"/>
      <point x="1343.0" y="955.0" type="line"/>
      <point x="1202.0" y="934.0" type="line"/>
      <point x="1005.0" y="603.0" type="line"/>
      <point x="1011.0" y="603.0"/>
      <point x="1017.0" y="602.0"/>
      <point x="1023.0" y="602.0" type="curve" smooth="yes"/>
      <point x="1275.0" y="584.0"/>
      <point x="1410.0" y="450.0"/>
      <point x="1410.0" y="162.0" type="curve" smooth="yes"/>
      <point x="1410.0" y="154.0" type="line"/>
      <point x="1534.0" y="126.0" type="line"/>
      <point x="1534.0" y="0.0" type="line"/>
      <point x="1213.0" y="0.0" type="line"/>
      <point x="1213.0" y="162.0" type="line" smooth="yes"/>
      <point x="1213.0" y="378.0"/>
      <point x="1138.0" y="450.0"/>
      <point x="962.0" y="450.0" type="curve" smooth="yes"/>
      <point x="914.0" y="450.0" type="line"/>
      <point x="903" y="441" type="line"/>
      <point x="903.0" y="154.0" type="line"/>
      <point x="1066.0" y="126.0" type="line"/>
      <point x="1066.0" y="0.0" type="line"/>
      <point x="543.0" y="0.0" type="line"/>
      <point x="543.0" y="126.0" type="line"/>
      <point x="706.0" y="154.0" type="line"/>
      <point x="706.0" y="441.0" type="line"/>
      <point x="701.0" y="450.0" type="line"/>
      <point x="640.0" y="450.0" type="line" smooth="yes"/>
      <point x="463.0" y="450.0"/>
      <point x="389.0" y="379.0"/>
    </contour>
    <contour>
      <point x="807.0" y="607.0" type="line"/>
      <point x="812.0" y="616.0" type="line"/>
      <point x="983.0" y="926.0" type="line"/>
      <point x="632.0" y="926.0" type="line"/>
    </contour>
  </outline>
</glyph>
